<?xml version="1.0" standalone="no"?>
<!DOCTYPE svg PUBLIC "-//W3C//DTD SVG 1.1//EN" "http://www.w3.org/Graphics/SVG/1.1/DTD/svg11.dtd" >
<svg xmlns="http://www.w3.org/2000/svg" xmlns:xlink="http://www.w3.org/1999/xlink" version="1.1">
<metadata>
Created by FontForge 20170924 at Mon Apr 21 19:16:53 2014
 By www-data
Copyright C 2010, 2014 Hoefler &#38; Co. http:www.typography.com
</metadata>
<defs>
<font id="ArcherSSm-Book" horiz-adv-x="590" >
  <font-face 
    font-family="Archer SSm"
    font-weight="325"
    font-stretch="normal"
    units-per-em="1000"
    panose-1="0 0 0 0 0 0 0 0 0 0"
    ascent="800"
    descent="-200"
    x-height="486"
    cap-height="724"
    bbox="-54 -300 1635 1119"
    underline-thickness="50"
    underline-position="-100"
    stemh="53"
    stemv="61"
    unicode-range="U+0020-FB04"
  />
<missing-glyph horiz-adv-x="506" 
d="M3 -200v1000h500v-1000h-500zM74 750l179 -390l179 390h-358zM453 676l-172 -376l172 -376v752zM53 -76l172 376l-172 376v-752zM253 240l-179 -390h358z" />
    <glyph glyph-name="f_b" unicode="fb" horiz-adv-x="999" 
d="M464 0v436h-265v-385h95v-51h-233v51h82v385h-89v50h89v161c0 71 20 124 55 159c36 35 85 52 139 52c50 0 95 -16 131 -51l21 46h32v-437c44 45 94 79 179 79c127 0 236 -101 236 -253c0 -139 -101 -251 -250 -251c-63 0 -125 25 -167 63l-23 -54h-32zM423 718
c0 13 5 26 15 35c-21 35 -64 54 -106 54c-36 0 -70 -13 -93 -36c-26 -27 -40 -70 -40 -120v-165h265v184c-25 4 -41 24 -41 48zM688 42c107 0 188 82 188 200c0 119 -76 203 -183 203c-72 0 -129 -36 -172 -84v-257c40 -34 95 -62 167 -62z" />
    <glyph glyph-name="f_f" unicode="ff" horiz-adv-x="694" 
d="M199 486h272v174c0 73 13 124 47 157c25 25 55 41 99 41c46 0 79 -20 79 -56c0 -26 -18 -44 -42 -44c-27 0 -45 20 -51 48c-18 -2 -33 -10 -46 -24c-19 -21 -29 -55 -29 -105v-191h126v-50h-126v-385h95v-51h-233v51h81v385h-272v-385h95v-51h-233v51h82v385h-89v50h89
v151c0 73 13 124 46 157c25 25 55 41 99 41c46 0 79 -20 79 -56c0 -26 -18 -44 -41 -44c-26 0 -45 17 -52 48c-16 -3 -32 -10 -45 -23c-18 -20 -30 -55 -30 -106v-168z" />
    <glyph glyph-name="f_h" unicode="fh" horiz-adv-x="988" 
d="M423 718c0 13 5 26 15 35c-21 35 -64 54 -106 54c-36 0 -70 -13 -93 -36c-26 -27 -40 -70 -40 -120v-165h265v184c-25 4 -41 24 -41 48zM464 51v385h-265v-385h95v-51h-233v51h82v385h-89v50h89v161c0 71 20 124 55 159c36 35 85 52 139 52c50 0 95 -16 131 -51l21 46h32
v-461c47 59 116 103 187 103c60 0 100 -19 126 -52c21 -29 32 -68 32 -113v-279h81v-51h-219v51h81v271c0 39 -8 66 -24 86c-19 24 -49 35 -87 35c-70 0 -132 -45 -177 -101v-291h81v-51h-219v51h81z" />
    <glyph glyph-name="fi" unicode="fi" horiz-adv-x="643" 
d="M510 486v-435h88v-51h-229v51h85v385h-255v-385h93v-51h-231v51h82v385h-89v50h89v156c0 83 20 141 59 175c29 26 65 41 109 41c64 0 105 -36 105 -74c0 -26 -18 -46 -45 -46c-30 0 -49 30 -44 61c-7 4 -16 6 -26 6c-22 0 -47 -11 -67 -35c-21 -24 -35 -61 -35 -111v-173
h311z" />
    <glyph glyph-name="f_j" unicode="fj" horiz-adv-x="610" 
d="M454 436h-255v-385h93v-51h-231v51h82v385h-89v50h89v156c0 83 20 141 59 175c29 26 65 41 109 41c64 0 105 -36 105 -74c0 -26 -18 -46 -45 -46c-30 0 -49 30 -44 61c-7 4 -16 6 -26 6c-22 0 -47 -11 -67 -35c-21 -24 -35 -61 -35 -111v-173h311v-476
c0 -58 -7 -103 -18 -139c-24 -72 -71 -103 -132 -103c-58 0 -94 30 -94 68c0 22 15 45 42 45c24 0 40 -16 40 -40c0 -7 -2 -15 -6 -23c7 -3 14 -4 22 -4c36 0 63 26 77 76c8 28 13 65 13 112v434z" />
    <glyph glyph-name="f_k" unicode="fk" horiz-adv-x="942" 
d="M199 651v-165h265v184c-25 4 -41 24 -41 48c0 13 5 26 15 35c-21 35 -64 54 -106 54c-36 0 -70 -13 -93 -36c-26 -27 -40 -70 -40 -120zM521 853v-622l235 207h-109v48h268v-50h-85l-173 -150l165 -235h93v-51h-124l-175 256l-95 -83v-122h87v-51h-225v51h81v385h-265
v-385h95v-51h-233v51h82v385h-89v50h89v161c0 71 20 124 55 159c36 35 85 52 139 52c50 0 95 -16 131 -51l21 46h32z" />
    <glyph glyph-name="fl" unicode="fl" horiz-adv-x="654" 
d="M332 807c-36 0 -70 -13 -93 -36c-26 -27 -40 -70 -40 -120v-165h265v184c-25 4 -41 24 -41 48c0 13 5 26 15 35c-21 35 -64 54 -106 54zM378 51h86v385h-265v-385h95v-51h-233v51h82v385h-89v50h89v161c0 71 20 124 55 159c36 35 85 52 139 52c50 0 95 -16 131 -51l21 46
h32v-802h87v-51h-230v51z" />
    <glyph glyph-name="f_f_b" unicode="ffb" horiz-adv-x="1322" 
d="M746 718c0 13 5 26 15 35c-21 35 -65 54 -107 54c-36 0 -69 -13 -92 -36c-27 -27 -41 -70 -41 -120v-165h266v184c-24 3 -41 24 -41 48zM787 0v436h-266v-385h96v-51h-234v51h82v385h-266v-385h95v-51h-233v51h82v385h-89v50h89v152c0 61 12 111 49 150
c29 29 67 47 120 47c25 0 50 -5 70 -13c32 -13 55 -37 55 -68c0 -26 -14 -43 -41 -43c-32 0 -51 31 -46 66c-13 5 -27 8 -41 8c-37 0 -65 -14 -82 -38c-23 -31 -28 -65 -28 -109v-152h266v161c0 71 20 124 56 159c35 35 84 52 139 52c52 0 98 -18 130 -51l21 46h32v-437
c44 45 94 79 179 79c127 0 236 -101 236 -253c0 -139 -101 -251 -249 -251c-64 0 -126 25 -168 63l-22 -54h-32zM1011 42c107 0 187 82 187 200c0 119 -75 203 -182 203c-72 0 -130 -36 -173 -84v-257c40 -34 95 -62 168 -62z" />
    <glyph glyph-name="f_f_h" unicode="ffh" horiz-adv-x="1310" 
d="M521 651v-165h266v184c-24 3 -41 24 -41 48c0 13 5 26 15 35c-21 35 -65 54 -107 54c-36 0 -69 -13 -92 -36c-27 -27 -41 -70 -41 -120zM843 853v-461c47 59 117 103 187 103c60 0 101 -19 126 -52c22 -29 32 -68 32 -113v-279h82v-51h-220v51h82v271c0 39 -8 66 -25 86
c-18 24 -49 35 -86 35c-70 0 -132 -45 -178 -101v-291h82v-51h-220v51h82v385h-266v-385h96v-51h-234v51h82v385h-266v-385h95v-51h-233v51h82v385h-89v50h89v152c0 61 12 111 49 150c29 29 67 47 120 47c25 0 50 -5 70 -13c32 -13 55 -37 55 -68c0 -26 -14 -43 -41 -43
c-32 0 -51 31 -46 66c-13 5 -27 8 -41 8c-37 0 -65 -14 -82 -38c-23 -31 -28 -65 -28 -109v-152h266v161c0 71 20 124 56 159c35 35 84 52 139 52c52 0 98 -18 130 -51l21 46h32z" />
    <glyph glyph-name="f_f_i" unicode="ffi" horiz-adv-x="966" 
d="M738 784c0 -26 -18 -46 -45 -46c-30 0 -48 30 -43 61c-7 4 -16 6 -25 6c-22 0 -44 -9 -64 -29c-21 -23 -40 -62 -40 -117v-173h312v-435h87v-51h-228v51h84v385h-255v-385h94v-51h-232v51h82v385h-266v-385h95v-51h-233v51h82v385h-89v50h89v152c0 61 12 111 49 150
c29 29 67 47 120 47c24 0 50 -5 69 -13c33 -13 56 -37 56 -68c0 -26 -14 -43 -41 -43c-32 0 -51 31 -46 66c-13 5 -27 8 -41 8c-37 0 -65 -14 -82 -38c-23 -31 -28 -65 -28 -109v-152h266v156c0 83 21 141 60 175c29 26 64 41 108 41c65 0 105 -36 105 -74z" />
    <glyph glyph-name="f_f_j" unicode="ffj" horiz-adv-x="932" 
d="M833 486v-476c0 -58 -7 -103 -19 -139c-24 -72 -71 -103 -131 -103c-58 0 -95 30 -95 68c0 22 16 45 43 45c23 0 39 -16 39 -40c0 -7 -1 -15 -5 -23c7 -3 13 -4 21 -4c36 0 63 26 77 76c9 28 13 65 13 112v434h-255v-385h94v-51h-232v51h82v385h-266v-385h95v-51h-233v51
h82v385h-89v50h89v152c0 61 12 111 49 150c29 29 67 47 120 47c24 0 50 -5 69 -13c33 -13 56 -37 56 -68c0 -26 -14 -43 -41 -43c-32 0 -51 31 -46 66c-13 5 -27 8 -41 8c-37 0 -65 -14 -82 -38c-23 -31 -28 -65 -28 -109v-152h266v156c0 83 21 141 60 175
c29 26 64 41 108 41c65 0 105 -36 105 -74c0 -26 -18 -46 -45 -46c-30 0 -48 30 -43 61c-7 4 -16 6 -25 6c-22 0 -44 -9 -64 -29c-21 -23 -40 -62 -40 -117v-173h312z" />
    <glyph glyph-name="f_f_k" unicode="ffk" horiz-adv-x="1265" 
d="M521 651v-165h266v184c-24 3 -41 24 -41 48c0 13 5 26 15 35c-21 35 -65 54 -107 54c-36 0 -69 -13 -92 -36c-27 -27 -41 -70 -41 -120zM843 853v-622l236 207h-109v48h268v-50h-85l-174 -150l166 -235h93v-51h-125l-175 256l-95 -83v-122h87v-51h-225v51h82v385h-266
v-385h96v-51h-234v51h82v385h-266v-385h95v-51h-233v51h82v385h-89v50h89v152c0 61 12 111 49 150c29 29 67 47 120 47c25 0 50 -5 70 -13c32 -13 55 -37 55 -68c0 -26 -14 -43 -41 -43c-32 0 -51 31 -46 66c-13 5 -27 8 -41 8c-37 0 -65 -14 -82 -38
c-23 -31 -28 -65 -28 -109v-152h266v161c0 71 20 124 56 159c35 35 84 52 139 52c52 0 98 -18 130 -51l21 46h32z" />
    <glyph glyph-name="f_f_l" unicode="ffl" horiz-adv-x="976" 
d="M521 651v-165h266v184c-24 3 -41 24 -41 48c0 13 5 26 15 35c-21 35 -65 54 -107 54c-36 0 -69 -13 -92 -36c-27 -27 -41 -70 -41 -120zM199 638v-152h266v161c0 71 20 124 56 159c35 35 84 52 139 52c52 0 98 -18 130 -51l21 46h32v-802h88v-51h-231v51h87v385h-266
v-385h96v-51h-234v51h82v385h-266v-385h95v-51h-233v51h82v385h-89v50h89v152c0 61 12 111 49 150c29 29 67 47 120 47c25 0 50 -5 70 -13c32 -13 55 -37 55 -68c0 -26 -14 -43 -41 -43c-32 0 -51 31 -46 66c-13 5 -27 8 -41 8c-37 0 -65 -14 -82 -38
c-23 -31 -28 -65 -28 -109z" />
    <glyph glyph-name=".notdef" horiz-adv-x="506" 
d="M3 -200v1000h500v-1000h-500zM74 750l179 -390l179 390h-358zM453 676l-172 -376l172 -376v752zM53 -76l172 376l-172 376v-752zM253 240l-179 -390h358z" />
    <glyph glyph-name="A" unicode="A" horiz-adv-x="792" 
d="M260 313h269l-134 363zM28 0v53h73l234 618h-85v53h292v-53h-85l234 -618h73v-53h-225v53h86l-77 208h-307l-78 -208h90v-53h-225z" />
    <glyph glyph-name="B" unicode="B" horiz-adv-x="680" 
d="M63 0v53h97v618h-97v53h290c168 0 233 -89 233 -181c0 -88 -56 -149 -137 -172c99 -25 158 -81 158 -175c0 -112 -91 -196 -242 -196h-302zM220 395h118c129 0 189 60 189 144c0 81 -61 132 -177 132h-130v-276zM220 53h147c117 0 181 63 181 144c0 97 -79 147 -210 147
h-118v-291z" />
    <glyph glyph-name="C" unicode="C" horiz-adv-x="784" 
d="M438 -13c-223 0 -366 182 -366 369c0 226 172 381 361 381c146 0 266 -94 266 -181c0 -34 -23 -61 -55 -61c-27 0 -48 21 -48 48c0 24 17 42 36 47c-19 38 -92 93 -199 93c-177 0 -300 -155 -300 -325c0 -162 125 -317 305 -317c88 0 163 31 232 93l32 -43
c-73 -71 -171 -104 -264 -104z" />
    <glyph glyph-name="D" unicode="D" horiz-adv-x="818" 
d="M63 0v53h97v618h-97v53h269c249 0 414 -142 414 -355c0 -216 -155 -369 -412 -369h-271zM220 53h119c231 0 346 131 346 318c0 182 -137 300 -354 300h-111v-618z" />
    <glyph glyph-name="E" unicode="E" horiz-adv-x="662" 
d="M63 0v53h97v618h-97v53h517v-164h-58v111h-302v-275h247v-53h-247v-290h302v111h58v-164h-517z" />
    <glyph glyph-name="F" unicode="F" horiz-adv-x="638" 
d="M63 0v53h97v618h-97v53h508v-164h-58v111h-293v-288h243v-53h-243v-277h103v-53h-260z" />
    <glyph glyph-name="G" unicode="G" horiz-adv-x="827" 
d="M426 -13c-184 0 -354 137 -354 367c0 232 177 383 372 383c161 0 268 -92 268 -164c0 -34 -22 -57 -52 -57c-27 0 -48 22 -48 48c0 20 10 34 24 43c-30 37 -103 76 -194 76c-186 0 -309 -148 -309 -329c0 -188 134 -314 297 -314c86 0 163 28 234 80v169h-211v52h270
v-341h-57v67c-69 -50 -143 -80 -240 -80z" />
    <glyph glyph-name="H" unicode="H" horiz-adv-x="874" 
d="M63 0v53h97v618h-97v53h255v-53h-98v-272h434v272h-98v53h255v-53h-97v-618h97v-53h-255v53h98v292h-434v-292h98v-53h-255z" />
    <glyph glyph-name="I" unicode="I" horiz-adv-x="393" 
d="M64 0v53h102v618h-102v53h266v-53h-103v-618h103v-53h-266z" />
    <glyph glyph-name="J" unicode="J" horiz-adv-x="586" 
d="M234 -13c-105 0 -194 76 -194 175c0 45 26 78 61 78c23 0 47 -18 47 -47c0 -24 -16 -45 -46 -48c-2 -40 47 -101 132 -101c42 0 79 14 106 42c32 32 47 87 47 162v423h-114v53h265v-53h-91v-424c0 -85 -19 -158 -63 -202c-37 -37 -86 -58 -150 -58z" />
    <glyph glyph-name="K" unicode="K" horiz-adv-x="749" 
d="M63 0v53h97v618h-97v53h255v-53h-98v-351l349 351h-104v53h260v-53h-83l-251 -253l252 -365h90v-53h-130l-256 379l-127 -128v-198h98v-53h-255z" />
    <glyph glyph-name="L" unicode="L" horiz-adv-x="622" 
d="M63 0v53h97v618h-97v53h260v-53h-103v-618h277v116h58v-169h-492z" />
    <glyph glyph-name="M" unicode="M" horiz-adv-x="988" 
d="M57 0v53h98l28 618h-101v53h165l245 -535l245 535h163v-53h-101l27 -618h99v-53h-251v53h94l-20 571l-246 -530h-23l-246 530l-21 -571h95v-53h-250z" />
    <glyph glyph-name="N" unicode="N" horiz-adv-x="860" 
d="M684 -3l-467 624v-568h98v-53h-252v53h97v618h-97v53h150l448 -601v548h-98v53h249v-53h-94v-674h-34z" />
    <glyph glyph-name="O" unicode="O" horiz-adv-x="871" 
d="M434 -13c-207 0 -362 165 -362 374c0 212 156 376 366 376c206 0 361 -165 361 -374c0 -212 -156 -376 -365 -376zM436 42c178 0 302 140 302 319s-124 321 -302 321s-303 -141 -303 -319c0 -179 125 -321 303 -321z" />
    <glyph glyph-name="P" unicode="P" horiz-adv-x="649" 
d="M340 324c122 0 198 67 198 175c0 109 -88 172 -200 172h-118v-344c27 -1 76 -3 120 -3zM63 0v53h97v618h-97v53h271c150 0 264 -88 264 -224c0 -140 -103 -228 -260 -228c-42 0 -93 1 -118 2v-221h103v-53h-260z" />
    <glyph glyph-name="Q" unicode="Q" horiz-adv-x="871" 
d="M739 -153c-99 0 -166 65 -230 105c-36 23 -75 34 -119 41c-75 13 -143 40 -194 84c-77 66 -124 171 -124 284c0 212 156 376 366 376c206 0 361 -165 361 -374c0 -177 -107 -327 -282 -359c26 -9 50 -23 75 -40c58 -38 95 -61 147 -61c35 0 55 8 83 25l24 -49
c-35 -22 -67 -32 -107 -32zM436 42c178 0 302 140 302 319s-124 321 -302 321s-303 -141 -303 -319c0 -99 38 -186 101 -245c52 -47 121 -76 202 -76z" />
    <glyph glyph-name="Q.alt" horiz-adv-x="871" 
d="M653 -119l-83 131c-42 -16 -88 -25 -136 -25c-207 0 -362 165 -362 374c0 212 156 376 366 376c206 0 361 -165 361 -374c0 -142 -71 -263 -180 -327l80 -127zM436 42c37 0 72 6 104 17l-86 137l48 28l89 -142c92 53 147 156 147 279c0 179 -124 321 -302 321
s-303 -141 -303 -319c0 -179 125 -321 303 -321z" />
    <glyph glyph-name="R" unicode="R" horiz-adv-x="689" 
d="M319 358c119 0 208 54 208 159c0 99 -77 154 -196 154h-111v-311c27 -1 65 -2 99 -2zM63 0v53h97v618h-97v53h271c157 0 253 -84 253 -206c0 -101 -67 -171 -165 -199l171 -266h89v-53h-130l-193 307c-14 -1 -28 -2 -42 -2c-32 0 -72 1 -97 2v-254h98v-53h-255z" />
    <glyph glyph-name="S" unicode="S" horiz-adv-x="611" 
d="M305 -12c-140 0 -231 79 -231 142c0 36 22 60 49 60s46 -19 46 -44c0 -21 -10 -37 -22 -50c24 -28 84 -54 160 -54c105 0 168 57 168 142c0 83 -74 120 -160 154c-120 47 -214 93 -214 213c0 109 85 186 215 186c112 0 204 -67 204 -137c0 -35 -22 -54 -48 -54
c-28 0 -48 20 -48 47c0 17 10 34 20 44c-20 27 -83 46 -130 46c-94 0 -154 -54 -154 -127c0 -85 73 -120 172 -160c113 -45 202 -90 202 -207c0 -123 -98 -201 -229 -201z" />
    <glyph glyph-name="T" unicode="T" horiz-adv-x="711" 
d="M222 0v53h103v620h-206v-118h-59v169h591v-169h-59v118h-206v-620h103v-53h-267z" />
    <glyph glyph-name="U" unicode="U" horiz-adv-x="799" 
d="M398 -13c-166 0 -256 96 -256 257v427h-97v53h255v-53h-99v-422c0 -139 71 -207 198 -207c126 0 200 67 200 205v424h-100v53h255v-53h-97v-423c0 -164 -95 -261 -259 -261z" />
    <glyph glyph-name="V" unicode="V" horiz-adv-x="780" 
d="M372 -12l-270 683h-75v53h225v-53h-86l226 -586l226 586h-90v53h225v-53h-75l-270 -683h-36z" />
    <glyph glyph-name="W" unicode="W" horiz-adv-x="1083" 
d="M324 -13l-210 684h-87v53h240v-53h-90l169 -572l183 531h34l184 -530l167 571h-93v53h239v-53h-88l-206 -684h-36l-184 526l-186 -526h-36z" />
    <glyph glyph-name="X" unicode="X" horiz-adv-x="809" 
d="M57 0v53h75l236 317l-221 301h-77v53h227v-51h-81l189 -266l192 266h-85v51h227v-53h-76l-223 -301l237 -317h76v-53h-227v51h83l-205 284l-206 -284h86v-51h-227z" />
    <glyph glyph-name="Y" unicode="Y" horiz-adv-x="716" 
d="M219 0v53h108v244l-219 374h-80v53h230v-53h-81l182 -323l183 323h-84v53h230v-53h-81l-219 -373v-245h108v-53h-277z" />
    <glyph glyph-name="Z" unicode="Z" horiz-adv-x="667" 
d="M55 0v25l461 649h-378v-114h-59v164h524v-26l-460 -648h410v114h58v-164h-556z" />
    <glyph glyph-name="a" unicode="a" horiz-adv-x="572" 
d="M236 41c66 0 122 37 159 80v86c-40 13 -95 24 -147 24c-87 0 -129 -43 -129 -96c0 -52 39 -94 117 -94zM225 -9c-99 0 -163 60 -163 141c0 88 78 147 184 147c54 0 124 -17 149 -28v82c0 29 -8 53 -23 71c-22 25 -59 41 -112 41c-48 0 -73 -14 -91 -28c5 -9 9 -18 9 -31
c0 -23 -17 -42 -43 -42c-27 0 -44 20 -44 45c0 53 66 106 176 106c65 0 116 -19 147 -53c24 -25 36 -58 36 -96v-295h81v-51h-133v67c-41 -42 -106 -76 -173 -76z" />
    <glyph glyph-name="b" unicode="b" horiz-adv-x="639" 
d="M327 -9c-64 0 -126 25 -168 63l-23 -54h-31v798h-82v51h138v-433c44 45 94 79 179 79c127 0 236 -101 236 -253c0 -139 -101 -251 -249 -251zM329 42c107 0 187 82 187 200c0 119 -76 203 -183 203c-72 0 -129 -36 -172 -84v-257c40 -34 95 -62 168 -62z" />
    <glyph glyph-name="c" unicode="c" horiz-adv-x="545" 
d="M313 -9c-146 0 -254 109 -254 248c0 140 109 256 241 256c101 0 188 -66 188 -137c0 -29 -21 -56 -52 -56c-19 0 -41 11 -41 42c0 17 9 30 28 39c-15 39 -72 62 -123 62c-83 0 -181 -72 -181 -207c0 -113 79 -195 201 -195c54 0 104 17 158 54l-6 -58
c-47 -34 -114 -48 -159 -48z" />
    <glyph glyph-name="d" unicode="d" horiz-adv-x="643" 
d="M299 42c71 0 125 35 169 83v256c-40 35 -92 64 -164 64c-110 0 -182 -90 -183 -204c-1 -117 74 -199 178 -199zM295 -9c-129 0 -234 99 -234 249c0 137 94 255 245 255c61 0 119 -23 162 -63v366h-101v51h157v-798h82v-51h-136v76c-43 -51 -98 -85 -175 -85z" />
    <glyph glyph-name="e" unicode="e" horiz-adv-x="565" 
d="M505 231h-388c8 -125 83 -188 202 -188c66 0 111 21 168 54l-6 -57c-49 -32 -111 -49 -170 -49c-153 0 -254 103 -254 251c0 134 90 253 234 253c140 0 217 -109 217 -228c0 -16 -1 -26 -3 -36zM286 445c-86 0 -157 -65 -168 -165h333c-7 96 -61 165 -165 165z" />
    <glyph glyph-name="f" unicode="f" horiz-adv-x="365" 
d="M326 758c-29 0 -46 20 -52 48c-18 -2 -34 -10 -46 -24c-19 -21 -29 -56 -29 -105v-191h127v-50h-127v-385h95v-51h-233v51h82v385h-89v50h89v174c0 73 13 124 46 157c25 25 55 41 99 41c46 0 79 -20 79 -56c0 -26 -18 -44 -41 -44z" />
    <glyph glyph-name="g" unicode="g" horiz-adv-x="654" 
d="M307 445c-112 0 -186 -92 -186 -199c0 -111 75 -196 180 -196c73 0 128 36 171 84v246c-40 36 -92 65 -165 65zM528 436v-460c0 -61 -16 -106 -44 -139c-42 -50 -112 -69 -186 -69s-128 22 -154 49c-16 16 -24 35 -24 53c0 31 21 52 50 52c24 0 39 -19 39 -41
c0 -13 -5 -26 -15 -38c13 -11 51 -24 110 -24c53 0 104 13 136 51c19 24 32 56 32 100v109c-42 -45 -96 -79 -174 -79c-131 0 -236 103 -236 244c0 129 94 251 247 251c66 0 123 -26 165 -67v58h136v-50h-82z" />
    <glyph glyph-name="h" unicode="h" horiz-adv-x="649" 
d="M125 798h-81v51h138v-457c47 59 116 103 187 103c60 0 100 -19 126 -52c21 -29 32 -68 32 -113v-279h81v-51h-219v51h81v271c0 39 -8 66 -24 86c-19 24 -49 35 -87 35c-70 0 -132 -45 -177 -101v-291h81v-51h-219v51h81v747z" />
    <glyph glyph-name="i" unicode="i" horiz-adv-x="337" 
d="M165 637c-28 0 -52 25 -52 54s24 53 52 53s52 -24 52 -53s-24 -54 -52 -54zM61 0v51h86v385h-86v50h142v-435h88v-51h-230z" />
    <glyph glyph-name="j" unicode="j" horiz-adv-x="290" 
d="M152 637c-29 0 -52 25 -52 54s23 53 52 53c28 0 51 -24 51 -53s-23 -54 -51 -54zM-54 -164c0 22 15 45 42 45c24 0 39 -16 39 -40c0 -7 -1 -15 -5 -23c7 -3 14 -4 21 -4c37 0 64 26 78 76c8 28 13 65 13 112v434h-95v50h151v-476c0 -58 -7 -103 -18 -139
c-24 -72 -71 -103 -132 -103c-58 0 -94 30 -94 68z" />
    <glyph glyph-name="k" unicode="k" horiz-adv-x="602" 
d="M44 0v51h81v747h-81v51h138v-618l235 207h-109v48h268v-50h-85l-173 -150l165 -235h93v-51h-124l-175 256l-95 -83v-122h87v-51h-225z" />
    <glyph glyph-name="l" unicode="l" horiz-adv-x="323" 
d="M47 0v51h86v747h-86v51h143v-798h87v-51h-230z" />
    <glyph glyph-name="m" unicode="m" horiz-adv-x="971" 
d="M57 0v51h82v385h-82v50h136v-96c44 57 114 105 184 105c63 0 103 -22 124 -60c7 -13 11 -28 15 -43c55 59 122 103 187 103c71 0 109 -26 129 -70c12 -27 17 -59 17 -95v-279h81v-51h-219v51h81v271c0 29 -3 53 -10 71c-15 34 -42 50 -88 50c-66 0 -119 -42 -171 -99
v-293h80v-51h-219v51h82v271c0 29 -3 53 -11 71c-14 34 -41 50 -87 50c-69 0 -125 -46 -172 -101v-291h81v-51h-220z" />
    <glyph glyph-name="n" unicode="n" horiz-adv-x="658" 
d="M193 486v-96c45 57 119 105 189 105c65 0 107 -23 130 -62c16 -28 23 -63 23 -103v-279h82v-51h-220v51h82v271c0 29 -4 53 -13 72c-17 33 -47 49 -93 49c-70 0 -132 -45 -177 -101v-291h81v-51h-220v51h82v385h-82v50h136z" />
    <glyph glyph-name="o" unicode="o" horiz-adv-x="616" 
d="M308 -9c-147 0 -247 112 -247 252s100 252 247 252c146 0 246 -111 246 -252c0 -140 -100 -252 -246 -252zM308 42c110 0 187 83 187 201c0 117 -77 202 -187 202s-187 -85 -187 -202c0 -118 77 -201 187 -201z" />
    <glyph glyph-name="p" unicode="p" horiz-adv-x="651" 
d="M345 42c110 0 182 89 183 203c1 117 -74 200 -177 200c-72 0 -126 -36 -169 -84v-257c40 -36 91 -62 163 -62zM44 -227v50h82v613h-82v50h136v-76c43 51 97 85 174 85c129 0 233 -99 233 -249c0 -137 -93 -255 -244 -255c-60 0 -119 24 -161 62v-230h100v-50h-238z" />
    <glyph glyph-name="q" unicode="q" horiz-adv-x="627" 
d="M377 -227v50h99v247c-44 -45 -94 -79 -179 -79c-127 0 -236 101 -236 253c0 140 101 251 250 251c63 0 125 -25 167 -62l23 53h32v-663h81v-50h-237zM304 42c72 0 129 35 172 83v258c-40 33 -95 62 -167 62c-107 0 -188 -83 -188 -201c0 -119 76 -202 183 -202z" />
    <glyph glyph-name="r" unicode="r" horiz-adv-x="421" 
d="M338 495c42 0 65 -25 65 -54c0 -25 -20 -47 -46 -47c-25 0 -44 18 -50 39c-39 -10 -85 -56 -111 -109v-273h95v-51h-234v51h82v385h-82v50h136v-109c35 66 97 118 145 118z" />
    <glyph glyph-name="s" unicode="s" horiz-adv-x="505" 
d="M424 395c0 -27 -17 -45 -41 -45s-45 18 -45 44c0 8 2 20 9 30c-18 14 -53 23 -97 23c-75 0 -119 -41 -119 -83c0 -50 52 -65 135 -86c89 -22 179 -49 179 -147c0 -87 -87 -140 -189 -140c-70 0 -137 21 -170 55c-16 16 -26 35 -26 58c0 25 17 46 42 46
c28 0 43 -19 43 -42c0 -12 -4 -22 -11 -33c14 -16 60 -36 121 -36c77 0 135 35 135 89c0 55 -59 74 -127 91c-108 26 -189 51 -189 143c0 73 72 133 178 133c68 0 120 -19 148 -47c16 -16 24 -33 24 -53z" />
    <glyph glyph-name="t" unicode="t" horiz-adv-x="376" 
d="M223 -9c-47 0 -80 18 -96 53c-8 16 -11 39 -11 63v329h-88v50h88v127l56 20v-147h151v-50h-151v-324c0 -16 2 -30 7 -40c9 -19 28 -27 61 -27c28 0 62 15 89 31l-9 -58c-22 -12 -53 -27 -97 -27z" />
    <glyph glyph-name="u" unicode="u" horiz-adv-x="644" 
d="M276 -9c-67 0 -109 24 -132 65c-15 28 -22 61 -22 101v279h-81v50h138v-322c0 -30 5 -55 15 -74c16 -32 46 -46 90 -46c70 0 129 47 178 101v291h-82v50h138v-435h82v-51h-136v97c-45 -58 -119 -106 -188 -106z" />
    <glyph glyph-name="v" unicode="v" horiz-adv-x="605" 
d="M292 -20l-210 456h-68v50h214v-50h-82l158 -361l159 361h-86v50h214v-50h-68l-210 -456h-21z" />
    <glyph glyph-name="w" unicode="w" horiz-adv-x="799" 
d="M226 -21l-140 457h-72v50h212v-48h-82l100 -348l146 339h22l146 -338l100 347h-85v48h212v-50h-73l-139 -457h-22l-151 352l-152 -352h-22z" />
    <glyph glyph-name="x" unicode="x" horiz-adv-x="577" 
d="M33 0v51h66l159 197l-147 188h-72v50h197v-47h-64l117 -159l118 159h-66v47h196v-50h-71l-147 -186l157 -199h68v-51h-203v47h74l-127 171l-130 -171h77v-47h-202z" />
    <glyph glyph-name="y" unicode="y" horiz-adv-x="593" 
d="M237 -143c-37 -58 -75 -89 -123 -89c-38 0 -74 21 -74 56c0 26 18 44 42 44c27 0 45 -24 49 -47c22 8 44 27 70 68c13 21 28 50 44 84l26 55l-188 408h-70v50h214v-50h-80s152 -347 151 -347l154 347h-83v50h211v-50h-70l-232 -502c-14 -30 -27 -54 -41 -77z" />
    <glyph glyph-name="z" unicode="z" horiz-adv-x="521" 
d="M51 0v18l323 420h-250v-98h-52v146h394v-18l-323 -419h275v97h52v-146h-419z" />
    <glyph glyph-name="a.sc" horiz-adv-x="679" 
d="M338 533l-107 -282h214zM193 581h294v-51h-92l185 -479h77v-51h-232v51h96l-56 148h-253l-56 -148h96v-51h-230v51h78l183 479h-90v51z" />
    <glyph glyph-name="b.sc" horiz-adv-x="618" 
d="M341 0h-284v51h105v479h-105v51h275c143 0 199 -69 199 -146c0 -73 -48 -120 -115 -137c80 -19 131 -61 131 -139c0 -94 -71 -159 -206 -159zM220 320h108c98 0 144 44 144 109c0 62 -47 101 -141 101h-111v-210zM220 51h125c94 0 144 45 144 110c0 75 -58 110 -160 110
h-109v-220z" />
    <glyph glyph-name="c.sc" horiz-adv-x="648" 
d="M545 120l33 -40c-57 -58 -138 -90 -220 -90c-175 0 -294 132 -294 301c0 166 123 302 296 302c120 0 215 -75 215 -144c0 -33 -20 -56 -50 -56c-26 0 -45 18 -45 44c0 20 11 32 25 38c-16 28 -67 65 -145 65c-137 0 -237 -108 -237 -249c0 -145 100 -248 235 -248
c74 0 135 28 187 77z" />
    <glyph glyph-name="d.sc" horiz-adv-x="710" 
d="M312 0h-255v51h106v479h-106v51h255c204 0 334 -110 334 -284c0 -176 -122 -297 -334 -297zM220 51h99c177 0 268 101 268 247c0 144 -108 232 -275 232h-92v-479z" />
    <glyph glyph-name="e.sc" horiz-adv-x="598" 
d="M522 0h-465v51h105v479h-105v51h465v-158h-55v107h-247v-210h201v-52h-201v-217h247v107h55v-158z" />
    <glyph glyph-name="f.sc" horiz-adv-x="573" 
d="M330 0h-273v51h105v479h-105v51h464v-158h-56v107h-245v-217h197v-52h-197v-210h110v-51z" />
    <glyph glyph-name="g.sc" horiz-adv-x="692" 
d="M365 541c-145 0 -242 -112 -242 -253c0 -148 106 -245 232 -245c74 0 134 21 187 58v132h-166v51h222v-284h-55v50c-51 -38 -111 -60 -193 -60c-148 0 -286 113 -286 297c0 183 139 306 303 306c134 0 222 -74 222 -135c0 -33 -20 -55 -48 -55c-25 0 -44 18 -44 42
c0 19 10 31 21 37c-22 27 -78 59 -153 59z" />
    <glyph glyph-name="h.sc" horiz-adv-x="783" 
d="M57 0v51h105v479h-105v51h269v-51h-106v-210h344v210h-107v51h269v-51h-105v-479h105v-51h-269v51h107v216h-344v-216h106v-51h-269z" />
    <glyph glyph-name="i.sc" horiz-adv-x="387" 
d="M330 0h-273v51h108v479h-108v51h273v-51h-108v-479h108v-51z" />
    <glyph glyph-name="j.sc" horiz-adv-x="513" 
d="M205 44c32 0 61 10 83 33c24 27 37 70 37 130v323h-108v51h262v-51h-96v-325c0 -71 -17 -130 -53 -166c-32 -32 -74 -49 -126 -49c-93 0 -168 64 -168 146c0 39 21 65 52 65c24 0 45 -17 45 -44c0 -20 -14 -39 -36 -43c2 -28 41 -70 108 -70z" />
    <glyph glyph-name="k.sc" horiz-adv-x="677" 
d="M564 529l-202 -203l194 -275h99v-51h-134l-199 286l-100 -100v-135h103l1 -51h-269v51h107v479h-107v51h262v-51h-97v-276l276 276h-95v51h241v-52h-80z" />
    <glyph glyph-name="l.sc" horiz-adv-x="562" 
d="M457 51v112h56v-163h-456v51h105v479h-105v51h272v-51h-109v-479h237z" />
    <glyph glyph-name="m.sc" horiz-adv-x="863" 
d="M631 581h163v-51h-105l23 -479h105v-51h-269v51h107l-15 434l-199 -404h-21l-199 404l-15 -434h108v-51h-268v51h106l21 479h-105v51h164l199 -409z" />
    <glyph glyph-name="n.sc" horiz-adv-x="769" 
d="M214 581l354 -465v414h-107v51h266v-51h-105v-533h-34l-372 490v-436h107v-51h-266v51h105v479h-105v51h157z" />
    <glyph glyph-name="o.sc" horiz-adv-x="719" 
d="M359 593c175 0 296 -133 296 -301c0 -169 -121 -302 -297 -302c-174 0 -294 133 -294 302c0 168 120 301 295 301zM358 43c140 0 237 103 237 249c0 143 -97 248 -236 248c-138 0 -236 -104 -236 -248c0 -146 98 -249 235 -249z" />
    <glyph glyph-name="p.sc" horiz-adv-x="577" 
d="M315 263c96 0 154 52 154 136c0 82 -67 131 -156 131h-93v-266c19 -1 59 -1 95 -1zM57 581h255c122 0 216 -70 216 -181c0 -118 -85 -188 -217 -188c-32 0 -73 0 -91 2v-163h107v-51h-270v51h105v479h-105v51z" />
    <glyph glyph-name="q.sc" horiz-adv-x="719" 
d="M596 -123c-80 0 -136 55 -187 85c-29 18 -57 25 -90 31c-62 12 -117 34 -159 71c-59 51 -96 135 -96 228c0 168 120 301 295 301s296 -133 296 -301c0 -145 -91 -259 -224 -286c17 -7 30 -13 53 -28c43 -28 70 -45 111 -45c26 0 44 6 70 23l26 -49
c-30 -23 -61 -30 -95 -30zM358 43c137 0 237 109 237 249c0 143 -97 248 -236 248c-138 0 -236 -104 -236 -248c0 -77 30 -144 77 -189c40 -37 95 -60 158 -60z" />
    <glyph glyph-name="q.sc_alt" horiz-adv-x="719" 
d="M655 292c0 -112 -53 -208 -140 -260l64 -102l-45 -27l-67 106c-33 -12 -70 -19 -109 -19c-174 0 -294 133 -294 302c0 168 120 301 295 301s296 -133 296 -301zM595 292c0 143 -97 248 -236 248c-138 0 -236 -104 -236 -248c0 -146 98 -249 235 -249c29 0 56 4 80 12
l-67 108l46 29l70 -114c67 42 108 119 108 214z" />
    <glyph glyph-name="r.sc" horiz-adv-x="629" 
d="M312 530h-92v-239c28 -1 59 -1 87 -1c96 0 164 43 164 123c0 75 -62 117 -159 117zM220 240v-189h107v-51h-270v51h105v479h-105v51h257c132 0 215 -64 215 -167c0 -80 -54 -138 -131 -161l127 -202h91v-51h-130l-146 240c-18 -1 -31 -1 -41 -1c-22 0 -57 0 -79 1z" />
    <glyph glyph-name="s.sc" horiz-adv-x="537" 
d="M371 473c0 14 7 30 15 38c-14 17 -62 33 -110 33c-81 0 -133 -41 -133 -99c0 -65 71 -92 144 -121c95 -35 186 -70 186 -170c0 -102 -89 -164 -206 -164c-123 0 -203 63 -203 119c0 33 18 54 45 54c26 0 44 -17 44 -42c0 -16 -7 -30 -15 -40c18 -20 64 -41 130 -41
c92 0 147 44 147 111c0 63 -74 91 -141 117c-100 38 -190 71 -190 172c0 91 77 153 195 153c102 0 182 -52 182 -115c0 -29 -21 -49 -43 -49c-29 0 -47 19 -47 44z" />
    <glyph glyph-name="t.sc" horiz-adv-x="616" 
d="M171 0v51h108v479h-170v-107h-55v158h508v-158h-56v107h-170v-479h108v-51h-273z" />
    <glyph glyph-name="u.sc" horiz-adv-x="718" 
d="M195 530v-320c0 -107 63 -169 164 -169s164 60 164 168v321h-105v51h262v-51h-99v-320c0 -142 -84 -220 -223 -220s-221 76 -221 218v322h-98v51h261v-51h-105z" />
    <glyph glyph-name="v.sc" horiz-adv-x="655" 
d="M310 -9l-218 539h-75v51h232v-51h-95l175 -445l175 445h-95v51h229v-51h-74l-219 -539h-35z" />
    <glyph glyph-name="w.sc" horiz-adv-x="910" 
d="M269 -14l-165 544h-86v51h244v-51h-96l127 -432l151 404h26l152 -404l126 432h-96v51h240v-51h-87l-164 -544h-33l-153 412l-153 -412h-33z" />
    <glyph glyph-name="x.sc" horiz-adv-x="660" 
d="M627 53v-53h-232v51h84l-151 212l-154 -212h95v-51h-236v53h77l183 243l-170 234h-79v51h236v-51h-89l139 -199l142 199h-89v51h233v-51h-82l-171 -232l182 -245h82z" />
    <glyph glyph-name="y.sc" horiz-adv-x="620" 
d="M607 581v-51h-83l-186 -310v-169h107v-51h-271v51h107v169l-185 310h-83v51h240v-51h-94l153 -262l152 262h-94v51h237z" />
    <glyph glyph-name="z.sc" horiz-adv-x="570" 
d="M58 0v31l374 500h-304v-105h-55v155h441v-30l-372 -500h320v103h56v-154h-460z" />
    <glyph glyph-name="Aacute" unicode="&#xc1;" horiz-adv-x="792" 
d="M355 791l-12 20l137 124c14 13 27 22 41 22c19 0 38 -15 38 -42c0 -13 -15 -30 -38 -42zM260 313h269l-134 363zM28 0v53h73l234 618h-85v53h292v-53h-85l234 -618h73v-53h-225v53h86l-77 208h-307l-78 -208h90v-53h-225z" />
    <glyph glyph-name="aacute" unicode="&#xe1;" horiz-adv-x="572" 
d="M234 589l-13 21l144 131c15 13 29 22 43 22c20 0 40 -16 40 -43c0 -14 -16 -32 -39 -44zM236 41c66 0 122 37 159 80v86c-40 13 -95 24 -147 24c-87 0 -129 -43 -129 -96c0 -52 39 -94 117 -94zM225 -9c-99 0 -163 60 -163 141c0 88 78 147 184 147c54 0 124 -17 149 -28
v82c0 29 -8 53 -23 71c-22 25 -59 41 -112 41c-48 0 -73 -14 -91 -28c5 -9 9 -18 9 -31c0 -23 -17 -42 -43 -42c-27 0 -44 20 -44 45c0 53 66 106 176 106c65 0 116 -19 147 -53c24 -25 36 -58 36 -96v-295h81v-51h-133v67c-41 -42 -106 -76 -173 -76z" />
    <glyph glyph-name="aacute.sc" horiz-adv-x="679" 
d="M298 660l-13 21l144 131c15 13 29 22 43 22c20 0 40 -16 40 -43c0 -14 -16 -32 -39 -44zM338 533l-107 -282h214zM193 581h294v-51h-92l185 -479h77v-51h-232v51h96l-56 148h-253l-56 -148h96v-51h-230v51h78l183 479h-90v51z" />
    <glyph glyph-name="Abreve" unicode="&#x102;" horiz-adv-x="792" 
d="M396 791c-77 0 -136 57 -161 129l42 20c21 -56 69 -88 119 -88c55 0 99 38 119 88l42 -20c-25 -72 -84 -129 -161 -129zM260 313h269l-134 363zM28 0v53h73l234 618h-85v53h292v-53h-85l234 -618h73v-53h-225v53h86l-77 208h-307l-78 -208h90v-53h-225z" />
    <glyph glyph-name="abreve" unicode="&#x103;" horiz-adv-x="572" 
d="M276 589c-81 0 -143 60 -169 136l44 21c22 -59 72 -94 125 -94c59 0 105 40 126 94l44 -21c-27 -76 -89 -136 -170 -136zM236 41c66 0 122 37 159 80v86c-40 13 -95 24 -147 24c-87 0 -129 -43 -129 -96c0 -52 39 -94 117 -94zM225 -9c-99 0 -163 60 -163 141
c0 88 78 147 184 147c54 0 124 -17 149 -28v82c0 29 -8 53 -23 71c-22 25 -59 41 -112 41c-48 0 -73 -14 -91 -28c5 -9 9 -18 9 -31c0 -23 -17 -42 -43 -42c-27 0 -44 20 -44 45c0 53 66 106 176 106c65 0 116 -19 147 -53c24 -25 36 -58 36 -96v-295h81v-51h-133v67
c-41 -42 -106 -76 -173 -76z" />
    <glyph glyph-name="abreve.sc" horiz-adv-x="679" 
d="M340 660c-81 0 -143 60 -169 136l44 21c22 -59 72 -94 125 -94c59 0 105 40 126 94l44 -21c-27 -76 -89 -136 -170 -136zM338 533l-107 -282h214zM193 581h294v-51h-92l185 -479h77v-51h-232v51h96l-56 148h-253l-56 -148h96v-51h-230v51h78l183 479h-90v51z" />
    <glyph glyph-name="Acircumflex" unicode="&#xc2;" horiz-adv-x="792" 
d="M265 784l-26 32l157 146l157 -146l-26 -32l-131 100zM260 313h269l-134 363zM28 0v53h73l234 618h-85v53h292v-53h-85l234 -618h73v-53h-225v53h86l-77 208h-307l-78 -208h90v-53h-225z" />
    <glyph glyph-name="acircumflex" unicode="&#xe2;" horiz-adv-x="572" 
d="M138 582l-27 33l165 154l166 -154l-28 -33l-138 105zM236 41c66 0 122 37 159 80v86c-40 13 -95 24 -147 24c-87 0 -129 -43 -129 -96c0 -52 39 -94 117 -94zM225 -9c-99 0 -163 60 -163 141c0 88 78 147 184 147c54 0 124 -17 149 -28v82c0 29 -8 53 -23 71
c-22 25 -59 41 -112 41c-48 0 -73 -14 -91 -28c5 -9 9 -18 9 -31c0 -23 -17 -42 -43 -42c-27 0 -44 20 -44 45c0 53 66 106 176 106c65 0 116 -19 147 -53c24 -25 36 -58 36 -96v-295h81v-51h-133v67c-41 -42 -106 -76 -173 -76z" />
    <glyph glyph-name="acircumflex.sc" horiz-adv-x="679" 
d="M202 653l-27 33l165 154l166 -154l-28 -33l-138 105zM338 533l-107 -282h214zM193 581h294v-51h-92l185 -479h77v-51h-232v51h96l-56 148h-253l-56 -148h96v-51h-230v51h78l183 479h-90v51z" />
    <glyph glyph-name="Adieresis" unicode="&#xc4;" horiz-adv-x="792" 
d="M310 809c-30 0 -52 24 -52 54s22 54 52 54s52 -24 52 -54s-22 -54 -52 -54zM482 809c-29 0 -52 24 -52 54s23 54 52 54c30 0 53 -24 53 -54s-23 -54 -53 -54zM260 313h269l-134 363zM28 0v53h73l234 618h-85v53h292v-53h-85l234 -618h73v-53h-225v53h86l-77 208h-307
l-78 -208h90v-53h-225z" />
    <glyph glyph-name="adieresis" unicode="&#xe4;" horiz-adv-x="572" 
d="M186 608c-31 0 -55 25 -55 56c0 32 24 57 55 57s54 -25 54 -57c0 -31 -23 -56 -54 -56zM367 608c-31 0 -55 25 -55 56c0 32 24 57 55 57s54 -25 54 -57c0 -31 -23 -56 -54 -56zM236 41c66 0 122 37 159 80v86c-40 13 -95 24 -147 24c-87 0 -129 -43 -129 -96
c0 -52 39 -94 117 -94zM225 -9c-99 0 -163 60 -163 141c0 88 78 147 184 147c54 0 124 -17 149 -28v82c0 29 -8 53 -23 71c-22 25 -59 41 -112 41c-48 0 -73 -14 -91 -28c5 -9 9 -18 9 -31c0 -23 -17 -42 -43 -42c-27 0 -44 20 -44 45c0 53 66 106 176 106
c65 0 116 -19 147 -53c24 -25 36 -58 36 -96v-295h81v-51h-133v67c-41 -42 -106 -76 -173 -76z" />
    <glyph glyph-name="adieresis.sc" horiz-adv-x="679" 
d="M250 679c-31 0 -55 25 -55 56c0 32 24 57 55 57s54 -25 54 -57c0 -31 -23 -56 -54 -56zM431 679c-31 0 -55 25 -55 56c0 32 24 57 55 57s54 -25 54 -57c0 -31 -23 -56 -54 -56zM338 533l-107 -282h214zM193 581h294v-51h-92l185 -479h77v-51h-232v51h96l-56 148h-253
l-56 -148h96v-51h-230v51h78l183 479h-90v51z" />
    <glyph glyph-name="AE" unicode="&#xc6;" horiz-adv-x="971" 
d="M270 313h199v358h-19zM-5 0v53h85l310 618h-76v53h575v-164h-58v111h-302v-275h247v-53h-247v-290h302v111h58v-164h-507v53h87v208h-225l-104 -208h80v-53h-225z" />
    <glyph glyph-name="ae" unicode="&#xe6;" horiz-adv-x="888" 
d="M611 445c-86 0 -157 -65 -168 -165h332c-6 96 -60 165 -164 165zM260 444c-48 0 -73 -13 -91 -27c5 -9 9 -18 9 -31c0 -23 -17 -42 -43 -42c-27 0 -44 20 -44 45c0 53 66 106 176 106c64 0 115 -21 145 -58c9 -12 16 -26 21 -40c40 60 104 98 183 98
c140 0 217 -109 217 -228c0 -16 -1 -26 -3 -36h-388c8 -127 82 -188 201 -188c67 0 112 21 169 54l-6 -57c-49 -32 -111 -49 -170 -49c-93 0 -161 35 -201 96c-66 -66 -139 -96 -210 -96c-99 0 -163 60 -163 141c0 88 78 147 184 147c54 0 124 -17 149 -28v77
c0 28 -9 54 -24 72c-22 26 -61 44 -111 44zM236 41c63 0 117 24 180 80c-11 25 -18 54 -21 85c-48 16 -98 25 -147 25c-87 0 -129 -43 -129 -96c0 -52 39 -94 117 -94z" />
    <glyph glyph-name="ae.sc" horiz-adv-x="811" 
d="M367 530l-144 -274h152v274h-8zM270 0v51h105v153h-180l-80 -153h91v-51h-218v51h67l256 479h-82v51h506v-158h-55v107h-247v-210h201v-52h-201v-217h247v107h55v-158h-465z" />
    <glyph glyph-name="AEacute" unicode="&#x1fc;" horiz-adv-x="971" 
d="M498 791l-12 20l137 124c14 13 27 22 41 22c19 0 38 -15 38 -42c0 -13 -15 -30 -38 -42zM270 313h199v358h-19zM-5 0v53h85l310 618h-76v53h575v-164h-58v111h-302v-275h247v-53h-247v-290h302v111h58v-164h-507v53h87v208h-225l-104 -208h80v-53h-225z" />
    <glyph glyph-name="aeacute" unicode="&#x1fd;" horiz-adv-x="888" 
d="M404 589l-13 21l144 131c15 13 29 22 43 22c20 0 40 -16 40 -43c0 -14 -16 -32 -39 -44zM611 445c-86 0 -157 -65 -168 -165h332c-6 96 -60 165 -164 165zM260 444c-48 0 -73 -13 -91 -27c5 -9 9 -18 9 -31c0 -23 -17 -42 -43 -42c-27 0 -44 20 -44 45
c0 53 66 106 176 106c64 0 115 -21 145 -58c9 -12 16 -26 21 -40c40 60 104 98 183 98c140 0 217 -109 217 -228c0 -16 -1 -26 -3 -36h-388c8 -127 82 -188 201 -188c67 0 112 21 169 54l-6 -57c-49 -32 -111 -49 -170 -49c-93 0 -161 35 -201 96c-66 -66 -139 -96 -210 -96
c-99 0 -163 60 -163 141c0 88 78 147 184 147c54 0 124 -17 149 -28v77c0 28 -9 54 -24 72c-22 26 -61 44 -111 44zM236 41c63 0 117 24 180 80c-11 25 -18 54 -21 85c-48 16 -98 25 -147 25c-87 0 -129 -43 -129 -96c0 -52 39 -94 117 -94z" />
    <glyph glyph-name="aeacute.sc" horiz-adv-x="811" 
d="M401 660l-13 21l144 131c15 13 29 22 43 22c20 0 40 -16 40 -43c0 -14 -16 -32 -39 -44zM367 530l-144 -274h152v274h-8zM270 0v51h105v153h-180l-80 -153h91v-51h-218v51h67l256 479h-82v51h506v-158h-55v107h-247v-210h201v-52h-201v-217h247v107h55v-158h-465z" />
    <glyph glyph-name="Agrave" unicode="&#xc0;" horiz-adv-x="792" 
d="M436 791l-166 82c-22 12 -38 29 -38 42c0 27 20 42 39 42c14 0 26 -9 41 -22l137 -124zM260 313h269l-134 363zM28 0v53h73l234 618h-85v53h292v-53h-85l234 -618h73v-53h-225v53h86l-77 208h-307l-78 -208h90v-53h-225z" />
    <glyph glyph-name="agrave" unicode="&#xe0;" horiz-adv-x="572" 
d="M319 589l-175 87c-24 12 -39 30 -39 44c0 27 19 43 39 43c15 0 28 -9 43 -22l145 -131zM236 41c66 0 122 37 159 80v86c-40 13 -95 24 -147 24c-87 0 -129 -43 -129 -96c0 -52 39 -94 117 -94zM225 -9c-99 0 -163 60 -163 141c0 88 78 147 184 147c54 0 124 -17 149 -28
v82c0 29 -8 53 -23 71c-22 25 -59 41 -112 41c-48 0 -73 -14 -91 -28c5 -9 9 -18 9 -31c0 -23 -17 -42 -43 -42c-27 0 -44 20 -44 45c0 53 66 106 176 106c65 0 116 -19 147 -53c24 -25 36 -58 36 -96v-295h81v-51h-133v67c-41 -42 -106 -76 -173 -76z" />
    <glyph glyph-name="agrave.sc" horiz-adv-x="679" 
d="M384 660l-175 87c-24 12 -39 30 -39 44c0 27 19 43 39 43c15 0 28 -9 43 -22l145 -131zM338 533l-107 -282h214zM193 581h294v-51h-92l185 -479h77v-51h-232v51h96l-56 148h-253l-56 -148h96v-51h-230v51h78l183 479h-90v51z" />
    <glyph glyph-name="Amacron" unicode="&#x100;" horiz-adv-x="792" 
d="M237 825v55h318v-55h-318zM260 313h269l-134 363zM28 0v53h73l234 618h-85v53h292v-53h-85l234 -618h73v-53h-225v53h86l-77 208h-307l-78 -208h90v-53h-225z" />
    <glyph glyph-name="amacron" unicode="&#x101;" horiz-adv-x="572" 
d="M109 625v58h335v-58h-335zM236 41c66 0 122 37 159 80v86c-40 13 -95 24 -147 24c-87 0 -129 -43 -129 -96c0 -52 39 -94 117 -94zM225 -9c-99 0 -163 60 -163 141c0 88 78 147 184 147c54 0 124 -17 149 -28v82c0 29 -8 53 -23 71c-22 25 -59 41 -112 41
c-48 0 -73 -14 -91 -28c5 -9 9 -18 9 -31c0 -23 -17 -42 -43 -42c-27 0 -44 20 -44 45c0 53 66 106 176 106c65 0 116 -19 147 -53c24 -25 36 -58 36 -96v-295h81v-51h-133v67c-41 -42 -106 -76 -173 -76z" />
    <glyph glyph-name="amacron.sc" horiz-adv-x="679" 
d="M173 696v58h335v-58h-335zM338 533l-107 -282h214zM193 581h294v-51h-92l185 -479h77v-51h-232v51h96l-56 148h-253l-56 -148h96v-51h-230v51h78l183 479h-90v51z" />
    <glyph glyph-name="Aogonek" unicode="&#x104;" horiz-adv-x="792" 
d="M657 -221c-74 0 -111 39 -111 97c0 50 33 94 78 124h-85v53h86l-77 208h-307l-78 -208h90v-53h-225v53h73l234 618h-85v53h292v-53h-85l234 -618h73v-53h-69c-58 -26 -96 -67 -96 -113c0 -36 20 -61 64 -61c35 0 64 10 88 23l-3 -45c-16 -11 -51 -25 -91 -25zM260 313
h269l-134 363z" />
    <glyph glyph-name="aogonek" unicode="&#x105;" horiz-adv-x="572" 
d="M430 -233c-78 0 -117 41 -117 102c0 54 35 101 85 132v66c-41 -42 -106 -76 -173 -76c-99 0 -163 60 -163 141c0 88 78 147 184 147c54 0 124 -17 149 -28v82c0 29 -8 53 -23 71c-22 25 -59 41 -112 41c-48 0 -73 -14 -91 -28c5 -9 9 -18 9 -31c0 -23 -17 -42 -43 -42
c-27 0 -44 20 -44 45c0 53 66 106 176 106c65 0 116 -19 147 -53c24 -25 36 -58 36 -96v-295h81v-51h-62c-61 -27 -101 -71 -101 -120c0 -38 22 -64 68 -64c36 0 67 11 92 24l-3 -46c-16 -12 -53 -27 -95 -27zM236 41c66 0 122 37 159 80v86c-40 13 -95 24 -147 24
c-87 0 -129 -43 -129 -96c0 -52 39 -94 117 -94z" />
    <glyph glyph-name="aogonek.sc" horiz-adv-x="679" 
d="M550 -233c-78 0 -117 41 -117 102c0 53 34 100 83 131h-91v51h96l-56 148h-253l-56 -148h96v-51h-230v51h78l183 479h-90v51h294v-51h-92l185 -479h77v-51h-68c-61 -27 -101 -71 -101 -120c0 -38 22 -64 68 -64c36 0 67 11 92 24l-3 -46c-16 -12 -53 -27 -95 -27z
M338 533l-107 -282h214z" />
    <glyph glyph-name="Aring" unicode="&#xc5;" horiz-adv-x="792" 
d="M395 730c36 0 63 30 63 67c0 38 -27 68 -63 68c-37 0 -63 -30 -63 -68c0 -37 26 -67 63 -67zM260 313h269l-134 363zM503 802c0 -29 -12 -58 -37 -78h76v-53h-85l234 -618h73v-53h-225v53h86l-77 208h-307l-78 -208h90v-53h-225v53h73l234 618h-85v53h72
c-22 20 -35 48 -35 78c0 56 48 106 108 106s108 -50 108 -106z" />
    <glyph glyph-name="aring" unicode="&#xe5;" horiz-adv-x="572" 
d="M276 577c-63 0 -113 52 -113 116s50 117 113 117s114 -53 114 -117s-51 -116 -114 -116zM276 622c39 0 67 32 67 71c0 40 -28 71 -67 71c-38 0 -66 -31 -66 -71c0 -39 28 -71 66 -71zM236 41c66 0 122 37 159 80v86c-40 13 -95 24 -147 24c-87 0 -129 -43 -129 -96
c0 -52 39 -94 117 -94zM225 -9c-99 0 -163 60 -163 141c0 88 78 147 184 147c54 0 124 -17 149 -28v82c0 29 -8 53 -23 71c-22 25 -59 41 -112 41c-48 0 -73 -14 -91 -28c5 -9 9 -18 9 -31c0 -23 -17 -42 -43 -42c-27 0 -44 20 -44 45c0 53 66 106 176 106
c65 0 116 -19 147 -53c24 -25 36 -58 36 -96v-295h81v-51h-133v67c-41 -42 -106 -76 -173 -76z" />
    <glyph glyph-name="aring.sc" horiz-adv-x="679" 
d="M338 583c38 0 66 31 66 71c0 39 -28 70 -66 70s-66 -31 -66 -70c0 -40 28 -71 66 -71zM338 533l-107 -282h214zM252 0h-230v51h78l183 479h-90v51h61c-18 19 -29 45 -29 73c0 63 50 116 113 116s113 -53 113 -116c0 -28 -12 -54 -29 -73h65v-51h-92l185 -479h77v-51h-232
v51h96l-56 148h-253l-56 -148h96v-51z" />
    <glyph glyph-name="Aringacute" unicode="&#x1fa;" horiz-adv-x="792" 
d="M354 953l-12 20l137 124c14 13 27 22 41 22c19 0 38 -15 38 -42c0 -13 -15 -30 -38 -42zM395 730c36 0 63 30 63 67c0 38 -27 68 -63 68c-37 0 -63 -30 -63 -68c0 -37 26 -67 63 -67zM260 313h269l-134 363zM503 802c0 -29 -12 -58 -37 -78h76v-53h-85l234 -618h73v-53
h-225v53h86l-77 208h-307l-78 -208h90v-53h-225v53h73l234 618h-85v53h72c-22 20 -35 48 -35 78c0 56 48 106 108 106s108 -50 108 -106z" />
    <glyph glyph-name="aringacute" unicode="&#x1fb;" horiz-adv-x="572" 
d="M244 870l-13 21l144 131c15 13 29 22 43 22c20 0 40 -16 40 -43c0 -14 -16 -32 -39 -44zM286 577c-63 0 -113 52 -113 116s50 117 113 117s114 -53 114 -117s-51 -116 -114 -116zM286 622c39 0 67 32 67 71c0 40 -28 71 -67 71c-38 0 -66 -31 -66 -71
c0 -39 28 -71 66 -71zM236 41c66 0 122 37 159 80v86c-40 13 -95 24 -147 24c-87 0 -129 -43 -129 -96c0 -52 39 -94 117 -94zM225 -9c-99 0 -163 60 -163 141c0 88 78 147 184 147c54 0 124 -17 149 -28v82c0 29 -8 53 -23 71c-22 25 -59 41 -112 41c-48 0 -73 -14 -91 -28
c5 -9 9 -18 9 -31c0 -23 -17 -42 -43 -42c-27 0 -44 20 -44 45c0 53 66 106 176 106c65 0 116 -19 147 -53c24 -25 36 -58 36 -96v-295h81v-51h-133v67c-41 -42 -106 -76 -173 -76z" />
    <glyph glyph-name="aringacute.sc" horiz-adv-x="679" 
d="M294 826l-13 21l144 131c15 13 29 22 43 22c20 0 40 -16 40 -43c0 -14 -16 -32 -39 -44zM338 583c38 0 66 31 66 71c0 39 -28 70 -66 70s-66 -31 -66 -70c0 -40 28 -71 66 -71zM338 533l-107 -282h214zM252 0h-230v51h78l183 479h-90v51h61c-18 19 -29 45 -29 73
c0 63 50 116 113 116s113 -53 113 -116c0 -28 -12 -54 -29 -73h65v-51h-92l185 -479h77v-51h-232v51h96l-56 148h-253l-56 -148h96v-51z" />
    <glyph glyph-name="Atilde" unicode="&#xc3;" horiz-adv-x="792" 
d="M474 792c-42 0 -69 20 -96 43c-24 20 -37 28 -53 28c-26 0 -43 -27 -48 -64l-47 9c2 62 45 112 92 112c42 0 69 -20 96 -43c25 -20 37 -28 53 -28c27 0 43 27 49 64l47 -9c-3 -62 -46 -112 -93 -112zM260 313h269l-134 363zM28 0v53h73l234 618h-85v53h292v-53h-85
l234 -618h73v-53h-225v53h86l-77 208h-307l-78 -208h90v-53h-225z" />
    <glyph glyph-name="atilde" unicode="&#xe3;" horiz-adv-x="572" 
d="M358 590c-44 0 -72 22 -100 45c-26 21 -40 30 -57 30c-28 0 -45 -28 -51 -68l-49 10c3 65 47 117 97 117c44 0 73 -21 101 -44c26 -22 39 -30 56 -30c29 0 46 28 52 68l49 -10c-3 -65 -48 -118 -98 -118zM236 41c66 0 122 37 159 80v86c-40 13 -95 24 -147 24
c-87 0 -129 -43 -129 -96c0 -52 39 -94 117 -94zM225 -9c-99 0 -163 60 -163 141c0 88 78 147 184 147c54 0 124 -17 149 -28v82c0 29 -8 53 -23 71c-22 25 -59 41 -112 41c-48 0 -73 -14 -91 -28c5 -9 9 -18 9 -31c0 -23 -17 -42 -43 -42c-27 0 -44 20 -44 45
c0 53 66 106 176 106c65 0 116 -19 147 -53c24 -25 36 -58 36 -96v-295h81v-51h-133v67c-41 -42 -106 -76 -173 -76z" />
    <glyph glyph-name="atilde.sc" horiz-adv-x="679" 
d="M423 661c-44 0 -72 22 -100 45c-26 21 -40 30 -57 30c-28 0 -45 -28 -51 -68l-49 10c3 65 47 117 97 117c44 0 73 -21 101 -44c26 -22 39 -30 56 -30c29 0 46 28 52 68l49 -10c-3 -65 -48 -118 -98 -118zM338 533l-107 -282h214zM193 581h294v-51h-92l185 -479h77v-51
h-232v51h96l-56 148h-253l-56 -148h96v-51h-230v51h78l183 479h-90v51z" />
    <glyph glyph-name="Cacute" unicode="&#x106;" horiz-adv-x="784" 
d="M398 791l-12 20l137 124c14 13 27 22 41 22c19 0 38 -15 38 -42c0 -13 -15 -30 -38 -42zM438 -13c-223 0 -366 182 -366 369c0 226 172 381 361 381c146 0 266 -94 266 -181c0 -34 -23 -61 -55 -61c-27 0 -48 21 -48 48c0 24 17 42 36 47c-19 38 -92 93 -199 93
c-177 0 -300 -155 -300 -325c0 -162 125 -317 305 -317c88 0 163 31 232 93l32 -43c-73 -71 -171 -104 -264 -104z" />
    <glyph glyph-name="cacute" unicode="&#x107;" horiz-adv-x="545" 
d="M252 589l-13 21l144 131c15 13 29 22 43 22c20 0 40 -16 40 -43c0 -14 -16 -32 -39 -44zM313 -9c-146 0 -254 109 -254 248c0 140 109 256 241 256c101 0 188 -66 188 -137c0 -29 -21 -56 -52 -56c-19 0 -41 11 -41 42c0 17 9 30 28 39c-15 39 -72 62 -123 62
c-83 0 -181 -72 -181 -207c0 -113 79 -195 201 -195c54 0 104 17 158 54l-6 -58c-47 -34 -114 -48 -159 -48z" />
    <glyph glyph-name="cacute.sc" horiz-adv-x="648" 
d="M307 660l-13 21l144 131c15 13 29 22 43 22c20 0 40 -16 40 -43c0 -14 -16 -32 -39 -44zM545 120l33 -40c-57 -58 -138 -90 -220 -90c-175 0 -294 132 -294 301c0 166 123 302 296 302c120 0 215 -75 215 -144c0 -33 -20 -56 -50 -56c-26 0 -45 18 -45 44
c0 20 11 32 25 38c-16 28 -67 65 -145 65c-137 0 -237 -108 -237 -249c0 -145 100 -248 235 -248c74 0 135 28 187 77z" />
    <glyph glyph-name="Ccaron" unicode="&#x10c;" horiz-adv-x="784" 
d="M570 966l26 -31l-157 -146l-157 146l26 31l131 -100zM438 -13c-223 0 -366 182 -366 369c0 226 172 381 361 381c146 0 266 -94 266 -181c0 -34 -23 -61 -55 -61c-27 0 -48 21 -48 48c0 24 17 42 36 47c-19 38 -92 93 -199 93c-177 0 -300 -155 -300 -325
c0 -162 125 -317 305 -317c88 0 163 31 232 93l32 -43c-73 -71 -171 -104 -264 -104z" />
    <glyph glyph-name="ccaron" unicode="&#x10d;" horiz-adv-x="545" 
d="M432 773l28 -33l-166 -153l-165 153l27 33l138 -105zM313 -9c-146 0 -254 109 -254 248c0 140 109 256 241 256c101 0 188 -66 188 -137c0 -29 -21 -56 -52 -56c-19 0 -41 11 -41 42c0 17 9 30 28 39c-15 39 -72 62 -123 62c-83 0 -181 -72 -181 -207
c0 -113 79 -195 201 -195c54 0 104 17 158 54l-6 -58c-47 -34 -114 -48 -159 -48z" />
    <glyph glyph-name="ccaron.sc" horiz-adv-x="648" 
d="M487 844l28 -33l-166 -153l-165 153l27 33l138 -105zM545 120l33 -40c-57 -58 -138 -90 -220 -90c-175 0 -294 132 -294 301c0 166 123 302 296 302c120 0 215 -75 215 -144c0 -33 -20 -56 -50 -56c-26 0 -45 18 -45 44c0 20 11 32 25 38c-16 28 -67 65 -145 65
c-137 0 -237 -108 -237 -249c0 -145 100 -248 235 -248c74 0 135 28 187 77z" />
    <glyph glyph-name="Ccedilla" unicode="&#xc7;" horiz-adv-x="784" 
d="M433 -219c-39 0 -81 11 -115 28l15 34c24 -11 67 -21 95 -21c31 0 50 14 50 36c0 23 -21 37 -57 37c-6 0 -20 -2 -23 -3l-18 13l22 84c-202 17 -330 190 -330 367c0 226 172 381 361 381c146 0 266 -94 266 -181c0 -34 -23 -61 -55 -61c-27 0 -48 21 -48 48
c0 24 17 42 36 47c-19 38 -92 93 -199 93c-177 0 -300 -155 -300 -325c0 -162 125 -317 305 -317c88 0 163 31 232 93l32 -43c-73 -71 -169 -103 -261 -104h-1l-5 -43c67 -1 97 -38 97 -81c0 -45 -33 -82 -99 -82z" />
    <glyph glyph-name="ccedilla" unicode="&#xe7;" horiz-adv-x="591" 
d="M306 -231c-41 0 -86 11 -121 30l15 35c26 -12 71 -22 100 -22c34 0 54 15 54 38c0 25 -23 39 -60 40c-7 0 -21 -3 -25 -4l-19 13l25 95c-126 16 -216 118 -216 245c0 140 109 256 241 256c101 0 188 -66 188 -137c0 -29 -21 -56 -52 -56c-19 0 -41 11 -41 42
c0 17 9 30 28 39c-15 39 -72 62 -123 62c-83 0 -181 -72 -181 -207c0 -113 79 -195 201 -195c54 0 104 17 158 54l-6 -58c-47 -34 -113 -48 -157 -48h-1l-6 -51c70 -1 102 -39 102 -85c0 -47 -34 -86 -104 -86z" />
    <glyph glyph-name="ccedilla.sc" horiz-adv-x="648" 
d="M351 -231c-41 0 -86 11 -121 30l15 35c26 -12 71 -22 100 -22c34 0 54 15 54 38c0 25 -23 39 -60 40c-7 0 -21 -3 -25 -4l-19 13l25 93c-154 17 -256 142 -256 299c0 166 123 302 296 302c120 0 215 -75 215 -144c0 -33 -20 -56 -50 -56c-26 0 -45 18 -45 44
c0 20 11 32 25 38c-16 28 -67 65 -145 65c-137 0 -237 -108 -237 -249c0 -145 100 -248 235 -248c74 0 135 28 187 77l33 -40c-57 -58 -138 -89 -218 -90h-1l-6 -50c70 -1 102 -39 102 -85c0 -47 -34 -86 -104 -86z" />
    <glyph glyph-name="Cdotaccent" unicode="&#x10a;" horiz-adv-x="784" 
d="M439 806c-31 0 -54 26 -54 57s23 56 54 56s55 -25 55 -56s-24 -57 -55 -57zM438 -13c-223 0 -366 182 -366 369c0 226 172 381 361 381c146 0 266 -94 266 -181c0 -34 -23 -61 -55 -61c-27 0 -48 21 -48 48c0 24 17 42 36 47c-19 38 -92 93 -199 93
c-177 0 -300 -155 -300 -325c0 -162 125 -317 305 -317c88 0 163 31 232 93l32 -43c-73 -71 -171 -104 -264 -104z" />
    <glyph glyph-name="cdotaccent" unicode="&#x10b;" horiz-adv-x="545" 
d="M294 606c-32 0 -56 26 -56 58c0 33 24 59 56 59c33 0 57 -26 57 -59c0 -32 -24 -58 -57 -58zM313 -9c-146 0 -254 109 -254 248c0 140 109 256 241 256c101 0 188 -66 188 -137c0 -29 -21 -56 -52 -56c-19 0 -41 11 -41 42c0 17 9 30 28 39c-15 39 -72 62 -123 62
c-83 0 -181 -72 -181 -207c0 -113 79 -195 201 -195c54 0 104 17 158 54l-6 -58c-47 -34 -114 -48 -159 -48z" />
    <glyph glyph-name="cdotaccent.sc" horiz-adv-x="648" 
d="M349 677c-32 0 -56 26 -56 58c0 33 24 59 56 59c33 0 57 -26 57 -59c0 -32 -24 -58 -57 -58zM545 120l33 -40c-57 -58 -138 -90 -220 -90c-175 0 -294 132 -294 301c0 166 123 302 296 302c120 0 215 -75 215 -144c0 -33 -20 -56 -50 -56c-26 0 -45 18 -45 44
c0 20 11 32 25 38c-16 28 -67 65 -145 65c-137 0 -237 -108 -237 -249c0 -145 100 -248 235 -248c74 0 135 28 187 77z" />
    <glyph glyph-name="Dcaron" unicode="&#x10e;" horiz-adv-x="818" 
d="M515 966l26 -31l-157 -146l-157 146l26 31l131 -100zM63 0v53h97v618h-97v53h269c249 0 414 -142 414 -355c0 -216 -155 -369 -412 -369h-271zM220 53h119c231 0 346 131 346 318c0 182 -137 300 -354 300h-111v-618z" />
    <glyph glyph-name="dcaron" unicode="&#x10f;" horiz-adv-x="643" 
d="M589 612l-20 15c26 39 38 72 38 115c0 28 -5 43 -5 66s13 42 40 42c26 0 40 -17 40 -46c0 -65 -41 -136 -93 -192zM299 42c71 0 125 35 169 83v256c-40 35 -92 64 -164 64c-110 0 -182 -90 -183 -204c-1 -117 74 -199 178 -199zM295 -9c-129 0 -234 99 -234 249
c0 137 94 255 245 255c61 0 119 -23 162 -63v366h-101v51h157v-798h82v-51h-136v76c-43 -51 -98 -85 -175 -85z" />
    <glyph glyph-name="dcaron.sc" horiz-adv-x="713" 
d="M476 844l28 -33l-166 -153l-165 153l27 33l138 -105zM315 0h-255v51h106v479h-106v51h255c204 0 334 -110 334 -284c0 -176 -122 -297 -334 -297zM223 51h99c177 0 268 101 268 247c0 144 -108 232 -275 232h-92v-479z" />
    <glyph glyph-name="Dcroat" unicode="&#x110;" horiz-adv-x="823" 
d="M165 344h-75v53h75v274h-97v53h269c249 0 414 -142 414 -355c0 -216 -155 -369 -412 -369h-271v53h97v291zM225 53h120c230 0 345 131 345 318c0 182 -137 300 -354 300h-111v-274h172v-53h-172v-291z" />
    <glyph glyph-name="dcroat" unicode="&#x111;" horiz-adv-x="643" 
d="M299 42c71 0 125 35 169 83v256c-40 35 -92 64 -164 64c-110 0 -182 -90 -183 -204c-1 -117 74 -199 178 -199zM282 619v51h186v128h-101v51h157v-179h82v-51h-82v-568h82v-51h-136v76c-43 -51 -98 -85 -175 -85c-129 0 -234 99 -234 249c0 137 94 255 245 255
c61 0 119 -23 162 -63v187h-186z" />
    <glyph glyph-name="dcroat.sc" horiz-adv-x="713" 
d="M315 0h-255v51h106v221h-82v51h82v207h-106v51h255c204 0 334 -110 334 -284c0 -176 -122 -297 -334 -297zM223 51h99c178 0 269 101 269 247c0 144 -108 232 -276 232h-92v-207h137v-51h-137v-221z" />
    <glyph glyph-name="Eacute" unicode="&#xc9;" horiz-adv-x="662" 
d="M282 791l-12 20l137 124c14 13 27 22 41 22c19 0 38 -15 38 -42c0 -13 -15 -30 -38 -42zM63 0v53h97v618h-97v53h517v-164h-58v111h-302v-275h247v-53h-247v-290h302v111h58v-164h-517z" />
    <glyph glyph-name="eacute" unicode="&#xe9;" horiz-adv-x="565" 
d="M241 589l-13 21l144 131c15 13 29 22 43 22c20 0 40 -16 40 -43c0 -14 -16 -32 -39 -44zM505 231h-388c8 -125 83 -188 202 -188c66 0 111 21 168 54l-6 -57c-49 -32 -111 -49 -170 -49c-153 0 -254 103 -254 251c0 134 90 253 234 253c140 0 217 -109 217 -228
c0 -16 -1 -26 -3 -36zM286 445c-86 0 -157 -65 -168 -165h333c-7 96 -61 165 -165 165z" />
    <glyph glyph-name="eacute.sc" horiz-adv-x="601" 
d="M252 660l-13 21l144 131c15 13 29 22 43 22c20 0 40 -16 40 -43c0 -14 -16 -32 -39 -44zM525 0h-465v51h105v479h-105v51h465v-158h-55v107h-247v-210h201v-52h-201v-217h247v107h55v-158z" />
    <glyph glyph-name="Ebreve" unicode="&#x114;" horiz-adv-x="662" 
d="M323 791c-77 0 -136 57 -161 129l42 20c21 -56 69 -88 119 -88c55 0 99 38 119 88l42 -20c-25 -72 -84 -129 -161 -129zM63 0v53h97v618h-97v53h517v-164h-58v111h-302v-275h247v-53h-247v-290h302v111h58v-164h-517z" />
    <glyph glyph-name="ebreve" unicode="&#x115;" horiz-adv-x="565" 
d="M283 589c-81 0 -143 60 -169 136l44 21c22 -59 72 -94 125 -94c59 0 105 40 126 94l44 -21c-27 -76 -89 -136 -170 -136zM505 231h-388c8 -125 83 -188 202 -188c66 0 111 21 168 54l-6 -57c-49 -32 -111 -49 -170 -49c-153 0 -254 103 -254 251c0 134 90 253 234 253
c140 0 217 -109 217 -228c0 -16 -1 -26 -3 -36zM286 445c-86 0 -157 -65 -168 -165h333c-7 96 -61 165 -165 165z" />
    <glyph glyph-name="ebreve.sc" horiz-adv-x="601" 
d="M294 660c-81 0 -143 60 -169 136l44 21c22 -59 72 -94 125 -94c59 0 105 40 126 94l44 -21c-27 -76 -89 -136 -170 -136zM525 0h-465v51h105v479h-105v51h465v-158h-55v107h-247v-210h201v-52h-201v-217h247v107h55v-158z" />
    <glyph glyph-name="Ecaron" unicode="&#x11a;" horiz-adv-x="662" 
d="M454 966l26 -31l-157 -146l-157 146l26 31l131 -100zM63 0v53h97v618h-97v53h517v-164h-58v111h-302v-275h247v-53h-247v-290h302v111h58v-164h-517z" />
    <glyph glyph-name="ecaron" unicode="&#x11b;" horiz-adv-x="565" 
d="M421 773l28 -33l-166 -153l-165 153l27 33l138 -105zM505 231h-388c8 -125 83 -188 202 -188c66 0 111 21 168 54l-6 -57c-49 -32 -111 -49 -170 -49c-153 0 -254 103 -254 251c0 134 90 253 234 253c140 0 217 -109 217 -228c0 -16 -1 -26 -3 -36zM286 445
c-86 0 -157 -65 -168 -165h333c-7 96 -61 165 -165 165z" />
    <glyph glyph-name="ecaron.sc" horiz-adv-x="601" 
d="M432 844l28 -33l-166 -153l-165 153l27 33l138 -105zM525 0h-465v51h105v479h-105v51h465v-158h-55v107h-247v-210h201v-52h-201v-217h247v107h55v-158z" />
    <glyph glyph-name="Ecircumflex" unicode="&#xca;" horiz-adv-x="662" 
d="M192 784l-26 32l157 146l157 -146l-26 -32l-131 100zM63 0v53h97v618h-97v53h517v-164h-58v111h-302v-275h247v-53h-247v-290h302v111h58v-164h-517z" />
    <glyph glyph-name="ecircumflex" unicode="&#xea;" horiz-adv-x="565" 
d="M145 582l-27 33l165 154l166 -154l-28 -33l-138 105zM505 231h-388c8 -125 83 -188 202 -188c66 0 111 21 168 54l-6 -57c-49 -32 -111 -49 -170 -49c-153 0 -254 103 -254 251c0 134 90 253 234 253c140 0 217 -109 217 -228c0 -16 -1 -26 -3 -36zM286 445
c-86 0 -157 -65 -168 -165h333c-7 96 -61 165 -165 165z" />
    <glyph glyph-name="ecircumflex.sc" horiz-adv-x="601" 
d="M156 653l-27 33l165 154l166 -154l-28 -33l-138 105zM525 0h-465v51h105v479h-105v51h465v-158h-55v107h-247v-210h201v-52h-201v-217h247v107h55v-158z" />
    <glyph glyph-name="Edieresis" unicode="&#xcb;" horiz-adv-x="662" 
d="M237 809c-30 0 -52 24 -52 54s22 54 52 54s52 -24 52 -54s-22 -54 -52 -54zM409 809c-29 0 -52 24 -52 54s23 54 52 54c30 0 53 -24 53 -54s-23 -54 -53 -54zM63 0v53h97v618h-97v53h517v-164h-58v111h-302v-275h247v-53h-247v-290h302v111h58v-164h-517z" />
    <glyph glyph-name="edieresis" unicode="&#xeb;" horiz-adv-x="565" 
d="M193 608c-31 0 -55 25 -55 56c0 32 24 57 55 57s54 -25 54 -57c0 -31 -23 -56 -54 -56zM374 608c-31 0 -55 25 -55 56c0 32 24 57 55 57s54 -25 54 -57c0 -31 -23 -56 -54 -56zM505 231h-388c8 -125 83 -188 202 -188c66 0 111 21 168 54l-6 -57
c-49 -32 -111 -49 -170 -49c-153 0 -254 103 -254 251c0 134 90 253 234 253c140 0 217 -109 217 -228c0 -16 -1 -26 -3 -36zM286 445c-86 0 -157 -65 -168 -165h333c-7 96 -61 165 -165 165z" />
    <glyph glyph-name="edieresis.sc" horiz-adv-x="601" 
d="M204 679c-31 0 -55 25 -55 56c0 32 24 57 55 57s54 -25 54 -57c0 -31 -23 -56 -54 -56zM385 679c-31 0 -55 25 -55 56c0 32 24 57 55 57s54 -25 54 -57c0 -31 -23 -56 -54 -56zM525 0h-465v51h105v479h-105v51h465v-158h-55v107h-247v-210h201v-52h-201v-217h247v107h55
v-158z" />
    <glyph glyph-name="Edotaccent" unicode="&#x116;" horiz-adv-x="662" 
d="M323 806c-31 0 -54 26 -54 57s23 56 54 56s55 -25 55 -56s-24 -57 -55 -57zM63 0v53h97v618h-97v53h517v-164h-58v111h-302v-275h247v-53h-247v-290h302v111h58v-164h-517z" />
    <glyph glyph-name="edotaccent" unicode="&#x117;" horiz-adv-x="565" 
d="M283 606c-32 0 -56 26 -56 58c0 33 24 59 56 59c33 0 57 -26 57 -59c0 -32 -24 -58 -57 -58zM505 231h-388c8 -125 83 -188 202 -188c66 0 111 21 168 54l-6 -57c-49 -32 -111 -49 -170 -49c-153 0 -254 103 -254 251c0 134 90 253 234 253c140 0 217 -109 217 -228
c0 -16 -1 -26 -3 -36zM286 445c-86 0 -157 -65 -168 -165h333c-7 96 -61 165 -165 165z" />
    <glyph glyph-name="edotaccent.sc" horiz-adv-x="601" 
d="M294 677c-32 0 -56 26 -56 58c0 33 24 59 56 59c33 0 57 -26 57 -59c0 -32 -24 -58 -57 -58zM525 0h-465v51h105v479h-105v51h465v-158h-55v107h-247v-210h201v-52h-201v-217h247v107h55v-158z" />
    <glyph glyph-name="Egrave" unicode="&#xc8;" horiz-adv-x="662" 
d="M363 791l-166 82c-22 12 -38 29 -38 42c0 27 20 42 39 42c14 0 26 -9 41 -22l137 -124zM63 0v53h97v618h-97v53h517v-164h-58v111h-302v-275h247v-53h-247v-290h302v111h58v-164h-517z" />
    <glyph glyph-name="egrave" unicode="&#xe8;" horiz-adv-x="565" 
d="M326 589l-175 87c-24 12 -39 30 -39 44c0 27 19 43 39 43c15 0 28 -9 43 -22l145 -131zM505 231h-388c8 -125 83 -188 202 -188c66 0 111 21 168 54l-6 -57c-49 -32 -111 -49 -170 -49c-153 0 -254 103 -254 251c0 134 90 253 234 253c140 0 217 -109 217 -228
c0 -16 -1 -26 -3 -36zM286 445c-86 0 -157 -65 -168 -165h333c-7 96 -61 165 -165 165z" />
    <glyph glyph-name="egrave.sc" horiz-adv-x="601" 
d="M337 660l-175 87c-24 12 -39 30 -39 44c0 27 19 43 39 43c15 0 28 -9 43 -22l145 -131zM525 0h-465v51h105v479h-105v51h465v-158h-55v107h-247v-210h201v-52h-201v-217h247v107h55v-158z" />
    <glyph glyph-name="Emacron" unicode="&#x112;" horiz-adv-x="662" 
d="M164 825v55h318v-55h-318zM63 0v53h97v618h-97v53h517v-164h-58v111h-302v-275h247v-53h-247v-290h302v111h58v-164h-517z" />
    <glyph glyph-name="emacron" unicode="&#x113;" horiz-adv-x="565" 
d="M116 625v58h335v-58h-335zM505 231h-388c8 -125 83 -188 202 -188c66 0 111 21 168 54l-6 -57c-49 -32 -111 -49 -170 -49c-153 0 -254 103 -254 251c0 134 90 253 234 253c140 0 217 -109 217 -228c0 -16 -1 -26 -3 -36zM286 445c-86 0 -157 -65 -168 -165h333
c-7 96 -61 165 -165 165z" />
    <glyph glyph-name="emacron.sc" horiz-adv-x="601" 
d="M127 696v58h335v-58h-335zM525 0h-465v51h105v479h-105v51h465v-158h-55v107h-247v-210h201v-52h-201v-217h247v107h55v-158z" />
    <glyph glyph-name="Eogonek" unicode="&#x118;" horiz-adv-x="662" 
d="M63 0v53h97v618h-97v53h517v-164h-58v111h-302v-275h247v-53h-247v-290h302v111h58v-164h-56c-58 -26 -96 -67 -96 -113c0 -36 20 -61 64 -61c35 0 64 10 88 23l-3 -45c-16 -11 -51 -25 -91 -25c-74 0 -111 39 -111 97c0 50 33 94 78 124h-390z" />
    <glyph glyph-name="eogonek" unicode="&#x119;" horiz-adv-x="565" 
d="M505 231h-388c8 -125 83 -188 202 -188c66 0 111 21 168 54l-6 -56c-74 -44 -169 -87 -169 -161c0 -38 21 -64 67 -64c37 0 67 11 93 24l-4 -46c-16 -12 -53 -27 -95 -27c-77 0 -117 41 -117 102c0 52 27 93 69 123c-5 -1 -10 -1 -14 -1c-153 0 -254 103 -254 251
c0 134 90 253 234 253c140 0 217 -109 217 -228c0 -16 -1 -26 -3 -36zM286 445c-86 0 -157 -65 -168 -165h333c-7 96 -61 165 -165 165z" />
    <glyph glyph-name="eogonek.sc" horiz-adv-x="601" 
d="M525 0h-60c-61 -27 -101 -71 -101 -120c0 -38 22 -64 68 -64c36 0 67 11 92 24l-3 -46c-16 -12 -53 -27 -95 -27c-78 0 -117 41 -117 102c0 53 34 100 83 131h-332v51h105v479h-105v51h465v-158h-55v107h-247v-210h201v-52h-201v-217h247v107h55v-158z" />
    <glyph glyph-name="Eth" unicode="&#xd0;" horiz-adv-x="823" 
d="M165 344h-75v53h75v274h-97v53h269c249 0 414 -142 414 -355c0 -216 -155 -369 -412 -369h-271v53h97v291zM225 53h120c230 0 345 131 345 318c0 182 -137 300 -354 300h-111v-274h172v-53h-172v-291z" />
    <glyph glyph-name="eth" unicode="&#xf0;" horiz-adv-x="614" 
d="M210 537l-33 40l146 131c-55 53 -112 86 -151 93c0 -23 -18 -46 -45 -46c-25 0 -47 20 -47 50c0 28 25 52 64 52c25 0 55 -7 88 -23c40 -19 86 -50 129 -91l114 104l33 -39l-112 -102c87 -100 158 -243 158 -419c0 -101 -28 -181 -79 -232c-42 -42 -99 -64 -168 -64
c-146 0 -246 107 -246 240s100 241 247 241c81 0 158 -46 191 -111c-9 120 -71 229 -142 311zM495 242c0 100 -77 179 -187 179c-111 0 -187 -79 -187 -190s76 -189 186 -189c56 0 99 21 131 54c37 40 57 94 57 146z" />
    <glyph glyph-name="eth.sc" horiz-adv-x="713" 
d="M315 0h-255v51h106v221h-82v51h82v207h-106v51h255c204 0 334 -110 334 -284c0 -176 -122 -297 -334 -297zM223 51h99c178 0 269 101 269 247c0 144 -108 232 -276 232h-92v-207h137v-51h-137v-221z" />
    <glyph glyph-name="Gbreve" unicode="&#x11e;" horiz-adv-x="827" 
d="M426 791c-77 0 -136 57 -161 129l42 20c21 -56 69 -88 119 -88c55 0 99 38 119 88l42 -20c-25 -72 -84 -129 -161 -129zM426 -13c-184 0 -354 137 -354 367c0 232 177 383 372 383c161 0 268 -92 268 -164c0 -34 -22 -57 -52 -57c-27 0 -48 22 -48 48c0 20 10 34 24 43
c-30 37 -103 76 -194 76c-186 0 -309 -148 -309 -329c0 -188 134 -314 297 -314c86 0 163 28 234 80v169h-211v52h270v-341h-57v67c-69 -50 -143 -80 -240 -80z" />
    <glyph glyph-name="gbreve" unicode="&#x11f;" horiz-adv-x="654" 
d="M334 589c-81 0 -143 60 -169 136l44 21c22 -59 72 -94 125 -94c59 0 105 40 126 94l44 -21c-27 -76 -89 -136 -170 -136zM307 445c-112 0 -186 -92 -186 -199c0 -111 75 -196 180 -196c73 0 128 36 171 84v246c-40 36 -92 65 -165 65zM528 436v-460
c0 -61 -16 -106 -44 -139c-42 -50 -112 -69 -186 -69s-128 22 -154 49c-16 16 -24 35 -24 53c0 31 21 52 50 52c24 0 39 -19 39 -41c0 -13 -5 -26 -15 -38c13 -11 51 -24 110 -24c53 0 104 13 136 51c19 24 32 56 32 100v109c-42 -45 -96 -79 -174 -79
c-131 0 -236 103 -236 244c0 129 94 251 247 251c66 0 123 -26 165 -67v58h136v-50h-82z" />
    <glyph glyph-name="gbreve.sc" horiz-adv-x="692" 
d="M355 660c-81 0 -143 60 -169 136l44 21c22 -59 72 -94 125 -94c59 0 105 40 126 94l44 -21c-27 -76 -89 -136 -170 -136zM365 541c-145 0 -242 -112 -242 -253c0 -148 106 -245 232 -245c74 0 134 21 187 58v132h-166v51h222v-284h-55v50c-51 -38 -111 -60 -193 -60
c-148 0 -286 113 -286 297c0 183 139 306 303 306c134 0 222 -74 222 -135c0 -33 -20 -55 -48 -55c-25 0 -44 18 -44 42c0 19 10 31 21 37c-22 27 -78 59 -153 59z" />
    <glyph glyph-name="Gcommaaccent" unicode="&#x122;" horiz-adv-x="827" 
d="M426 -13c-184 0 -354 137 -354 367c0 232 177 383 372 383c161 0 268 -92 268 -164c0 -34 -22 -57 -52 -57c-27 0 -48 22 -48 48c0 20 10 34 24 43c-30 37 -103 76 -194 76c-186 0 -309 -148 -309 -329c0 -188 134 -314 297 -314c86 0 163 28 234 80v169h-211v52h270
v-341h-57v67c-69 -50 -143 -80 -240 -80zM357 -285l-12 19c60 45 78 86 79 111c-24 3 -44 22 -44 46c0 28 22 47 45 47c29 0 52 -23 52 -63c0 -49 -32 -114 -120 -160z" />
    <glyph glyph-name="gcommaaccent" unicode="&#x123;" horiz-adv-x="654" 
d="M395 852l12 -20c-63 -47 -82 -90 -83 -116c25 -4 45 -24 45 -49c0 -29 -22 -49 -47 -49c-30 0 -54 24 -54 66c0 52 34 120 127 168zM307 445c-112 0 -186 -92 -186 -199c0 -111 75 -196 180 -196c73 0 128 36 171 84v246c-40 36 -92 65 -165 65zM528 436v-460
c0 -61 -16 -106 -44 -139c-42 -50 -112 -69 -186 -69s-128 22 -154 49c-16 16 -24 35 -24 53c0 31 21 52 50 52c24 0 39 -19 39 -41c0 -13 -5 -26 -15 -38c13 -11 51 -24 110 -24c53 0 104 13 136 51c19 24 32 56 32 100v109c-42 -45 -96 -79 -174 -79
c-131 0 -236 103 -236 244c0 129 94 251 247 251c66 0 123 -26 165 -67v58h136v-50h-82z" />
    <glyph glyph-name="gcommaaccent.sc" horiz-adv-x="692" 
d="M365 541c-145 0 -242 -112 -242 -253c0 -148 106 -245 232 -245c74 0 134 21 187 58v132h-166v51h222v-284h-55v50c-51 -38 -111 -60 -193 -60c-148 0 -286 113 -286 297c0 183 139 306 303 306c134 0 222 -74 222 -135c0 -33 -20 -55 -48 -55c-25 0 -44 18 -44 42
c0 19 10 31 21 37c-22 27 -78 59 -153 59zM280 -300l-12 20c63 47 82 90 83 117c-25 3 -46 23 -46 48c0 29 23 50 47 50c31 0 54 -24 54 -67c0 -52 -34 -120 -126 -168z" />
    <glyph glyph-name="Gdotaccent" unicode="&#x120;" horiz-adv-x="827" 
d="M426 806c-31 0 -54 26 -54 57s23 56 54 56s55 -25 55 -56s-24 -57 -55 -57zM426 -13c-184 0 -354 137 -354 367c0 232 177 383 372 383c161 0 268 -92 268 -164c0 -34 -22 -57 -52 -57c-27 0 -48 22 -48 48c0 20 10 34 24 43c-30 37 -103 76 -194 76
c-186 0 -309 -148 -309 -329c0 -188 134 -314 297 -314c86 0 163 28 234 80v169h-211v52h270v-341h-57v67c-69 -50 -143 -80 -240 -80z" />
    <glyph glyph-name="gdotaccent" unicode="&#x121;" horiz-adv-x="654" 
d="M334 606c-32 0 -56 26 -56 58c0 33 24 59 56 59c33 0 57 -26 57 -59c0 -32 -24 -58 -57 -58zM307 445c-112 0 -186 -92 -186 -199c0 -111 75 -196 180 -196c73 0 128 36 171 84v246c-40 36 -92 65 -165 65zM528 436v-460c0 -61 -16 -106 -44 -139
c-42 -50 -112 -69 -186 -69s-128 22 -154 49c-16 16 -24 35 -24 53c0 31 21 52 50 52c24 0 39 -19 39 -41c0 -13 -5 -26 -15 -38c13 -11 51 -24 110 -24c53 0 104 13 136 51c19 24 32 56 32 100v109c-42 -45 -96 -79 -174 -79c-131 0 -236 103 -236 244
c0 129 94 251 247 251c66 0 123 -26 165 -67v58h136v-50h-82z" />
    <glyph glyph-name="gdotaccent.sc" horiz-adv-x="692" 
d="M355 677c-32 0 -56 26 -56 58c0 33 24 59 56 59c33 0 57 -26 57 -59c0 -32 -24 -58 -57 -58zM365 541c-145 0 -242 -112 -242 -253c0 -148 106 -245 232 -245c74 0 134 21 187 58v132h-166v51h222v-284h-55v50c-51 -38 -111 -60 -193 -60c-148 0 -286 113 -286 297
c0 183 139 306 303 306c134 0 222 -74 222 -135c0 -33 -20 -55 -48 -55c-25 0 -44 18 -44 42c0 19 10 31 21 37c-22 27 -78 59 -153 59z" />
    <glyph glyph-name="Hbar" unicode="&#x126;" horiz-adv-x="874" 
d="M220 399h434v117h-434v-117zM85 516v51h75v104h-97v53h255v-53h-98v-104h434v104h-98v53h255v-53h-97v-104h75v-51h-75v-463h97v-53h-255v53h98v292h-434v-292h98v-53h-255v53h97v463h-75z" />
    <glyph glyph-name="hbar" unicode="&#x127;" horiz-adv-x="649" 
d="M125 798h-81v51h138v-179h185v-51h-185v-227c47 59 116 103 187 103c60 0 100 -19 126 -52c21 -29 32 -68 32 -113v-279h81v-51h-219v51h81v271c0 39 -8 66 -24 86c-19 24 -49 35 -87 35c-70 0 -132 -45 -177 -101v-291h81v-51h-219v51h81v568h-81v51h81v128z" />
    <glyph glyph-name="hbar.sc" horiz-adv-x="790" 
d="M223 320h344v80h-344v-80zM706 450v-50h-82v-349h106v-51h-270v51h107v216h-344v-216h106v-51h-269v51h105v349h-82v50h82v80h-105v51h269v-51h-106v-80h344v80h-107v51h270v-51h-106v-80h82z" />
    <glyph glyph-name="Iacute" unicode="&#xcd;" horiz-adv-x="393" 
d="M156 791l-12 20l137 124c14 13 27 22 41 22c19 0 38 -15 38 -42c0 -13 -15 -30 -38 -42zM64 0v53h102v618h-102v53h266v-53h-103v-618h103v-53h-266z" />
    <glyph glyph-name="iacute" unicode="&#xed;" horiz-adv-x="337" 
d="M129 589l-13 21l144 131c15 13 29 22 43 22c20 0 40 -16 40 -43c0 -14 -16 -32 -39 -44zM61 0v51h86v385h-86v50h142v-435h88v-51h-230z" />
    <glyph glyph-name="iacute.sc" horiz-adv-x="393" 
d="M154 660l-13 21l144 131c15 13 29 22 43 22c20 0 40 -16 40 -43c0 -14 -16 -32 -39 -44zM333 0h-273v51h108v479h-108v51h273v-51h-108v-479h108v-51z" />
    <glyph glyph-name="Ibreve" unicode="&#x12c;" horiz-adv-x="393" 
d="M196 791c-77 0 -136 57 -161 129l42 20c21 -56 69 -88 119 -88c55 0 99 38 119 88l42 -20c-25 -72 -84 -129 -161 -129zM64 0v53h102v618h-102v53h266v-53h-103v-618h103v-53h-266z" />
    <glyph glyph-name="ibreve" unicode="&#x12d;" horiz-adv-x="337" 
d="M171 589c-81 0 -143 60 -169 136l44 21c22 -59 72 -94 125 -94c59 0 105 40 126 94l44 -21c-27 -76 -89 -136 -170 -136zM61 0v51h86v385h-86v50h142v-435h88v-51h-230z" />
    <glyph glyph-name="ibreve.sc" horiz-adv-x="393" 
d="M197 660c-81 0 -143 60 -169 136l44 21c22 -59 72 -94 125 -94c59 0 105 40 126 94l44 -21c-27 -76 -89 -136 -170 -136zM333 0h-273v51h108v479h-108v51h273v-51h-108v-479h108v-51z" />
    <glyph glyph-name="Icircumflex" unicode="&#xce;" horiz-adv-x="393" 
d="M65 784l-26 32l157 146l157 -146l-26 -32l-131 100zM64 0v53h102v618h-102v53h266v-53h-103v-618h103v-53h-266z" />
    <glyph glyph-name="icircumflex" unicode="&#xee;" horiz-adv-x="337" 
d="M33 582l-27 33l165 154l166 -154l-28 -33l-138 105zM61 0v51h86v385h-86v50h142v-435h88v-51h-230z" />
    <glyph glyph-name="icircumflex.sc" horiz-adv-x="393" 
d="M59 653l-27 33l165 154l166 -154l-28 -33l-138 105zM333 0h-273v51h108v479h-108v51h273v-51h-108v-479h108v-51z" />
    <glyph glyph-name="Idieresis" unicode="&#xcf;" horiz-adv-x="393" 
d="M110 809c-30 0 -52 24 -52 54s22 54 52 54s52 -24 52 -54s-22 -54 -52 -54zM282 809c-29 0 -52 24 -52 54s23 54 52 54c30 0 53 -24 53 -54s-23 -54 -53 -54zM64 0v53h102v618h-102v53h266v-53h-103v-618h103v-53h-266z" />
    <glyph glyph-name="idieresis" unicode="&#xef;" horiz-adv-x="337" 
d="M81 608c-31 0 -55 25 -55 56c0 32 24 57 55 57s54 -25 54 -57c0 -31 -23 -56 -54 -56zM262 608c-31 0 -55 25 -55 56c0 32 24 57 55 57s54 -25 54 -57c0 -31 -23 -56 -54 -56zM61 0v51h86v385h-86v50h142v-435h88v-51h-230z" />
    <glyph glyph-name="idieresis.sc" horiz-adv-x="393" 
d="M107 679c-31 0 -55 25 -55 56c0 32 24 57 55 57s54 -25 54 -57c0 -31 -23 -56 -54 -56zM288 679c-31 0 -55 25 -55 56c0 32 24 57 55 57s54 -25 54 -57c0 -31 -23 -56 -54 -56zM333 0h-273v51h108v479h-108v51h273v-51h-108v-479h108v-51z" />
    <glyph glyph-name="Idotaccent" unicode="&#x130;" horiz-adv-x="393" 
d="M196 806c-31 0 -54 26 -54 57s23 56 54 56s55 -25 55 -56s-24 -57 -55 -57zM64 0v53h102v618h-102v53h266v-53h-103v-618h103v-53h-266z" />
    <glyph glyph-name="idotaccent.sc" horiz-adv-x="393" 
d="M197 677c-32 0 -56 26 -56 58c0 33 24 59 56 59c33 0 57 -26 57 -59c0 -32 -24 -58 -57 -58zM333 0h-273v51h108v479h-108v51h273v-51h-108v-479h108v-51z" />
    <glyph glyph-name="dotlessi" unicode="&#x131;" horiz-adv-x="337" 
d="M61 0v51h86v385h-86v50h142v-435h88v-51h-230z" />
    <glyph glyph-name="dotlessi.sc" horiz-adv-x="393" 
d="M333 0h-273v51h108v479h-108v51h273v-51h-108v-479h108v-51z" />
    <glyph glyph-name="Igrave" unicode="&#xcc;" horiz-adv-x="393" 
d="M236 791l-166 82c-22 12 -38 29 -38 42c0 27 20 42 39 42c14 0 26 -9 41 -22l137 -124zM64 0v53h102v618h-102v53h266v-53h-103v-618h103v-53h-266z" />
    <glyph glyph-name="igrave" unicode="&#xec;" horiz-adv-x="337" 
d="M213 589l-175 87c-24 12 -39 30 -39 44c0 27 19 43 39 43c15 0 28 -9 43 -22l145 -131zM61 0v51h86v385h-86v50h142v-435h88v-51h-230z" />
    <glyph glyph-name="igrave.sc" horiz-adv-x="393" 
d="M240 660l-175 87c-24 12 -39 30 -39 44c0 27 19 43 39 43c15 0 28 -9 43 -22l145 -131zM333 0h-273v51h108v479h-108v51h273v-51h-108v-479h108v-51z" />
    <glyph glyph-name="Imacron" unicode="&#x12a;" horiz-adv-x="393" 
d="M37 825v55h318v-55h-318zM64 0v53h102v618h-102v53h266v-53h-103v-618h103v-53h-266z" />
    <glyph glyph-name="imacron" unicode="&#x12b;" horiz-adv-x="337" 
d="M4 625v58h335v-58h-335zM61 0v51h86v385h-86v50h142v-435h88v-51h-230z" />
    <glyph glyph-name="imacron.sc" horiz-adv-x="393" 
d="M30 696v58h335v-58h-335zM333 0h-273v51h108v479h-108v51h273v-51h-108v-479h108v-51z" />
    <glyph glyph-name="Iogonek" unicode="&#x12e;" horiz-adv-x="393" 
d="M64 0v53h102v618h-102v53h266v-53h-103v-618h103v-53h-82c-58 -26 -96 -67 -96 -113c0 -36 20 -61 64 -61c35 0 64 10 88 23l-3 -45c-16 -11 -51 -25 -91 -25c-74 0 -111 39 -111 97c0 50 33 94 78 124h-113z" />
    <glyph glyph-name="iogonek" unicode="&#x12f;" horiz-adv-x="337" 
d="M165 637c-28 0 -52 25 -52 54s24 53 52 53s52 -24 52 -53s-24 -54 -52 -54zM61 0v51h86v385h-86v50h142v-435h88v-51h-76c-60 -27 -100 -71 -100 -120c0 -38 22 -64 67 -64c37 0 68 11 93 24l-3 -46c-16 -12 -53 -27 -95 -27c-78 0 -117 41 -117 102c0 53 34 100 82 131
h-81z" />
    <glyph glyph-name="iogonek.sc" horiz-adv-x="393" 
d="M193 -233c-78 0 -117 41 -117 102c0 53 34 100 83 131h-99v51h108v479h-108v51h273v-51h-108v-479h108v-51h-101c-61 -27 -101 -71 -101 -120c0 -38 22 -64 68 -64c36 0 67 11 92 24l-3 -46c-16 -12 -53 -27 -95 -27z" />
    <glyph glyph-name="Kcommaaccent" unicode="&#x136;" horiz-adv-x="749" 
d="M63 0v53h97v618h-97v53h255v-53h-98v-351l349 351h-104v53h260v-53h-83l-251 -253l252 -365h90v-53h-130l-256 379l-127 -128v-198h98v-53h-255zM328 -285l-12 19c60 45 78 86 79 111c-24 3 -44 22 -44 46c0 28 22 47 45 47c29 0 52 -23 52 -63c0 -49 -32 -114 -120 -160
z" />
    <glyph glyph-name="kcommaaccent" unicode="&#x137;" horiz-adv-x="602" 
d="M44 0v51h81v747h-81v51h138v-618l235 207h-109v48h268v-50h-85l-173 -150l165 -235h93v-51h-124l-175 256l-95 -83v-122h87v-51h-225zM236 -300l-12 20c63 47 82 90 83 117c-25 3 -46 23 -46 48c0 29 23 50 47 50c31 0 54 -24 54 -67c0 -52 -34 -120 -126 -168z" />
    <glyph glyph-name="kcommaaccent.sc" horiz-adv-x="680" 
d="M567 529l-202 -203l194 -275h99v-51h-134l-199 286l-100 -100v-135h103l1 -51h-269v51h107v479h-107v51h262v-51h-97v-276l276 276h-95v51h241v-52h-80zM285 -300l-12 20c63 47 82 90 83 117c-25 3 -46 23 -46 48c0 29 23 50 47 50c31 0 54 -24 54 -67
c0 -52 -34 -120 -126 -168z" />
    <glyph glyph-name="Lacute" unicode="&#x139;" horiz-adv-x="622" 
d="M169 807l-12 20l137 124c14 13 27 22 41 22c19 0 38 -15 38 -42c0 -13 -15 -30 -38 -42zM63 0v53h97v618h-97v53h260v-53h-103v-618h277v116h58v-169h-492z" />
    <glyph glyph-name="lacute" unicode="&#x13a;" horiz-adv-x="323" 
d="M141 887l-13 21l144 131c15 13 29 22 43 22c20 0 40 -16 40 -43c0 -14 -16 -32 -39 -44zM47 0v51h86v747h-86v51h143v-798h87v-51h-230z" />
    <glyph glyph-name="lacute.sc" horiz-adv-x="566" 
d="M170 660l-13 21l144 131c15 13 29 22 43 22c20 0 40 -16 40 -43c0 -14 -16 -32 -39 -44zM460 51v112h56v-163h-456v51h105v479h-105v51h272v-51h-109v-479h237z" />
    <glyph glyph-name="Lcaron" unicode="&#x13d;" horiz-adv-x="622" 
d="M377 499l-19 15c25 36 37 68 37 108c0 27 -5 42 -5 63c0 23 13 41 38 41c26 0 38 -17 38 -44c0 -62 -38 -130 -89 -183zM63 0v53h97v618h-97v53h260v-53h-103v-618h277v116h58v-169h-492z" />
    <glyph glyph-name="lcaron" unicode="&#x13e;" horiz-adv-x="323" 
d="M254 612l-20 15c26 39 38 72 38 115c0 28 -5 43 -5 66s13 42 40 42c26 0 40 -17 40 -46c0 -65 -41 -136 -93 -192zM47 0v51h86v747h-86v51h143v-798h87v-51h-230z" />
    <glyph glyph-name="lcaron.sc" horiz-adv-x="566" 
d="M460 51v112h56v-163h-456v51h105v479h-105v51h272v-51h-109v-479h237zM377 342l-20 15c26 39 38 72 38 115c0 28 -5 43 -5 66s13 42 40 42c26 0 40 -17 40 -46c0 -65 -41 -136 -93 -192z" />
    <glyph glyph-name="Lcommaaccent" unicode="&#x13b;" horiz-adv-x="622" 
d="M63 0v53h97v618h-97v53h260v-53h-103v-618h277v116h58v-169h-492zM239 -285l-12 19c60 45 78 86 79 111c-24 3 -44 22 -44 46c0 28 22 47 45 47c29 0 52 -23 52 -63c0 -49 -32 -114 -120 -160z" />
    <glyph glyph-name="lcommaaccent" unicode="&#x13c;" horiz-adv-x="323" 
d="M47 0v51h86v747h-86v51h143v-798h87v-51h-230zM88 -300l-12 20c63 47 82 90 83 117c-25 3 -46 23 -46 48c0 29 23 50 47 50c31 0 54 -24 54 -67c0 -52 -34 -120 -126 -168z" />
    <glyph glyph-name="lcommaaccent.sc" horiz-adv-x="566" 
d="M460 51v112h56v-163h-456v51h105v479h-105v51h272v-51h-109v-479h237zM214 -300l-12 20c63 47 82 90 83 117c-25 3 -46 23 -46 48c0 29 23 50 47 50c31 0 54 -24 54 -67c0 -52 -34 -120 -126 -168z" />
    <glyph glyph-name="Ldot" unicode="&#x13f;" horiz-adv-x="622" 
d="M63 0v53h97v618h-97v53h260v-53h-103v-618h277v116h58v-169h-492zM495 325c-31 0 -54 26 -54 57s23 56 54 56s55 -25 55 -56s-24 -57 -55 -57z" />
    <glyph glyph-name="ldot" unicode="&#x140;" horiz-adv-x="347" 
d="M47 0v51h86v747h-86v51h143v-798h87v-51h-230zM329 334c-32 0 -56 26 -56 58c0 33 24 59 56 59c33 0 57 -26 57 -59c0 -32 -24 -58 -57 -58z" />
    <glyph glyph-name="ldot.sc" horiz-adv-x="566" 
d="M460 51v112h56v-163h-456v51h105v479h-105v51h272v-51h-109v-479h237zM471 264c-32 0 -56 26 -56 58c0 33 24 59 56 59c33 0 57 -26 57 -59c0 -32 -24 -58 -57 -58z" />
    <glyph glyph-name="Lslash" unicode="&#x141;" horiz-adv-x="632" 
d="M73 0v53h97v245l-92 -55l-26 45l118 70v313h-97v53h260v-53h-103v-278l172 103l26 -43l-198 -119v-281h277v116h58v-169h-492z" />
    <glyph glyph-name="lslash" unicode="&#x142;" horiz-adv-x="346" 
d="M58 0v51h87v377l-108 -64l-25 43l133 79v312h-87v51h143v-329l94 55l25 -42l-119 -72v-410h88v-51h-231z" />
    <glyph glyph-name="lslash.sc" horiz-adv-x="576" 
d="M470 51v112h56v-163h-456v51h105v185l-100 -54l-24 44l124 67v237h-105v51h272v-51h-109v-205l157 86l24 -44l-181 -99v-217h237z" />
    <glyph glyph-name="Nacute" unicode="&#x143;" horiz-adv-x="860" 
d="M388 791l-12 20l137 124c14 13 27 22 41 22c19 0 38 -15 38 -42c0 -13 -15 -30 -38 -42zM684 -3l-467 624v-568h98v-53h-252v53h97v618h-97v53h150l448 -601v548h-98v53h249v-53h-94v-674h-34z" />
    <glyph glyph-name="nacute" unicode="&#x144;" horiz-adv-x="658" 
d="M295 589l-13 21l144 131c15 13 29 22 43 22c20 0 40 -16 40 -43c0 -14 -16 -32 -39 -44zM193 486v-96c45 57 119 105 189 105c65 0 107 -23 130 -62c16 -28 23 -63 23 -103v-279h82v-51h-220v51h82v271c0 29 -4 53 -13 72c-17 33 -47 49 -93 49c-70 0 -132 -45 -177 -101
v-291h81v-51h-220v51h82v385h-82v50h136z" />
    <glyph glyph-name="nacute.sc" horiz-adv-x="772" 
d="M343 660l-13 21l144 131c15 13 29 22 43 22c20 0 40 -16 40 -43c0 -14 -16 -32 -39 -44zM215 581l354 -465v414h-107v51h266v-51h-105v-533h-34l-372 490v-436h107v-51h-266v51h105v479h-105v51h157z" />
    <glyph glyph-name="Ncaron" unicode="&#x147;" horiz-adv-x="860" 
d="M560 966l26 -31l-157 -146l-157 146l26 31l131 -100zM684 -3l-467 624v-568h98v-53h-252v53h97v618h-97v53h150l448 -601v548h-98v53h249v-53h-94v-674h-34z" />
    <glyph glyph-name="ncaron" unicode="&#x148;" horiz-adv-x="658" 
d="M475 773l28 -33l-166 -153l-165 153l27 33l138 -105zM193 486v-96c45 57 119 105 189 105c65 0 107 -23 130 -62c16 -28 23 -63 23 -103v-279h82v-51h-220v51h82v271c0 29 -4 53 -13 72c-17 33 -47 49 -93 49c-70 0 -132 -45 -177 -101v-291h81v-51h-220v51h82v385h-82
v50h136z" />
    <glyph glyph-name="ncaron.sc" horiz-adv-x="772" 
d="M523 844l28 -33l-166 -153l-165 153l27 33l138 -105zM215 581l354 -465v414h-107v51h266v-51h-105v-533h-34l-372 490v-436h107v-51h-266v51h105v479h-105v51h157z" />
    <glyph glyph-name="Ncommaaccent" unicode="&#x145;" horiz-adv-x="860" 
d="M684 -3l-467 624v-568h98v-53h-252v53h97v618h-97v53h150l448 -601v548h-98v53h249v-53h-94v-674h-34zM359 -285l-12 19c60 45 78 86 79 111c-24 3 -44 22 -44 46c0 28 22 47 45 47c29 0 52 -23 52 -63c0 -49 -32 -114 -120 -160z" />
    <glyph glyph-name="ncommaaccent" unicode="&#x146;" horiz-adv-x="658" 
d="M193 486v-96c45 57 119 105 189 105c65 0 107 -23 130 -62c16 -28 23 -63 23 -103v-279h82v-51h-220v51h82v271c0 29 -4 53 -13 72c-17 33 -47 49 -93 49c-70 0 -132 -45 -177 -101v-291h81v-51h-220v51h82v385h-82v50h136zM264 -300l-12 20c63 47 82 90 83 117
c-25 3 -46 23 -46 48c0 29 23 50 47 50c31 0 54 -24 54 -67c0 -52 -34 -120 -126 -168z" />
    <glyph glyph-name="ncommaaccent.sc" horiz-adv-x="772" 
d="M215 581l354 -465v414h-107v51h266v-51h-105v-533h-34l-372 490v-436h107v-51h-266v51h105v479h-105v51h157zM311 -300l-12 20c63 47 82 90 83 117c-25 3 -46 23 -46 48c0 29 23 50 47 50c31 0 54 -24 54 -67c0 -52 -34 -120 -126 -168z" />
    <glyph glyph-name="Ntilde" unicode="&#xd1;" horiz-adv-x="860" 
d="M507 792c-42 0 -69 20 -96 43c-24 20 -37 28 -53 28c-26 0 -43 -27 -48 -64l-47 9c2 62 45 112 92 112c42 0 69 -20 96 -43c25 -20 37 -28 53 -28c27 0 43 27 49 64l47 -9c-3 -62 -46 -112 -93 -112zM684 -3l-467 624v-568h98v-53h-252v53h97v618h-97v53h150l448 -601
v548h-98v53h249v-53h-94v-674h-34z" />
    <glyph glyph-name="ntilde" unicode="&#xf1;" horiz-adv-x="658" 
d="M419 590c-44 0 -72 22 -100 45c-26 21 -40 30 -57 30c-28 0 -45 -28 -51 -68l-49 10c3 65 47 117 97 117c44 0 73 -21 101 -44c26 -22 39 -30 56 -30c29 0 46 28 52 68l49 -10c-3 -65 -48 -118 -98 -118zM193 486v-96c45 57 119 105 189 105c65 0 107 -23 130 -62
c16 -28 23 -63 23 -103v-279h82v-51h-220v51h82v271c0 29 -4 53 -13 72c-17 33 -47 49 -93 49c-70 0 -132 -45 -177 -101v-291h81v-51h-220v51h82v385h-82v50h136z" />
    <glyph glyph-name="ntilde.sc" horiz-adv-x="772" 
d="M468 661c-44 0 -72 22 -100 45c-26 21 -40 30 -57 30c-28 0 -45 -28 -51 -68l-49 10c3 65 47 117 97 117c44 0 73 -21 101 -44c26 -22 39 -30 56 -30c29 0 46 28 52 68l49 -10c-3 -65 -48 -118 -98 -118zM215 581l354 -465v414h-107v51h266v-51h-105v-533h-34l-372 490
v-436h107v-51h-266v51h105v479h-105v51h157z" />
    <glyph glyph-name="Oacute" unicode="&#xd3;" horiz-adv-x="871" 
d="M395 791l-12 20l137 124c14 13 27 22 41 22c19 0 38 -15 38 -42c0 -13 -15 -30 -38 -42zM434 -13c-207 0 -362 165 -362 374c0 212 156 376 366 376c206 0 361 -165 361 -374c0 -212 -156 -376 -365 -376zM436 42c178 0 302 140 302 319s-124 321 -302 321
s-303 -141 -303 -319c0 -179 125 -321 303 -321z" />
    <glyph glyph-name="oacute" unicode="&#xf3;" horiz-adv-x="616" 
d="M266 589l-13 21l144 131c15 13 29 22 43 22c20 0 40 -16 40 -43c0 -14 -16 -32 -39 -44zM308 -9c-147 0 -247 112 -247 252s100 252 247 252c146 0 246 -111 246 -252c0 -140 -100 -252 -246 -252zM308 42c110 0 187 83 187 201c0 117 -77 202 -187 202
s-187 -85 -187 -202c0 -118 77 -201 187 -201z" />
    <glyph glyph-name="oacute.sc" horiz-adv-x="719" 
d="M317 660l-13 21l144 131c15 13 29 22 43 22c20 0 40 -16 40 -43c0 -14 -16 -32 -39 -44zM359 593c175 0 296 -133 296 -301c0 -169 -121 -302 -297 -302c-174 0 -294 133 -294 302c0 168 120 301 295 301zM358 43c140 0 237 103 237 249c0 143 -97 248 -236 248
c-138 0 -236 -104 -236 -248c0 -146 98 -249 235 -249z" />
    <glyph glyph-name="Obreve" unicode="&#x14e;" horiz-adv-x="871" 
d="M435 791c-77 0 -136 57 -161 129l42 20c21 -56 69 -88 119 -88c55 0 99 38 119 88l42 -20c-25 -72 -84 -129 -161 -129zM434 -13c-207 0 -362 165 -362 374c0 212 156 376 366 376c206 0 361 -165 361 -374c0 -212 -156 -376 -365 -376zM436 42c178 0 302 140 302 319
s-124 321 -302 321s-303 -141 -303 -319c0 -179 125 -321 303 -321z" />
    <glyph glyph-name="obreve" unicode="&#x14f;" horiz-adv-x="616" 
d="M308 589c-81 0 -143 60 -169 136l44 21c22 -59 72 -94 125 -94c59 0 105 40 126 94l44 -21c-27 -76 -89 -136 -170 -136zM308 -9c-147 0 -247 112 -247 252s100 252 247 252c146 0 246 -111 246 -252c0 -140 -100 -252 -246 -252zM308 42c110 0 187 83 187 201
c0 117 -77 202 -187 202s-187 -85 -187 -202c0 -118 77 -201 187 -201z" />
    <glyph glyph-name="obreve.sc" horiz-adv-x="719" 
d="M359 660c-81 0 -143 60 -169 136l44 21c22 -59 72 -94 125 -94c59 0 105 40 126 94l44 -21c-27 -76 -89 -136 -170 -136zM359 593c175 0 296 -133 296 -301c0 -169 -121 -302 -297 -302c-174 0 -294 133 -294 302c0 168 120 301 295 301zM358 43c140 0 237 103 237 249
c0 143 -97 248 -236 248c-138 0 -236 -104 -236 -248c0 -146 98 -249 235 -249z" />
    <glyph glyph-name="Ocircumflex" unicode="&#xd4;" horiz-adv-x="871" 
d="M304 784l-26 32l157 146l157 -146l-26 -32l-131 100zM434 -13c-207 0 -362 165 -362 374c0 212 156 376 366 376c206 0 361 -165 361 -374c0 -212 -156 -376 -365 -376zM436 42c178 0 302 140 302 319s-124 321 -302 321s-303 -141 -303 -319c0 -179 125 -321 303 -321z
" />
    <glyph glyph-name="ocircumflex" unicode="&#xf4;" horiz-adv-x="616" 
d="M170 582l-27 33l165 154l166 -154l-28 -33l-138 105zM308 -9c-147 0 -247 112 -247 252s100 252 247 252c146 0 246 -111 246 -252c0 -140 -100 -252 -246 -252zM308 42c110 0 187 83 187 201c0 117 -77 202 -187 202s-187 -85 -187 -202c0 -118 77 -201 187 -201z" />
    <glyph glyph-name="ocircumflex.sc" horiz-adv-x="719" 
d="M221 653l-27 33l165 154l166 -154l-28 -33l-138 105zM359 593c175 0 296 -133 296 -301c0 -169 -121 -302 -297 -302c-174 0 -294 133 -294 302c0 168 120 301 295 301zM358 43c140 0 237 103 237 249c0 143 -97 248 -236 248c-138 0 -236 -104 -236 -248
c0 -146 98 -249 235 -249z" />
    <glyph glyph-name="Odieresis" unicode="&#xd6;" horiz-adv-x="871" 
d="M349 809c-30 0 -52 24 -52 54s22 54 52 54s52 -24 52 -54s-22 -54 -52 -54zM521 809c-29 0 -52 24 -52 54s23 54 52 54c30 0 53 -24 53 -54s-23 -54 -53 -54zM434 -13c-207 0 -362 165 -362 374c0 212 156 376 366 376c206 0 361 -165 361 -374
c0 -212 -156 -376 -365 -376zM436 42c178 0 302 140 302 319s-124 321 -302 321s-303 -141 -303 -319c0 -179 125 -321 303 -321z" />
    <glyph glyph-name="odieresis" unicode="&#xf6;" horiz-adv-x="616" 
d="M218 608c-31 0 -55 25 -55 56c0 32 24 57 55 57s54 -25 54 -57c0 -31 -23 -56 -54 -56zM399 608c-31 0 -55 25 -55 56c0 32 24 57 55 57s54 -25 54 -57c0 -31 -23 -56 -54 -56zM308 -9c-147 0 -247 112 -247 252s100 252 247 252c146 0 246 -111 246 -252
c0 -140 -100 -252 -246 -252zM308 42c110 0 187 83 187 201c0 117 -77 202 -187 202s-187 -85 -187 -202c0 -118 77 -201 187 -201z" />
    <glyph glyph-name="odieresis.sc" horiz-adv-x="719" 
d="M269 679c-31 0 -55 25 -55 56c0 32 24 57 55 57s54 -25 54 -57c0 -31 -23 -56 -54 -56zM450 679c-31 0 -55 25 -55 56c0 32 24 57 55 57s54 -25 54 -57c0 -31 -23 -56 -54 -56zM359 593c175 0 296 -133 296 -301c0 -169 -121 -302 -297 -302c-174 0 -294 133 -294 302
c0 168 120 301 295 301zM358 43c140 0 237 103 237 249c0 143 -97 248 -236 248c-138 0 -236 -104 -236 -248c0 -146 98 -249 235 -249z" />
    <glyph glyph-name="OE" unicode="&#x152;" horiz-adv-x="1034" 
d="M467 53h65v618h-74c-210 0 -325 -131 -325 -318c0 -182 137 -300 334 -300zM466 0c-229 0 -394 141 -394 355c0 216 155 369 391 369h489v-164h-58v111h-302v-275h247v-53h-247v-290h302v111h58v-164h-486z" />
    <glyph glyph-name="oe" unicode="&#x153;" horiz-adv-x="990" 
d="M747 43c67 0 112 21 169 54l-6 -57c-49 -32 -111 -49 -170 -49c-109 0 -185 52 -221 134c-35 -79 -109 -134 -211 -134c-147 0 -247 112 -247 252s100 252 247 252c102 0 177 -54 211 -135c33 78 101 135 201 135c140 0 217 -109 217 -228c0 -16 -1 -26 -4 -36h-387
c8 -125 83 -188 201 -188zM715 445c-86 0 -157 -65 -168 -165h332c-6 96 -60 165 -164 165zM308 42c110 0 187 83 187 201c0 117 -77 202 -187 202s-187 -85 -187 -202c0 -118 77 -201 187 -201z" />
    <glyph glyph-name="oe.sc" horiz-adv-x="889" 
d="M393 581h420v-158h-55v107h-247v-210h201v-52h-201v-217h247v107h55v-158h-420c-200 0 -322 120 -322 296c0 174 129 285 322 285zM453 51v479h-60c-157 0 -264 -91 -264 -233c0 -144 91 -246 258 -246h66z" />
    <glyph glyph-name="Ograve" unicode="&#xd2;" horiz-adv-x="871" 
d="M476 791l-166 82c-22 12 -38 29 -38 42c0 27 20 42 39 42c14 0 26 -9 41 -22l137 -124zM434 -13c-207 0 -362 165 -362 374c0 212 156 376 366 376c206 0 361 -165 361 -374c0 -212 -156 -376 -365 -376zM436 42c178 0 302 140 302 319s-124 321 -302 321
s-303 -141 -303 -319c0 -179 125 -321 303 -321z" />
    <glyph glyph-name="ograve" unicode="&#xf2;" horiz-adv-x="616" 
d="M350 589l-175 87c-24 12 -39 30 -39 44c0 27 19 43 39 43c15 0 28 -9 43 -22l145 -131zM308 -9c-147 0 -247 112 -247 252s100 252 247 252c146 0 246 -111 246 -252c0 -140 -100 -252 -246 -252zM308 42c110 0 187 83 187 201c0 117 -77 202 -187 202
s-187 -85 -187 -202c0 -118 77 -201 187 -201z" />
    <glyph glyph-name="ograve.sc" horiz-adv-x="719" 
d="M402 660l-175 87c-24 12 -39 30 -39 44c0 27 19 43 39 43c15 0 28 -9 43 -22l145 -131zM359 593c175 0 296 -133 296 -301c0 -169 -121 -302 -297 -302c-174 0 -294 133 -294 302c0 168 120 301 295 301zM358 43c140 0 237 103 237 249c0 143 -97 248 -236 248
c-138 0 -236 -104 -236 -248c0 -146 98 -249 235 -249z" />
    <glyph glyph-name="Ohungarumlaut" unicode="&#x150;" horiz-adv-x="871" 
d="M306 793l-13 20l138 125c14 13 27 21 41 21c19 0 36 -13 36 -38c0 -13 -15 -30 -38 -42zM501 798l-11 22l147 115c15 11 28 18 40 18c22 0 35 -16 35 -37c0 -17 -14 -33 -41 -43zM434 -13c-207 0 -362 165 -362 374c0 212 156 376 366 376c206 0 361 -165 361 -374
c0 -212 -156 -376 -365 -376zM436 42c178 0 302 140 302 319s-124 321 -302 321s-303 -141 -303 -319c0 -179 125 -321 303 -321z" />
    <glyph glyph-name="ohungarumlaut" unicode="&#x151;" horiz-adv-x="616" 
d="M172 591l-14 21l145 131c15 14 29 23 43 23c20 0 38 -14 38 -40c0 -14 -16 -32 -39 -44zM377 597l-11 22l154 121c16 12 29 19 42 19c23 0 36 -17 36 -39c0 -17 -14 -34 -42 -45zM308 -9c-147 0 -247 112 -247 252s100 252 247 252c146 0 246 -111 246 -252
c0 -140 -100 -252 -246 -252zM308 42c110 0 187 83 187 201c0 117 -77 202 -187 202s-187 -85 -187 -202c0 -118 77 -201 187 -201z" />
    <glyph glyph-name="ohungarumlaut.sc" horiz-adv-x="719" 
d="M225 662l-14 21l145 131c15 14 29 23 43 23c20 0 38 -14 38 -40c0 -14 -16 -32 -39 -44zM430 668l-11 22l154 121c16 12 29 19 42 19c23 0 36 -17 36 -39c0 -17 -14 -34 -42 -45zM359 593c175 0 296 -133 296 -301c0 -169 -121 -302 -297 -302c-174 0 -294 133 -294 302
c0 168 120 301 295 301zM358 43c140 0 237 103 237 249c0 143 -97 248 -236 248c-138 0 -236 -104 -236 -248c0 -146 98 -249 235 -249z" />
    <glyph glyph-name="Omacron" unicode="&#x14c;" horiz-adv-x="871" 
d="M276 825v55h318v-55h-318zM434 -13c-207 0 -362 165 -362 374c0 212 156 376 366 376c206 0 361 -165 361 -374c0 -212 -156 -376 -365 -376zM436 42c178 0 302 140 302 319s-124 321 -302 321s-303 -141 -303 -319c0 -179 125 -321 303 -321z" />
    <glyph glyph-name="omacron" unicode="&#x14d;" horiz-adv-x="616" 
d="M141 625v58h335v-58h-335zM308 -9c-147 0 -247 112 -247 252s100 252 247 252c146 0 246 -111 246 -252c0 -140 -100 -252 -246 -252zM308 42c110 0 187 83 187 201c0 117 -77 202 -187 202s-187 -85 -187 -202c0 -118 77 -201 187 -201z" />
    <glyph glyph-name="omacron.sc" horiz-adv-x="719" 
d="M192 696v58h335v-58h-335zM359 593c175 0 296 -133 296 -301c0 -169 -121 -302 -297 -302c-174 0 -294 133 -294 302c0 168 120 301 295 301zM358 43c140 0 237 103 237 249c0 143 -97 248 -236 248c-138 0 -236 -104 -236 -248c0 -146 98 -249 235 -249z" />
    <glyph glyph-name="Oslash" unicode="&#xd8;" horiz-adv-x="871" 
d="M133 363c0 -89 28 -167 78 -224l409 483c-49 38 -112 60 -184 60c-178 0 -303 -141 -303 -319zM436 42c178 0 302 140 302 319c0 92 -30 173 -84 230l-412 -483c51 -42 116 -66 194 -66zM434 -13c-88 0 -166 29 -227 79l-91 -107l-38 33l94 107c-63 67 -100 159 -100 262
c0 212 156 376 366 376c82 0 157 -27 216 -72l88 101l38 -33l-88 -101c67 -67 107 -163 107 -269c0 -212 -156 -376 -365 -376z" />
    <glyph glyph-name="oslash" unicode="&#xf8;" horiz-adv-x="616" 
d="M121 243c0 -54 16 -100 43 -135l256 300c-30 24 -69 37 -112 37c-110 0 -187 -85 -187 -202zM308 42c110 0 187 83 187 201c0 52 -16 98 -43 133l-255 -299c30 -23 68 -35 111 -35zM308 -9c-55 0 -104 17 -144 47l-58 -69l-39 34l59 69c-41 45 -65 106 -65 171
c0 140 100 252 247 252c55 0 105 -18 145 -48l58 68l39 -33l-59 -70c39 -45 63 -105 63 -169c0 -140 -100 -252 -246 -252z" />
    <glyph glyph-name="oslash.sc" horiz-adv-x="725" 
d="M127 292c0 -68 20 -127 56 -170l322 372c-39 29 -87 46 -142 46c-139 0 -236 -104 -236 -248zM361 43c140 0 237 103 237 249c0 68 -22 128 -60 171l-323 -372c39 -31 89 -48 146 -48zM361 -10c-71 0 -133 22 -181 60l-74 -86l-38 33l76 86c-49 54 -77 127 -77 209
c0 168 121 301 296 301c69 0 129 -21 177 -56l73 84l39 -34l-75 -84c51 -54 81 -128 81 -211c0 -169 -120 -302 -297 -302z" />
    <glyph glyph-name="Oslashacute" unicode="&#x1fe;" horiz-adv-x="871" 
d="M395 791l-12 20l137 124c14 13 27 22 41 22c19 0 38 -15 38 -42c0 -13 -15 -30 -38 -42zM133 363c0 -89 28 -167 78 -224l409 483c-49 38 -112 60 -184 60c-178 0 -303 -141 -303 -319zM436 42c178 0 302 140 302 319c0 92 -30 173 -84 230l-412 -483
c51 -42 116 -66 194 -66zM434 -13c-88 0 -166 29 -227 79l-91 -107l-38 33l94 107c-63 67 -100 159 -100 262c0 212 156 376 366 376c82 0 157 -27 216 -72l88 101l38 -33l-88 -101c67 -67 107 -163 107 -269c0 -212 -156 -376 -365 -376z" />
    <glyph glyph-name="oslashacute" unicode="&#x1ff;" horiz-adv-x="616" 
d="M266 589l-13 21l144 131c15 13 29 22 43 22c20 0 40 -16 40 -43c0 -14 -16 -32 -39 -44zM121 243c0 -54 16 -100 43 -135l256 300c-30 24 -69 37 -112 37c-110 0 -187 -85 -187 -202zM308 42c110 0 187 83 187 201c0 52 -16 98 -43 133l-255 -299c30 -23 68 -35 111 -35z
M308 -9c-55 0 -104 17 -144 47l-58 -69l-39 34l59 69c-41 45 -65 106 -65 171c0 140 100 252 247 252c55 0 105 -18 145 -48l58 68l39 -33l-59 -70c39 -45 63 -105 63 -169c0 -140 -100 -252 -246 -252z" />
    <glyph glyph-name="oslashacute.sc" horiz-adv-x="725" 
d="M320 660l-13 21l144 131c15 13 29 22 43 22c20 0 40 -16 40 -43c0 -14 -16 -32 -39 -44zM127 292c0 -68 20 -127 56 -170l322 372c-39 29 -87 46 -142 46c-139 0 -236 -104 -236 -248zM361 43c140 0 237 103 237 249c0 68 -22 128 -60 171l-323 -372
c39 -31 89 -48 146 -48zM361 -10c-71 0 -133 22 -181 60l-74 -86l-38 33l76 86c-49 54 -77 127 -77 209c0 168 121 301 296 301c69 0 129 -21 177 -56l73 84l39 -34l-75 -84c51 -54 81 -128 81 -211c0 -169 -120 -302 -297 -302z" />
    <glyph glyph-name="Otilde" unicode="&#xd5;" horiz-adv-x="871" 
d="M513 792c-42 0 -69 20 -96 43c-24 20 -37 28 -53 28c-26 0 -43 -27 -48 -64l-47 9c2 62 45 112 92 112c42 0 69 -20 96 -43c25 -20 37 -28 53 -28c27 0 43 27 49 64l47 -9c-3 -62 -46 -112 -93 -112zM434 -13c-207 0 -362 165 -362 374c0 212 156 376 366 376
c206 0 361 -165 361 -374c0 -212 -156 -376 -365 -376zM436 42c178 0 302 140 302 319s-124 321 -302 321s-303 -141 -303 -319c0 -179 125 -321 303 -321z" />
    <glyph glyph-name="otilde" unicode="&#xf5;" horiz-adv-x="616" 
d="M390 590c-44 0 -72 22 -100 45c-26 21 -40 30 -57 30c-28 0 -45 -28 -51 -68l-49 10c3 65 47 117 97 117c44 0 73 -21 101 -44c26 -22 39 -30 56 -30c29 0 46 28 52 68l49 -10c-3 -65 -48 -118 -98 -118zM308 -9c-147 0 -247 112 -247 252s100 252 247 252
c146 0 246 -111 246 -252c0 -140 -100 -252 -246 -252zM308 42c110 0 187 83 187 201c0 117 -77 202 -187 202s-187 -85 -187 -202c0 -118 77 -201 187 -201z" />
    <glyph glyph-name="otilde.sc" horiz-adv-x="719" 
d="M441 661c-44 0 -72 22 -100 45c-26 21 -40 30 -57 30c-28 0 -45 -28 -51 -68l-49 10c3 65 47 117 97 117c44 0 73 -21 101 -44c26 -22 39 -30 56 -30c29 0 46 28 52 68l49 -10c-3 -65 -48 -118 -98 -118zM359 593c175 0 296 -133 296 -301c0 -169 -121 -302 -297 -302
c-174 0 -294 133 -294 302c0 168 120 301 295 301zM358 43c140 0 237 103 237 249c0 143 -97 248 -236 248c-138 0 -236 -104 -236 -248c0 -146 98 -249 235 -249z" />
    <glyph glyph-name="Racute" unicode="&#x154;" horiz-adv-x="689" 
d="M306 791l-12 20l137 124c14 13 27 22 41 22c19 0 38 -15 38 -42c0 -13 -15 -30 -38 -42zM319 358c119 0 208 54 208 159c0 99 -77 154 -196 154h-111v-311c27 -1 65 -2 99 -2zM63 0v53h97v618h-97v53h271c157 0 253 -84 253 -206c0 -101 -67 -171 -165 -199l171 -266h89
v-53h-130l-193 307c-14 -1 -28 -2 -42 -2c-32 0 -72 1 -97 2v-254h98v-53h-255z" />
    <glyph glyph-name="racute" unicode="&#x155;" horiz-adv-x="421" 
d="M188 589l-13 21l144 131c15 13 29 22 43 22c20 0 40 -16 40 -43c0 -14 -16 -32 -39 -44zM338 495c42 0 65 -25 65 -54c0 -25 -20 -47 -46 -47c-25 0 -44 18 -50 39c-39 -10 -85 -56 -111 -109v-273h95v-51h-234v51h82v385h-82v50h136v-109c35 66 97 118 145 118z" />
    <glyph glyph-name="racute.sc" horiz-adv-x="632" 
d="M275 660l-13 21l144 131c15 13 29 22 43 22c20 0 40 -16 40 -43c0 -14 -16 -32 -39 -44zM315 530h-92v-239c28 -1 59 -1 87 -1c96 0 164 43 164 123c0 75 -62 117 -159 117zM223 240v-189h107v-51h-270v51h105v479h-105v51h257c132 0 215 -64 215 -167
c0 -80 -54 -138 -131 -161l127 -202h91v-51h-130l-146 240c-18 -1 -31 -1 -41 -1c-22 0 -57 0 -79 1z" />
    <glyph glyph-name="Rcaron" unicode="&#x158;" horiz-adv-x="689" 
d="M477 966l26 -31l-157 -146l-157 146l26 31l131 -100zM319 358c119 0 208 54 208 159c0 99 -77 154 -196 154h-111v-311c27 -1 65 -2 99 -2zM63 0v53h97v618h-97v53h271c157 0 253 -84 253 -206c0 -101 -67 -171 -165 -199l171 -266h89v-53h-130l-193 307
c-14 -1 -28 -2 -42 -2c-32 0 -72 1 -97 2v-254h98v-53h-255z" />
    <glyph glyph-name="rcaron" unicode="&#x159;" horiz-adv-x="421" 
d="M367 773l28 -33l-166 -153l-165 153l27 33l138 -105zM338 495c42 0 65 -25 65 -54c0 -25 -20 -47 -46 -47c-25 0 -44 18 -50 39c-39 -10 -85 -56 -111 -109v-273h95v-51h-234v51h82v385h-82v50h136v-109c35 66 97 118 145 118z" />
    <glyph glyph-name="rcaron.sc" horiz-adv-x="632" 
d="M455 844l28 -33l-166 -153l-165 153l27 33l138 -105zM315 530h-92v-239c28 -1 59 -1 87 -1c96 0 164 43 164 123c0 75 -62 117 -159 117zM223 240v-189h107v-51h-270v51h105v479h-105v51h257c132 0 215 -64 215 -167c0 -80 -54 -138 -131 -161l127 -202h91v-51h-130
l-146 240c-18 -1 -31 -1 -41 -1c-22 0 -57 0 -79 1z" />
    <glyph glyph-name="Rcommaaccent" unicode="&#x156;" horiz-adv-x="689" 
d="M319 358c119 0 208 54 208 159c0 99 -77 154 -196 154h-111v-311c27 -1 65 -2 99 -2zM63 0v53h97v618h-97v53h271c157 0 253 -84 253 -206c0 -101 -67 -171 -165 -199l171 -266h89v-53h-130l-193 307c-14 -1 -28 -2 -42 -2c-32 0 -72 1 -97 2v-254h98v-53h-255zM277 -285
l-12 19c60 45 78 86 79 111c-24 3 -44 22 -44 46c0 28 22 47 45 47c29 0 52 -23 52 -63c0 -49 -32 -114 -120 -160z" />
    <glyph glyph-name="rcommaaccent" unicode="&#x157;" horiz-adv-x="421" 
d="M338 495c42 0 65 -25 65 -54c0 -25 -20 -47 -46 -47c-25 0 -44 18 -50 39c-39 -10 -85 -56 -111 -109v-273h95v-51h-234v51h82v385h-82v50h136v-109c35 66 97 118 145 118zM90 -300l-12 20c63 47 82 90 83 117c-25 3 -46 23 -46 48c0 29 23 50 47 50c31 0 54 -24 54 -67
c0 -52 -34 -120 -126 -168z" />
    <glyph glyph-name="rcommaaccent.sc" horiz-adv-x="632" 
d="M315 530h-92v-239c28 -1 59 -1 87 -1c96 0 164 43 164 123c0 75 -62 117 -159 117zM223 240v-189h107v-51h-270v51h105v479h-105v51h257c132 0 215 -64 215 -167c0 -80 -54 -138 -131 -161l127 -202h91v-51h-130l-146 240c-18 -1 -31 -1 -41 -1c-22 0 -57 0 -79 1z
M260 -300l-12 20c63 47 82 90 83 117c-25 3 -46 23 -46 48c0 29 23 50 47 50c31 0 54 -24 54 -67c0 -52 -34 -120 -126 -168z" />
    <glyph glyph-name="Sacute" unicode="&#x15a;" horiz-adv-x="611" 
d="M276 791l-12 20l137 124c14 13 27 22 41 22c19 0 38 -15 38 -42c0 -13 -15 -30 -38 -42zM305 -12c-140 0 -231 79 -231 142c0 36 22 60 49 60s46 -19 46 -44c0 -21 -10 -37 -22 -50c24 -28 84 -54 160 -54c105 0 168 57 168 142c0 83 -74 120 -160 154
c-120 47 -214 93 -214 213c0 109 85 186 215 186c112 0 204 -67 204 -137c0 -35 -22 -54 -48 -54c-28 0 -48 20 -48 47c0 17 10 34 20 44c-20 27 -83 46 -130 46c-94 0 -154 -54 -154 -127c0 -85 73 -120 172 -160c113 -45 202 -90 202 -207c0 -123 -98 -201 -229 -201z" />
    <glyph glyph-name="sacute" unicode="&#x15b;" horiz-adv-x="505" 
d="M211 589l-13 21l144 131c15 13 29 22 43 22c20 0 40 -16 40 -43c0 -14 -16 -32 -39 -44zM424 395c0 -27 -17 -45 -41 -45s-45 18 -45 44c0 8 2 20 9 30c-18 14 -53 23 -97 23c-75 0 -119 -41 -119 -83c0 -50 52 -65 135 -86c89 -22 179 -49 179 -147
c0 -87 -87 -140 -189 -140c-70 0 -137 21 -170 55c-16 16 -26 35 -26 58c0 25 17 46 42 46c28 0 43 -19 43 -42c0 -12 -4 -22 -11 -33c14 -16 60 -36 121 -36c77 0 135 35 135 89c0 55 -59 74 -127 91c-108 26 -189 51 -189 143c0 73 72 133 178 133c68 0 120 -19 148 -47
c16 -16 24 -33 24 -53z" />
    <glyph glyph-name="sacute.sc" horiz-adv-x="537" 
d="M238 660l-13 21l144 131c15 13 29 22 43 22c20 0 40 -16 40 -43c0 -14 -16 -32 -39 -44zM371 473c0 14 7 30 15 38c-14 17 -62 33 -110 33c-81 0 -133 -41 -133 -99c0 -65 71 -92 144 -121c95 -35 186 -70 186 -170c0 -102 -89 -164 -206 -164c-123 0 -203 63 -203 119
c0 33 18 54 45 54c26 0 44 -17 44 -42c0 -16 -7 -30 -15 -40c18 -20 64 -41 130 -41c92 0 147 44 147 111c0 63 -74 91 -141 117c-100 38 -190 71 -190 172c0 91 77 153 195 153c102 0 182 -52 182 -115c0 -29 -21 -49 -43 -49c-29 0 -47 19 -47 44z" />
    <glyph glyph-name="Scaron" unicode="&#x160;" horiz-adv-x="611" 
d="M447 966l26 -31l-157 -146l-157 146l26 31l131 -100zM305 -12c-140 0 -231 79 -231 142c0 36 22 60 49 60s46 -19 46 -44c0 -21 -10 -37 -22 -50c24 -28 84 -54 160 -54c105 0 168 57 168 142c0 83 -74 120 -160 154c-120 47 -214 93 -214 213c0 109 85 186 215 186
c112 0 204 -67 204 -137c0 -35 -22 -54 -48 -54c-28 0 -48 20 -48 47c0 17 10 34 20 44c-20 27 -83 46 -130 46c-94 0 -154 -54 -154 -127c0 -85 73 -120 172 -160c113 -45 202 -90 202 -207c0 -123 -98 -201 -229 -201z" />
    <glyph glyph-name="scaron" unicode="&#x161;" horiz-adv-x="505" 
d="M391 773l28 -33l-166 -153l-165 153l27 33l138 -105zM424 395c0 -27 -17 -45 -41 -45s-45 18 -45 44c0 8 2 20 9 30c-18 14 -53 23 -97 23c-75 0 -119 -41 -119 -83c0 -50 52 -65 135 -86c89 -22 179 -49 179 -147c0 -87 -87 -140 -189 -140c-70 0 -137 21 -170 55
c-16 16 -26 35 -26 58c0 25 17 46 42 46c28 0 43 -19 43 -42c0 -12 -4 -22 -11 -33c14 -16 60 -36 121 -36c77 0 135 35 135 89c0 55 -59 74 -127 91c-108 26 -189 51 -189 143c0 73 72 133 178 133c68 0 120 -19 148 -47c16 -16 24 -33 24 -53z" />
    <glyph glyph-name="scaron.sc" horiz-adv-x="537" 
d="M418 844l28 -33l-166 -153l-165 153l27 33l138 -105zM371 473c0 14 7 30 15 38c-14 17 -62 33 -110 33c-81 0 -133 -41 -133 -99c0 -65 71 -92 144 -121c95 -35 186 -70 186 -170c0 -102 -89 -164 -206 -164c-123 0 -203 63 -203 119c0 33 18 54 45 54
c26 0 44 -17 44 -42c0 -16 -7 -30 -15 -40c18 -20 64 -41 130 -41c92 0 147 44 147 111c0 63 -74 91 -141 117c-100 38 -190 71 -190 172c0 91 77 153 195 153c102 0 182 -52 182 -115c0 -29 -21 -49 -43 -49c-29 0 -47 19 -47 44z" />
    <glyph glyph-name="Scedilla" unicode="&#x15e;" horiz-adv-x="611" 
d="M306 -219c-39 0 -81 11 -115 28l15 34c24 -11 67 -21 95 -21c31 0 50 14 50 36c0 23 -21 37 -57 37c-6 0 -20 -2 -23 -3l-18 13l23 85c-124 10 -202 81 -202 140c0 36 22 60 49 60s46 -19 46 -44c0 -21 -10 -37 -22 -50c24 -28 84 -54 160 -54c105 0 168 57 168 142
c0 83 -74 120 -160 154c-120 47 -214 93 -214 213c0 109 85 186 215 186c112 0 204 -67 204 -137c0 -35 -22 -54 -48 -54c-28 0 -48 20 -48 47c0 17 10 34 20 44c-20 27 -83 46 -130 46c-94 0 -154 -54 -154 -127c0 -85 73 -120 172 -160c113 -45 202 -90 202 -207
c0 -121 -94 -198 -221 -201l-5 -44c67 -1 97 -38 97 -81c0 -45 -33 -82 -99 -82z" />
    <glyph glyph-name="scedilla" unicode="&#x15f;" horiz-adv-x="505" 
d="M261 -231c-41 0 -86 11 -121 30l15 35c26 -12 71 -22 100 -22c34 0 54 15 54 38c0 25 -23 39 -60 40c-7 0 -21 -3 -25 -4l-19 13l25 93c-60 5 -115 24 -144 54c-16 16 -26 35 -26 58c0 25 17 46 42 46c28 0 43 -19 43 -42c0 -12 -4 -22 -11 -33c14 -16 60 -36 121 -36
c77 0 135 35 135 89c0 55 -59 74 -127 91c-108 26 -189 51 -189 143c0 73 72 133 178 133c68 0 120 -19 148 -47c16 -16 24 -33 24 -53c0 -27 -17 -45 -41 -45s-45 18 -45 44c0 8 2 20 9 30c-18 14 -53 23 -97 23c-75 0 -119 -41 -119 -83c0 -50 52 -65 135 -86
c89 -22 179 -49 179 -147c0 -83 -80 -135 -176 -139l-6 -52c70 -1 102 -39 102 -85c0 -47 -34 -86 -104 -86z" />
    <glyph glyph-name="scedilla.sc" horiz-adv-x="550" 
d="M272 -231c-41 0 -86 11 -121 30l15 35c26 -12 71 -22 100 -22c34 0 54 15 54 38c0 25 -23 39 -60 40c-7 0 -21 -3 -25 -4l-19 13l25 93c-105 9 -171 66 -171 117c0 33 18 54 45 54c26 0 44 -17 44 -42c0 -16 -7 -30 -15 -40c18 -20 64 -41 130 -41c92 0 147 44 147 111
c0 63 -74 91 -141 117c-100 38 -190 71 -190 172c0 91 77 153 195 153c102 0 182 -52 182 -115c0 -29 -21 -49 -43 -49c-29 0 -47 19 -47 44c0 14 7 30 15 38c-14 17 -62 33 -110 33c-81 0 -133 -41 -133 -99c0 -65 71 -92 144 -121c95 -35 186 -70 186 -170
s-86 -161 -199 -164l-6 -50c70 -1 102 -39 102 -85c0 -47 -34 -86 -104 -86z" />
    <glyph glyph-name="Scommaaccent" unicode="&#x218;" horiz-adv-x="611" 
d="M305 -12c-140 0 -231 79 -231 142c0 36 22 60 49 60s46 -19 46 -44c0 -21 -10 -37 -22 -50c24 -28 84 -54 160 -54c105 0 168 57 168 142c0 83 -74 120 -160 154c-120 47 -214 93 -214 213c0 109 85 186 215 186c112 0 204 -67 204 -137c0 -35 -22 -54 -48 -54
c-28 0 -48 20 -48 47c0 17 10 34 20 44c-20 27 -83 46 -130 46c-94 0 -154 -54 -154 -127c0 -85 73 -120 172 -160c113 -45 202 -90 202 -207c0 -123 -98 -201 -229 -201zM247 -285l-12 19c60 45 78 86 79 111c-24 3 -44 22 -44 46c0 28 22 47 45 47c29 0 52 -23 52 -63
c0 -49 -32 -114 -120 -160z" />
    <glyph glyph-name="scommaaccent" unicode="&#x219;" horiz-adv-x="505" 
d="M424 395c0 -27 -17 -45 -41 -45s-45 18 -45 44c0 8 2 20 9 30c-18 14 -53 23 -97 23c-75 0 -119 -41 -119 -83c0 -50 52 -65 135 -86c89 -22 179 -49 179 -147c0 -87 -87 -140 -189 -140c-70 0 -137 21 -170 55c-16 16 -26 35 -26 58c0 25 17 46 42 46
c28 0 43 -19 43 -42c0 -12 -4 -22 -11 -33c14 -16 60 -36 121 -36c77 0 135 35 135 89c0 55 -59 74 -127 91c-108 26 -189 51 -189 143c0 73 72 133 178 133c68 0 120 -19 148 -47c16 -16 24 -33 24 -53zM180 -300l-12 20c63 47 82 90 83 117c-25 3 -46 23 -46 48
c0 29 23 50 47 50c31 0 54 -24 54 -67c0 -52 -34 -120 -126 -168z" />
    <glyph glyph-name="scommaaccent.sc" horiz-adv-x="537" 
d="M371 473c0 14 7 30 15 38c-14 17 -62 33 -110 33c-81 0 -133 -41 -133 -99c0 -65 71 -92 144 -121c95 -35 186 -70 186 -170c0 -102 -89 -164 -206 -164c-123 0 -203 63 -203 119c0 33 18 54 45 54c26 0 44 -17 44 -42c0 -16 -7 -30 -15 -40c18 -20 64 -41 130 -41
c92 0 147 44 147 111c0 63 -74 91 -141 117c-100 38 -190 71 -190 172c0 91 77 153 195 153c102 0 182 -52 182 -115c0 -29 -21 -49 -43 -49c-29 0 -47 19 -47 44zM205 -300l-12 20c63 47 82 90 83 117c-25 3 -46 23 -46 48c0 29 23 50 47 50c31 0 54 -24 54 -67
c0 -52 -34 -120 -126 -168z" />
    <glyph glyph-name="Tcaron" unicode="&#x164;" horiz-adv-x="711" 
d="M486 966l26 -31l-157 -146l-157 146l26 31l131 -100zM222 0v53h103v620h-206v-118h-59v169h591v-169h-59v118h-206v-620h103v-53h-267z" />
    <glyph glyph-name="tcaron" unicode="&#x165;" horiz-adv-x="376" 
d="M248 551l-20 15c26 39 38 72 38 115c0 28 -5 43 -5 66s13 42 40 42c26 0 40 -17 40 -46c0 -65 -41 -136 -93 -192zM223 -9c-47 0 -80 18 -96 53c-8 16 -11 39 -11 63v329h-88v50h88v127l56 20v-147h151v-50h-151v-324c0 -16 2 -30 7 -40c9 -19 28 -27 61 -27
c28 0 62 15 89 31l-9 -58c-22 -12 -53 -27 -97 -27z" />
    <glyph glyph-name="tcaron.sc" horiz-adv-x="616" 
d="M446 844l28 -33l-166 -153l-165 153l27 33l138 -105zM171 0v51h108v479h-170v-107h-55v158h508v-158h-56v107h-170v-479h108v-51h-273z" />
    <glyph glyph-name="Tcommaaccent" unicode="&#x162;" horiz-adv-x="711" 
d="M222 0v53h103v620h-206v-118h-59v169h591v-169h-59v118h-206v-620h103v-53h-267zM285 -285l-12 19c60 45 78 86 79 111c-24 3 -44 22 -44 46c0 28 22 47 45 47c29 0 52 -23 52 -63c0 -49 -32 -114 -120 -160z" />
    <glyph glyph-name="tcommaaccent" unicode="&#x163;" horiz-adv-x="376" 
d="M223 -9c-47 0 -80 18 -96 53c-8 16 -11 39 -11 63v329h-88v50h88v127l56 20v-147h151v-50h-151v-324c0 -16 2 -30 7 -40c9 -19 28 -27 61 -27c28 0 62 15 89 31l-9 -58c-22 -12 -53 -27 -97 -27zM137 -300l-12 20c63 47 82 90 83 117c-25 3 -46 23 -46 48
c0 29 23 50 47 50c31 0 54 -24 54 -67c0 -52 -34 -120 -126 -168z" />
    <glyph glyph-name="tcommaaccent.sc" horiz-adv-x="616" 
d="M171 0v51h108v479h-170v-107h-55v158h508v-158h-56v107h-170v-479h108v-51h-273zM233 -300l-12 20c63 47 82 90 83 117c-25 3 -46 23 -46 48c0 29 23 50 47 50c31 0 54 -24 54 -67c0 -52 -34 -120 -126 -168z" />
    <glyph glyph-name="Thorn" unicode="&#xde;" horiz-adv-x="664" 
d="M345 204c122 0 193 62 193 163c0 104 -80 162 -193 162c-45 0 -104 -2 -125 -3v-320c27 -1 81 -2 125 -2zM63 0v53h97v618h-97v53h255v-51h-98v-94c19 1 77 2 121 2c150 0 257 -83 257 -213c0 -132 -98 -217 -255 -217c-42 0 -98 1 -123 2v-102h103v-51h-260z" />
    <glyph glyph-name="thorn" unicode="&#xfe;" horiz-adv-x="617" 
d="M311 42c110 0 182 89 183 203c1 117 -73 200 -177 200c-71 0 -126 -36 -169 -84v-255c40 -36 91 -64 163 -64zM10 -227v50h82v975h-82v51h138v-434c43 46 96 80 172 80c129 0 234 -99 234 -249c0 -137 -94 -255 -245 -255c-60 0 -118 23 -161 58v-226h100v-50h-238z" />
    <glyph glyph-name="thorn.sc" horiz-adv-x="583" 
d="M223 173c29 -1 59 -1 95 -1c95 0 154 50 154 123s-60 123 -154 123c-35 0 -65 0 -95 -2v-243zM223 467c29 1 60 1 92 1c129 0 216 -66 216 -173c0 -108 -86 -174 -216 -174c-33 0 -64 0 -92 1v-71h107v-51h-270v51h105v479h-105v51h270v-51h-107v-63z" />
    <glyph glyph-name="Uacute" unicode="&#xda;" horiz-adv-x="799" 
d="M359 791l-12 20l137 124c14 13 27 22 41 22c19 0 38 -15 38 -42c0 -13 -15 -30 -38 -42zM398 -13c-166 0 -256 96 -256 257v427h-97v53h255v-53h-99v-422c0 -139 71 -207 198 -207c126 0 200 67 200 205v424h-100v53h255v-53h-97v-423c0 -164 -95 -261 -259 -261z" />
    <glyph glyph-name="uacute" unicode="&#xfa;" horiz-adv-x="644" 
d="M275 589l-13 21l144 131c15 13 29 22 43 22c20 0 40 -16 40 -43c0 -14 -16 -32 -39 -44zM276 -9c-67 0 -109 24 -132 65c-15 28 -22 61 -22 101v279h-81v50h138v-322c0 -30 5 -55 15 -74c16 -32 46 -46 90 -46c70 0 129 47 178 101v291h-82v50h138v-435h82v-51h-136v97
c-45 -58 -119 -106 -188 -106z" />
    <glyph glyph-name="uacute.sc" horiz-adv-x="718" 
d="M317 660l-13 21l144 131c15 13 29 22 43 22c20 0 40 -16 40 -43c0 -14 -16 -32 -39 -44zM195 530v-320c0 -107 63 -169 164 -169s164 60 164 168v321h-105v51h262v-51h-99v-320c0 -142 -84 -220 -223 -220s-221 76 -221 218v322h-98v51h261v-51h-105z" />
    <glyph glyph-name="Ubreve" unicode="&#x16c;" horiz-adv-x="799" 
d="M399 791c-77 0 -136 57 -161 129l42 20c21 -56 69 -88 119 -88c55 0 99 38 119 88l42 -20c-25 -72 -84 -129 -161 -129zM398 -13c-166 0 -256 96 -256 257v427h-97v53h255v-53h-99v-422c0 -139 71 -207 198 -207c126 0 200 67 200 205v424h-100v53h255v-53h-97v-423
c0 -164 -95 -261 -259 -261z" />
    <glyph glyph-name="ubreve" unicode="&#x16d;" horiz-adv-x="644" 
d="M317 589c-81 0 -143 60 -169 136l44 21c22 -59 72 -94 125 -94c59 0 105 40 126 94l44 -21c-27 -76 -89 -136 -170 -136zM276 -9c-67 0 -109 24 -132 65c-15 28 -22 61 -22 101v279h-81v50h138v-322c0 -30 5 -55 15 -74c16 -32 46 -46 90 -46c70 0 129 47 178 101v291
h-82v50h138v-435h82v-51h-136v97c-45 -58 -119 -106 -188 -106z" />
    <glyph glyph-name="ubreve.sc" horiz-adv-x="718" 
d="M359 660c-81 0 -143 60 -169 136l44 21c22 -59 72 -94 125 -94c59 0 105 40 126 94l44 -21c-27 -76 -89 -136 -170 -136zM195 530v-320c0 -107 63 -169 164 -169s164 60 164 168v321h-105v51h262v-51h-99v-320c0 -142 -84 -220 -223 -220s-221 76 -221 218v322h-98v51
h261v-51h-105z" />
    <glyph glyph-name="Ucircumflex" unicode="&#xdb;" horiz-adv-x="799" 
d="M268 784l-26 32l157 146l157 -146l-26 -32l-131 100zM398 -13c-166 0 -256 96 -256 257v427h-97v53h255v-53h-99v-422c0 -139 71 -207 198 -207c126 0 200 67 200 205v424h-100v53h255v-53h-97v-423c0 -164 -95 -261 -259 -261z" />
    <glyph glyph-name="ucircumflex" unicode="&#xfb;" horiz-adv-x="644" 
d="M179 582l-27 33l165 154l166 -154l-28 -33l-138 105zM276 -9c-67 0 -109 24 -132 65c-15 28 -22 61 -22 101v279h-81v50h138v-322c0 -30 5 -55 15 -74c16 -32 46 -46 90 -46c70 0 129 47 178 101v291h-82v50h138v-435h82v-51h-136v97c-45 -58 -119 -106 -188 -106z" />
    <glyph glyph-name="ucircumflex.sc" horiz-adv-x="718" 
d="M221 653l-27 33l165 154l166 -154l-28 -33l-138 105zM195 530v-320c0 -107 63 -169 164 -169s164 60 164 168v321h-105v51h262v-51h-99v-320c0 -142 -84 -220 -223 -220s-221 76 -221 218v322h-98v51h261v-51h-105z" />
    <glyph glyph-name="Udieresis" unicode="&#xdc;" horiz-adv-x="799" 
d="M313 809c-30 0 -52 24 -52 54s22 54 52 54s52 -24 52 -54s-22 -54 -52 -54zM485 809c-29 0 -52 24 -52 54s23 54 52 54c30 0 53 -24 53 -54s-23 -54 -53 -54zM398 -13c-166 0 -256 96 -256 257v427h-97v53h255v-53h-99v-422c0 -139 71 -207 198 -207
c126 0 200 67 200 205v424h-100v53h255v-53h-97v-423c0 -164 -95 -261 -259 -261z" />
    <glyph glyph-name="udieresis" unicode="&#xfc;" horiz-adv-x="644" 
d="M227 608c-31 0 -55 25 -55 56c0 32 24 57 55 57s54 -25 54 -57c0 -31 -23 -56 -54 -56zM408 608c-31 0 -55 25 -55 56c0 32 24 57 55 57s54 -25 54 -57c0 -31 -23 -56 -54 -56zM276 -9c-67 0 -109 24 -132 65c-15 28 -22 61 -22 101v279h-81v50h138v-322
c0 -30 5 -55 15 -74c16 -32 46 -46 90 -46c70 0 129 47 178 101v291h-82v50h138v-435h82v-51h-136v97c-45 -58 -119 -106 -188 -106z" />
    <glyph glyph-name="udieresis.sc" horiz-adv-x="718" 
d="M269 679c-31 0 -55 25 -55 56c0 32 24 57 55 57s54 -25 54 -57c0 -31 -23 -56 -54 -56zM450 679c-31 0 -55 25 -55 56c0 32 24 57 55 57s54 -25 54 -57c0 -31 -23 -56 -54 -56zM195 530v-320c0 -107 63 -169 164 -169s164 60 164 168v321h-105v51h262v-51h-99v-320
c0 -142 -84 -220 -223 -220s-221 76 -221 218v322h-98v51h261v-51h-105z" />
    <glyph glyph-name="Ugrave" unicode="&#xd9;" horiz-adv-x="799" 
d="M440 791l-166 82c-22 12 -38 29 -38 42c0 27 20 42 39 42c14 0 26 -9 41 -22l137 -124zM398 -13c-166 0 -256 96 -256 257v427h-97v53h255v-53h-99v-422c0 -139 71 -207 198 -207c126 0 200 67 200 205v424h-100v53h255v-53h-97v-423c0 -164 -95 -261 -259 -261z" />
    <glyph glyph-name="ugrave" unicode="&#xf9;" horiz-adv-x="644" 
d="M360 589l-175 87c-24 12 -39 30 -39 44c0 27 19 43 39 43c15 0 28 -9 43 -22l145 -131zM276 -9c-67 0 -109 24 -132 65c-15 28 -22 61 -22 101v279h-81v50h138v-322c0 -30 5 -55 15 -74c16 -32 46 -46 90 -46c70 0 129 47 178 101v291h-82v50h138v-435h82v-51h-136v97
c-45 -58 -119 -106 -188 -106z" />
    <glyph glyph-name="ugrave.sc" horiz-adv-x="718" 
d="M402 660l-175 87c-24 12 -39 30 -39 44c0 27 19 43 39 43c15 0 28 -9 43 -22l145 -131zM195 530v-320c0 -107 63 -169 164 -169s164 60 164 168v321h-105v51h262v-51h-99v-320c0 -142 -84 -220 -223 -220s-221 76 -221 218v322h-98v51h261v-51h-105z" />
    <glyph glyph-name="Uhungarumlaut" unicode="&#x170;" horiz-adv-x="799" 
d="M270 793l-13 20l138 125c14 13 27 21 41 21c19 0 36 -13 36 -38c0 -13 -15 -30 -38 -42zM465 798l-11 22l147 115c15 11 28 18 40 18c22 0 35 -16 35 -37c0 -17 -14 -33 -41 -43zM398 -13c-166 0 -256 96 -256 257v427h-97v53h255v-53h-99v-422c0 -139 71 -207 198 -207
c126 0 200 67 200 205v424h-100v53h255v-53h-97v-423c0 -164 -95 -261 -259 -261z" />
    <glyph glyph-name="uhungarumlaut" unicode="&#x171;" horiz-adv-x="644" 
d="M181 591l-14 21l145 131c15 14 29 23 43 23c20 0 38 -14 38 -40c0 -14 -16 -32 -39 -44zM386 597l-11 22l154 121c16 12 29 19 42 19c23 0 36 -17 36 -39c0 -17 -14 -34 -42 -45zM276 -9c-67 0 -109 24 -132 65c-15 28 -22 61 -22 101v279h-81v50h138v-322
c0 -30 5 -55 15 -74c16 -32 46 -46 90 -46c70 0 129 47 178 101v291h-82v50h138v-435h82v-51h-136v97c-45 -58 -119 -106 -188 -106z" />
    <glyph glyph-name="uhungarumlaut.sc" horiz-adv-x="718" 
d="M225 662l-14 21l145 131c15 14 29 23 43 23c20 0 38 -14 38 -40c0 -14 -16 -32 -39 -44zM430 668l-11 22l154 121c16 12 29 19 42 19c23 0 36 -17 36 -39c0 -17 -14 -34 -42 -45zM195 530v-320c0 -107 63 -169 164 -169s164 60 164 168v321h-105v51h262v-51h-99v-320
c0 -142 -84 -220 -223 -220s-221 76 -221 218v322h-98v51h261v-51h-105z" />
    <glyph glyph-name="Umacron" unicode="&#x16a;" horiz-adv-x="799" 
d="M240 825v55h318v-55h-318zM398 -13c-166 0 -256 96 -256 257v427h-97v53h255v-53h-99v-422c0 -139 71 -207 198 -207c126 0 200 67 200 205v424h-100v53h255v-53h-97v-423c0 -164 -95 -261 -259 -261z" />
    <glyph glyph-name="umacron" unicode="&#x16b;" horiz-adv-x="644" 
d="M150 625v58h335v-58h-335zM276 -9c-67 0 -109 24 -132 65c-15 28 -22 61 -22 101v279h-81v50h138v-322c0 -30 5 -55 15 -74c16 -32 46 -46 90 -46c70 0 129 47 178 101v291h-82v50h138v-435h82v-51h-136v97c-45 -58 -119 -106 -188 -106z" />
    <glyph glyph-name="umacron.sc" horiz-adv-x="718" 
d="M192 696v58h335v-58h-335zM195 530v-320c0 -107 63 -169 164 -169s164 60 164 168v321h-105v51h262v-51h-99v-320c0 -142 -84 -220 -223 -220s-221 76 -221 218v322h-98v51h261v-51h-105z" />
    <glyph glyph-name="Uogonek" unicode="&#x172;" horiz-adv-x="799" 
d="M428 -221c-74 0 -111 39 -111 97c0 44 24 83 60 112c-153 7 -235 101 -235 256v427h-97v53h255v-53h-99v-422c0 -139 71 -207 198 -207c126 0 200 67 200 205v424h-100v53h255v-53h-97v-423c0 -147 -77 -240 -210 -257c-47 -26 -77 -63 -77 -104c0 -36 20 -61 63 -61
c35 0 65 10 88 23l-3 -45c-15 -11 -51 -25 -90 -25z" />
    <glyph glyph-name="uogonek" unicode="&#x173;" horiz-adv-x="644" 
d="M276 -9c-67 0 -109 24 -132 65c-15 28 -22 61 -22 101v279h-81v50h138v-322c0 -30 5 -55 15 -74c16 -32 46 -46 90 -46c70 0 129 47 178 101v291h-82v50h138v-435h82v-51h-65c-61 -27 -101 -71 -101 -120c0 -38 22 -64 68 -64c36 0 67 11 92 24l-3 -46
c-16 -12 -53 -27 -95 -27c-78 0 -117 41 -117 102c0 54 35 101 85 132v96c-45 -58 -119 -106 -188 -106z" />
    <glyph glyph-name="uogonek.sc" horiz-adv-x="718" 
d="M195 530v-320c0 -107 63 -169 164 -169s164 60 164 168v321h-105v51h262v-51h-99v-320c0 -130 -70 -206 -187 -218c-52 -27 -86 -67 -86 -111c0 -38 22 -64 68 -64c37 0 68 10 93 23l-3 -47c-17 -11 -54 -26 -96 -26c-78 0 -117 41 -117 103c0 48 29 91 71 122
c-119 11 -187 86 -187 216v322h-98v51h261v-51h-105z" />
    <glyph glyph-name="Uring" unicode="&#x16e;" horiz-adv-x="799" 
d="M399 779c-60 0 -108 50 -108 111s48 111 108 111s108 -50 108 -111s-48 -111 -108 -111zM399 823c37 0 63 29 63 67c0 37 -26 67 -63 67c-36 0 -63 -30 -63 -67c0 -38 27 -67 63 -67zM398 -13c-166 0 -256 96 -256 257v427h-97v53h255v-53h-99v-422
c0 -139 71 -207 198 -207c126 0 200 67 200 205v424h-100v53h255v-53h-97v-423c0 -164 -95 -261 -259 -261z" />
    <glyph glyph-name="uring" unicode="&#x16f;" horiz-adv-x="644" 
d="M317 577c-63 0 -113 52 -113 116s50 117 113 117s114 -53 114 -117s-51 -116 -114 -116zM317 622c39 0 67 32 67 71c0 40 -28 71 -67 71c-38 0 -66 -31 -66 -71c0 -39 28 -71 66 -71zM276 -9c-67 0 -109 24 -132 65c-15 28 -22 61 -22 101v279h-81v50h138v-322
c0 -30 5 -55 15 -74c16 -32 46 -46 90 -46c70 0 129 47 178 101v291h-82v50h138v-435h82v-51h-136v97c-45 -58 -119 -106 -188 -106z" />
    <glyph glyph-name="uring.sc" horiz-adv-x="718" 
d="M359 648c-63 0 -113 52 -113 116s50 117 113 117s114 -53 114 -117s-51 -116 -114 -116zM359 693c39 0 67 32 67 71c0 40 -28 71 -67 71c-38 0 -66 -31 -66 -71c0 -39 28 -71 66 -71zM195 530v-320c0 -107 63 -169 164 -169s164 60 164 168v321h-105v51h262v-51h-99v-320
c0 -142 -84 -220 -223 -220s-221 76 -221 218v322h-98v51h261v-51h-105z" />
    <glyph glyph-name="Wacute" unicode="&#x1e82;" horiz-adv-x="1083" 
d="M502 791l-12 20l137 124c14 13 27 22 41 22c19 0 38 -15 38 -42c0 -13 -15 -30 -38 -42zM324 -13l-210 684h-87v53h240v-53h-90l169 -572l183 531h34l184 -530l167 571h-93v53h239v-53h-88l-206 -684h-36l-184 526l-186 -526h-36z" />
    <glyph glyph-name="wacute" unicode="&#x1e83;" horiz-adv-x="799" 
d="M358 589l-13 21l144 131c15 13 29 22 43 22c20 0 40 -16 40 -43c0 -14 -16 -32 -39 -44zM226 -21l-140 457h-72v50h212v-48h-82l100 -348l146 339h22l146 -338l100 347h-85v48h212v-50h-73l-139 -457h-22l-151 352l-152 -352h-22z" />
    <glyph glyph-name="wacute.sc" horiz-adv-x="910" 
d="M414 660l-13 21l144 131c15 13 29 22 43 22c20 0 40 -16 40 -43c0 -14 -16 -32 -39 -44zM269 -14l-165 544h-86v51h244v-51h-96l127 -432l151 404h26l152 -404l126 432h-96v51h240v-51h-87l-164 -544h-33l-153 412l-153 -412h-33z" />
    <glyph glyph-name="Wcircumflex" unicode="&#x174;" horiz-adv-x="1083" 
d="M412 784l-26 32l157 146l157 -146l-26 -32l-131 100zM324 -13l-210 684h-87v53h240v-53h-90l169 -572l183 531h34l184 -530l167 571h-93v53h239v-53h-88l-206 -684h-36l-184 526l-186 -526h-36z" />
    <glyph glyph-name="wcircumflex" unicode="&#x175;" horiz-adv-x="799" 
d="M261 582l-27 33l165 154l166 -154l-28 -33l-138 105zM226 -21l-140 457h-72v50h212v-48h-82l100 -348l146 339h22l146 -338l100 347h-85v48h212v-50h-73l-139 -457h-22l-151 352l-152 -352h-22z" />
    <glyph glyph-name="wcircumflex.sc" horiz-adv-x="910" 
d="M318 653l-27 33l165 154l166 -154l-28 -33l-138 105zM269 -14l-165 544h-86v51h244v-51h-96l127 -432l151 404h26l152 -404l126 432h-96v51h240v-51h-87l-164 -544h-33l-153 412l-153 -412h-33z" />
    <glyph glyph-name="Wdieresis" unicode="&#x1e84;" horiz-adv-x="1083" 
d="M457 809c-30 0 -52 24 -52 54s22 54 52 54s52 -24 52 -54s-22 -54 -52 -54zM629 809c-29 0 -52 24 -52 54s23 54 52 54c30 0 53 -24 53 -54s-23 -54 -53 -54zM324 -13l-210 684h-87v53h240v-53h-90l169 -572l183 531h34l184 -530l167 571h-93v53h239v-53h-88l-206 -684
h-36l-184 526l-186 -526h-36z" />
    <glyph glyph-name="wdieresis" unicode="&#x1e85;" horiz-adv-x="799" 
d="M309 608c-31 0 -55 25 -55 56c0 32 24 57 55 57s54 -25 54 -57c0 -31 -23 -56 -54 -56zM490 608c-31 0 -55 25 -55 56c0 32 24 57 55 57s54 -25 54 -57c0 -31 -23 -56 -54 -56zM226 -21l-140 457h-72v50h212v-48h-82l100 -348l146 339h22l146 -338l100 347h-85v48h212
v-50h-73l-139 -457h-22l-151 352l-152 -352h-22z" />
    <glyph glyph-name="wdieresis.sc" horiz-adv-x="910" 
d="M366 679c-31 0 -55 25 -55 56c0 32 24 57 55 57s54 -25 54 -57c0 -31 -23 -56 -54 -56zM547 679c-31 0 -55 25 -55 56c0 32 24 57 55 57s54 -25 54 -57c0 -31 -23 -56 -54 -56zM269 -14l-165 544h-86v51h244v-51h-96l127 -432l151 404h26l152 -404l126 432h-96v51h240
v-51h-87l-164 -544h-33l-153 412l-153 -412h-33z" />
    <glyph glyph-name="Wgrave" unicode="&#x1e80;" horiz-adv-x="1083" 
d="M583 791l-166 82c-22 12 -38 29 -38 42c0 27 20 42 39 42c14 0 26 -9 41 -22l137 -124zM324 -13l-210 684h-87v53h240v-53h-90l169 -572l183 531h34l184 -530l167 571h-93v53h239v-53h-88l-206 -684h-36l-184 526l-186 -526h-36z" />
    <glyph glyph-name="wgrave" unicode="&#x1e81;" horiz-adv-x="799" 
d="M442 589l-175 87c-24 12 -39 30 -39 44c0 27 19 43 39 43c15 0 28 -9 43 -22l145 -131zM226 -21l-140 457h-72v50h212v-48h-82l100 -348l146 339h22l146 -338l100 347h-85v48h212v-50h-73l-139 -457h-22l-151 352l-152 -352h-22z" />
    <glyph glyph-name="wgrave.sc" horiz-adv-x="910" 
d="M499 660l-175 87c-24 12 -39 30 -39 44c0 27 19 43 39 43c15 0 28 -9 43 -22l145 -131zM269 -14l-165 544h-86v51h244v-51h-96l127 -432l151 404h26l152 -404l126 432h-96v51h240v-51h-87l-164 -544h-33l-153 412l-153 -412h-33z" />
    <glyph glyph-name="Yacute" unicode="&#xdd;" horiz-adv-x="716" 
d="M317 791l-12 20l137 124c14 13 27 22 41 22c19 0 38 -15 38 -42c0 -13 -15 -30 -38 -42zM219 0v53h108v244l-219 374h-80v53h230v-53h-81l182 -323l183 323h-84v53h230v-53h-81l-219 -373v-245h108v-53h-277z" />
    <glyph glyph-name="yacute" unicode="&#xfd;" horiz-adv-x="593" 
d="M254 589l-13 21l144 131c15 13 29 22 43 22c20 0 40 -16 40 -43c0 -14 -16 -32 -39 -44zM237 -143c-37 -58 -75 -89 -123 -89c-38 0 -74 21 -74 56c0 26 18 44 42 44c27 0 45 -24 49 -47c22 8 44 27 70 68c13 21 28 50 44 84l26 55l-188 408h-70v50h214v-50h-80
s152 -347 151 -347l154 347h-83v50h211v-50h-70l-232 -502c-14 -30 -27 -54 -41 -77z" />
    <glyph glyph-name="yacute.sc" horiz-adv-x="620" 
d="M269 660l-13 21l144 131c15 13 29 22 43 22c20 0 40 -16 40 -43c0 -14 -16 -32 -39 -44zM607 581v-51h-83l-186 -310v-169h107v-51h-271v51h107v169l-185 310h-83v51h240v-51h-94l153 -262l152 262h-94v51h237z" />
    <glyph glyph-name="Ycircumflex" unicode="&#x176;" horiz-adv-x="716" 
d="M226 784l-26 32l157 146l157 -146l-26 -32l-131 100zM219 0v53h108v244l-219 374h-80v53h230v-53h-81l182 -323l183 323h-84v53h230v-53h-81l-219 -373v-245h108v-53h-277z" />
    <glyph glyph-name="ycircumflex" unicode="&#x177;" horiz-adv-x="593" 
d="M158 582l-27 33l165 154l166 -154l-28 -33l-138 105zM237 -143c-37 -58 -75 -89 -123 -89c-38 0 -74 21 -74 56c0 26 18 44 42 44c27 0 45 -24 49 -47c22 8 44 27 70 68c13 21 28 50 44 84l26 55l-188 408h-70v50h214v-50h-80s152 -347 151 -347l154 347h-83v50h211v-50
h-70l-232 -502c-14 -30 -27 -54 -41 -77z" />
    <glyph glyph-name="ycircumflex.sc" horiz-adv-x="620" 
d="M174 653l-27 33l165 154l166 -154l-28 -33l-138 105zM607 581v-51h-83l-186 -310v-169h107v-51h-271v51h107v169l-185 310h-83v51h240v-51h-94l153 -262l152 262h-94v51h237z" />
    <glyph glyph-name="Ydieresis" unicode="&#x178;" horiz-adv-x="716" 
d="M271 809c-30 0 -52 24 -52 54s22 54 52 54s52 -24 52 -54s-22 -54 -52 -54zM443 809c-29 0 -52 24 -52 54s23 54 52 54c30 0 53 -24 53 -54s-23 -54 -53 -54zM219 0v53h108v244l-219 374h-80v53h230v-53h-81l182 -323l183 323h-84v53h230v-53h-81l-219 -373v-245h108v-53
h-277z" />
    <glyph glyph-name="ydieresis" unicode="&#xff;" horiz-adv-x="593" 
d="M206 608c-31 0 -55 25 -55 56c0 32 24 57 55 57s54 -25 54 -57c0 -31 -23 -56 -54 -56zM387 608c-31 0 -55 25 -55 56c0 32 24 57 55 57s54 -25 54 -57c0 -31 -23 -56 -54 -56zM237 -143c-37 -58 -75 -89 -123 -89c-38 0 -74 21 -74 56c0 26 18 44 42 44
c27 0 45 -24 49 -47c22 8 44 27 70 68c13 21 28 50 44 84l26 55l-188 408h-70v50h214v-50h-80s152 -347 151 -347l154 347h-83v50h211v-50h-70l-232 -502c-14 -30 -27 -54 -41 -77z" />
    <glyph glyph-name="ydieresis.sc" horiz-adv-x="620" 
d="M222 679c-31 0 -55 25 -55 56c0 32 24 57 55 57s54 -25 54 -57c0 -31 -23 -56 -54 -56zM403 679c-31 0 -55 25 -55 56c0 32 24 57 55 57s54 -25 54 -57c0 -31 -23 -56 -54 -56zM607 581v-51h-83l-186 -310v-169h107v-51h-271v51h107v169l-185 310h-83v51h240v-51h-94
l153 -262l152 262h-94v51h237z" />
    <glyph glyph-name="Ygrave" unicode="&#x1ef2;" horiz-adv-x="716" 
d="M398 791l-166 82c-22 12 -38 29 -38 42c0 27 20 42 39 42c14 0 26 -9 41 -22l137 -124zM219 0v53h108v244l-219 374h-80v53h230v-53h-81l182 -323l183 323h-84v53h230v-53h-81l-219 -373v-245h108v-53h-277z" />
    <glyph glyph-name="ygrave" unicode="&#x1ef3;" horiz-adv-x="593" 
d="M339 589l-175 87c-24 12 -39 30 -39 44c0 27 19 43 39 43c15 0 28 -9 43 -22l145 -131zM237 -143c-37 -58 -75 -89 -123 -89c-38 0 -74 21 -74 56c0 26 18 44 42 44c27 0 45 -24 49 -47c22 8 44 27 70 68c13 21 28 50 44 84l26 55l-188 408h-70v50h214v-50h-80
s152 -347 151 -347l154 347h-83v50h211v-50h-70l-232 -502c-14 -30 -27 -54 -41 -77z" />
    <glyph glyph-name="ygrave.sc" horiz-adv-x="620" 
d="M355 660l-175 87c-24 12 -39 30 -39 44c0 27 19 43 39 43c15 0 28 -9 43 -22l145 -131zM607 581v-51h-83l-186 -310v-169h107v-51h-271v51h107v169l-185 310h-83v51h240v-51h-94l153 -262l152 262h-94v51h237z" />
    <glyph glyph-name="Zacute" unicode="&#x179;" horiz-adv-x="667" 
d="M292 791l-12 20l137 124c14 13 27 22 41 22c19 0 38 -15 38 -42c0 -13 -15 -30 -38 -42zM55 0v25l461 649h-378v-114h-59v164h524v-26l-460 -648h410v114h58v-164h-556z" />
    <glyph glyph-name="zacute" unicode="&#x17a;" horiz-adv-x="521" 
d="M218 589l-13 21l144 131c15 13 29 22 43 22c20 0 40 -16 40 -43c0 -14 -16 -32 -39 -44zM51 0v18l323 420h-250v-98h-52v146h394v-18l-323 -419h275v97h52v-146h-419z" />
    <glyph glyph-name="zacute.sc" horiz-adv-x="570" 
d="M246 660l-13 21l144 131c15 13 29 22 43 22c20 0 40 -16 40 -43c0 -14 -16 -32 -39 -44zM58 0v31l374 500h-304v-105h-55v155h441v-30l-372 -500h320v103h56v-154h-460z" />
    <glyph glyph-name="Zcaron" unicode="&#x17d;" horiz-adv-x="667" 
d="M463 966l26 -31l-157 -146l-157 146l26 31l131 -100zM55 0v25l461 649h-378v-114h-59v164h524v-26l-460 -648h410v114h58v-164h-556z" />
    <glyph glyph-name="zcaron" unicode="&#x17e;" horiz-adv-x="521" 
d="M398 773l28 -33l-166 -153l-165 153l27 33l138 -105zM51 0v18l323 420h-250v-98h-52v146h394v-18l-323 -419h275v97h52v-146h-419z" />
    <glyph glyph-name="zcaron.sc" horiz-adv-x="570" 
d="M426 844l28 -33l-166 -153l-165 153l27 33l138 -105zM58 0v31l374 500h-304v-105h-55v155h441v-30l-372 -500h320v103h56v-154h-460z" />
    <glyph glyph-name="Zdotaccent" unicode="&#x17b;" horiz-adv-x="667" 
d="M332 806c-31 0 -54 26 -54 57s23 56 54 56s55 -25 55 -56s-24 -57 -55 -57zM55 0v25l461 649h-378v-114h-59v164h524v-26l-460 -648h410v114h58v-164h-556z" />
    <glyph glyph-name="zdotaccent" unicode="&#x17c;" horiz-adv-x="521" 
d="M260 606c-32 0 -56 26 -56 58c0 33 24 59 56 59c33 0 57 -26 57 -59c0 -32 -24 -58 -57 -58zM51 0v18l323 420h-250v-98h-52v146h394v-18l-323 -419h275v97h52v-146h-419z" />
    <glyph glyph-name="zdotaccent.sc" horiz-adv-x="570" 
d="M288 677c-32 0 -56 26 -56 58c0 33 24 59 56 59c33 0 57 -26 57 -59c0 -32 -24 -58 -57 -58zM58 0v31l374 500h-304v-105h-55v155h441v-30l-372 -500h320v103h56v-154h-460z" />
    <glyph glyph-name="schwa" unicode="&#x259;" horiz-adv-x="565" 
d="M274 -9c-140 0 -217 110 -217 228c0 16 1 27 3 37h387c-8 124 -83 188 -200 188c-67 0 -112 -21 -169 -55l6 58c49 32 111 48 170 48c153 0 254 -103 254 -251c0 -134 -90 -253 -234 -253zM279 42c85 0 156 63 167 164h-331c6 -96 60 -164 164 -164z" />
    <glyph glyph-name="germandbls" unicode="&#xdf;" horiz-adv-x="626" 
d="M400 -9c-70 0 -117 36 -117 78c0 28 20 46 43 46c22 0 40 -18 40 -40c0 -11 -5 -23 -8 -26c7 -5 30 -10 42 -10c71 0 124 45 124 119c0 61 -39 98 -99 131c-76 42 -118 74 -118 145c0 41 14 75 64 124c48 47 62 88 62 137c0 64 -55 111 -119 111c-43 0 -76 -20 -97 -56
c-11 -21 -18 -50 -18 -81v-669h-138v51h82v385h-89v50h89v177c0 50 11 89 30 121c33 49 85 74 148 74c95 0 168 -69 168 -163c0 -68 -24 -119 -75 -170c-41 -40 -51 -60 -51 -91c0 -37 26 -61 92 -99c71 -40 125 -92 125 -177c0 -101 -77 -167 -180 -167z" />
    <glyph glyph-name="zero" unicode="0" horiz-adv-x="637" 
d="M319 -9c-150 0 -257 129 -257 300s106 299 257 299c149 0 256 -129 256 -299c0 -172 -106 -300 -256 -300zM319 44c117 0 195 102 195 247c0 143 -78 246 -195 246c-116 0 -196 -102 -196 -246c0 -145 80 -247 196 -247z" />
    <glyph glyph-name="one" unicode="1" horiz-adv-x="469" 
d="M81 0v51h139v467l-127 -34l-13 51l176 49h23v-533h137v-51h-335z" />
    <glyph glyph-name="two" unicode="2" horiz-adv-x="565" 
d="M266 537c-54 0 -101 -23 -125 -53c-4 -4 -7 -9 -10 -15c19 -4 35 -22 35 -42c0 -25 -19 -46 -45 -46c-29 0 -50 24 -50 60c0 21 8 42 21 61c32 49 100 88 178 88c133 0 200 -79 200 -166c0 -94 -81 -149 -169 -207c-67 -44 -136 -92 -177 -166h311v103h54v-154h-431
l-5 28c45 111 135 174 224 233c76 51 135 92 135 163c0 66 -52 113 -146 113z" />
    <glyph glyph-name="three" unicode="3" horiz-adv-x="574" 
d="M56 0c0 33 24 60 52 60c26 0 43 -20 43 -42c0 -18 -11 -37 -35 -44c4 -9 9 -15 14 -20c28 -28 81 -45 142 -45c107 0 179 64 179 145c0 60 -36 105 -91 130c-37 18 -84 27 -135 27h-22v52h25c49 0 99 14 137 37c45 27 75 66 75 112c0 78 -63 123 -159 123
c-65 0 -109 -21 -132 -48c-4 -5 -8 -11 -11 -18c20 -4 36 -24 36 -42c0 -26 -23 -42 -45 -42c-27 0 -50 24 -50 58c0 21 6 41 20 62c33 48 100 85 186 85c128 0 211 -82 211 -178c0 -59 -40 -116 -98 -147c-23 -13 -49 -22 -77 -25c27 -4 52 -12 74 -22
c67 -31 112 -89 112 -161c0 -122 -104 -202 -236 -202c-85 0 -161 33 -196 84c-12 19 -19 39 -19 61z" />
    <glyph glyph-name="four" unicode="4" horiz-adv-x="578" 
d="M362 -139v213h-332l-9 21l366 494l44 -32l-319 -432h250v183l55 23v-206h137v-51h-137v-213h-55z" />
    <glyph glyph-name="five" unicode="5" horiz-adv-x="555" 
d="M57 -25c0 28 20 56 50 56c25 0 44 -17 44 -43c0 -14 -9 -32 -23 -40c4 -5 9 -9 16 -14c25 -18 62 -28 116 -28c103 0 180 72 180 174c0 100 -70 169 -176 169c-64 0 -117 -14 -159 -32l-25 14l41 350h339v-55h-293l-28 -246c36 12 79 20 128 20c135 0 233 -89 233 -220
s-106 -225 -238 -225c-74 0 -137 20 -173 53c-21 18 -32 42 -32 67z" />
    <glyph glyph-name="six" unicode="6" horiz-adv-x="608" 
d="M345 685c-115 0 -212 -123 -218 -350c31 61 106 110 192 110c134 0 228 -100 228 -217c0 -132 -97 -237 -234 -237c-67 0 -127 24 -167 66c-53 55 -75 138 -75 245c0 319 149 436 279 436c51 0 105 -19 137 -52c17 -17 28 -38 28 -62c0 -39 -27 -58 -52 -58
c-27 0 -44 20 -44 45c0 19 8 30 21 38c-19 22 -51 36 -95 36zM313 44c107 0 175 76 175 184c0 93 -65 164 -169 164c-111 0 -184 -87 -184 -178c0 -45 17 -88 49 -121c31 -31 74 -49 129 -49z" />
    <glyph glyph-name="seven" unicode="7" horiz-adv-x="521" 
d="M165 -141l-53 22l292 650h-308v-112h-55v162h431l9 -18z" />
    <glyph glyph-name="eight" unicode="8" horiz-adv-x="575" 
d="M287 -9c-129 0 -228 86 -228 202c0 85 65 157 143 183c-80 30 -128 107 -128 166c0 117 96 196 213 196c118 0 212 -79 212 -196c0 -67 -50 -136 -127 -166c77 -26 143 -97 143 -183c0 -115 -98 -202 -228 -202zM287 400c85 0 154 63 154 141c0 81 -67 144 -154 144
c-86 0 -153 -63 -153 -144c0 -78 69 -141 153 -141zM287 43c93 0 166 64 166 151c0 91 -75 154 -166 154c-90 0 -165 -63 -165 -154c0 -87 74 -151 165 -151z" />
    <glyph glyph-name="nine" unicode="9" horiz-adv-x="608" 
d="M423 488c-30 30 -74 49 -129 49c-106 0 -174 -77 -174 -184c0 -94 65 -161 169 -161c111 0 184 83 184 175c0 45 -17 88 -50 121zM249 -145c-52 0 -108 20 -140 54c-16 17 -25 37 -25 60c0 39 26 58 51 58c28 0 45 -20 45 -45c0 -19 -9 -30 -22 -37c19 -23 51 -37 96 -37
c124 0 220 118 226 337c-30 -60 -105 -106 -191 -106c-134 0 -229 96 -229 214c0 131 98 237 234 237c68 0 126 -24 168 -66c54 -54 75 -139 75 -245c0 -323 -158 -424 -288 -424z" />
    <glyph glyph-name="zero.lin" horiz-adv-x="695" 
d="M346 -13c-155 0 -274 149 -274 374c0 227 120 376 277 376c154 0 274 -150 274 -374c0 -228 -121 -376 -277 -376zM347 42c129 0 215 129 215 319c0 191 -86 321 -215 321c-128 0 -214 -129 -214 -319c0 -191 86 -321 214 -321z" />
    <glyph glyph-name="one.lin" horiz-adv-x="465" 
d="M60 0v53h152v606l-145 -38l-13 56l191 50h28v-674h149v-53h-362z" />
    <glyph glyph-name="two.lin" horiz-adv-x="612" 
d="M80 575c0 20 7 43 21 65c34 51 104 97 200 97c117 0 218 -79 218 -193c0 -117 -70 -173 -186 -254c-99 -70 -176 -150 -199 -237h338v112h58v-165h-454l-15 26c35 144 138 235 241 309c94 67 154 118 154 209c0 81 -75 138 -157 138c-74 0 -127 -31 -146 -61
c-4 -6 -7 -12 -8 -16c22 -6 37 -27 37 -48c0 -27 -21 -48 -48 -48c-31 0 -54 21 -54 66z" />
    <glyph glyph-name="three.lin" horiz-adv-x="573" 
d="M270 43c117 0 181 73 181 148c0 62 -35 107 -91 133c-37 17 -83 26 -135 26h-21v53h26c49 0 95 13 131 36c42 27 70 68 70 116c0 80 -61 125 -158 125c-66 0 -111 -21 -132 -41l-11 -12c16 -6 33 -21 33 -45c0 -26 -21 -46 -46 -46c-26 0 -51 22 -51 59c0 19 6 38 19 58
c32 46 98 84 192 84c119 0 213 -68 213 -182c0 -64 -37 -116 -93 -148c-22 -12 -46 -22 -72 -28c26 -4 52 -10 74 -21c67 -31 110 -90 110 -164c0 -117 -97 -207 -240 -207c-82 0 -163 34 -200 85c-13 19 -21 40 -21 62c0 33 22 61 51 61c26 0 46 -21 46 -47
c0 -21 -14 -38 -31 -43c3 -6 7 -11 13 -16c25 -23 76 -46 143 -46z" />
    <glyph glyph-name="four.lin" horiz-adv-x="601" 
d="M230 0v53h133v163h-333l-10 24l370 499l46 -33l-326 -438h253v173l60 28v-201h128v-52h-128v-163h106v-53h-299z" />
    <glyph glyph-name="five.lin" horiz-adv-x="575" 
d="M268 43c108 0 184 77 184 185c0 91 -64 166 -179 166c-61 0 -119 -20 -154 -36l-27 12l37 354h342v-61h-293l-25 -234c28 11 62 22 125 22c129 0 236 -79 236 -222c0 -155 -116 -242 -250 -242c-71 0 -134 23 -170 58c-22 19 -34 42 -34 67c0 27 18 54 52 54
c23 0 46 -22 46 -47c0 -14 -7 -30 -19 -38c4 -4 8 -8 15 -12c24 -15 61 -26 114 -26z" />
    <glyph glyph-name="six.lin" horiz-adv-x="639" 
d="M528 617c0 -32 -21 -54 -48 -54c-26 0 -48 21 -48 48c0 16 7 28 16 36c-14 19 -53 34 -95 34c-128 0 -218 -148 -223 -361c11 23 27 43 45 60c41 36 97 61 156 61c142 0 237 -96 237 -225s-101 -229 -237 -229c-74 0 -134 25 -178 69c-54 53 -81 138 -81 248
c0 316 151 433 285 433c54 0 99 -17 130 -42c26 -22 41 -49 41 -78zM331 42c101 0 176 72 176 172c0 99 -74 172 -176 172c-106 0 -187 -78 -187 -172c0 -46 22 -90 56 -121s80 -51 131 -51z" />
    <glyph glyph-name="seven.lin" horiz-adv-x="549" 
d="M129 0l296 671h-329v-111h-58v164h460l8 -17l-313 -707h-64z" />
    <glyph glyph-name="eight.lin" horiz-adv-x="618" 
d="M309 -13c-136 0 -241 81 -241 207c0 94 85 169 152 183c-76 24 -137 92 -137 168c0 127 107 192 226 192s225 -65 225 -192c0 -76 -60 -144 -137 -168c67 -14 153 -89 153 -183c0 -126 -105 -207 -241 -207zM309 404c92 0 166 61 166 139c0 80 -69 139 -166 139
c-98 0 -167 -59 -167 -139c0 -77 74 -139 167 -139zM309 42c105 0 181 62 181 152c0 85 -83 155 -181 155s-182 -70 -182 -155c0 -90 77 -152 182 -152z" />
    <glyph glyph-name="nine.lin" horiz-adv-x="639" 
d="M308 329c106 0 187 76 187 172c0 50 -20 94 -54 128c-34 33 -81 53 -133 53c-99 0 -176 -71 -176 -176c0 -106 75 -177 176 -177zM103 107c0 32 22 54 48 54c27 0 48 -22 48 -48c0 -15 -5 -28 -16 -36c5 -6 11 -12 19 -17c18 -11 47 -19 87 -19c116 0 217 116 220 350
c-2 -5 -5 -9 -7 -13c-40 -63 -113 -103 -194 -103c-141 0 -237 91 -237 229c0 135 101 233 237 233c73 0 133 -25 175 -67c55 -55 84 -141 84 -256c0 -317 -135 -427 -282 -427c-49 0 -98 17 -134 43c-28 21 -48 49 -48 77z" />
    <glyph glyph-name="period" unicode="." horiz-adv-x="222" 
d="M111 -9c-33 0 -58 26 -58 60c0 33 25 60 58 60s58 -27 58 -60c0 -34 -25 -60 -58 -60z" />
    <glyph glyph-name="comma" unicode="," horiz-adv-x="222" 
d="M22 -161l-15 24c74 53 96 103 97 134c-27 4 -53 29 -53 57c0 31 27 56 56 56c33 0 62 -27 62 -76c0 -60 -39 -139 -147 -195z" />
    <glyph glyph-name="colon" unicode=":" horiz-adv-x="243" 
d="M123 303c-34 0 -58 27 -58 60c0 34 24 60 58 60c33 0 57 -26 57 -60c0 -33 -24 -60 -57 -60zM123 -9c-34 0 -58 26 -58 60c0 33 24 60 58 60c33 0 57 -27 57 -60c0 -34 -24 -60 -57 -60z" />
    <glyph glyph-name="semicolon" unicode=";" horiz-adv-x="243" 
d="M123 303c-34 0 -58 27 -58 60c0 34 24 60 58 60c33 0 57 -26 57 -60c0 -33 -24 -60 -57 -60zM33 -161l-15 24c74 54 96 104 97 134c-27 3 -53 29 -53 57c0 31 27 56 56 56c34 0 63 -27 63 -76c0 -60 -40 -139 -148 -195z" />
    <glyph glyph-name="ellipsis" unicode="&#x2026;" horiz-adv-x="685" 
d="M122 -9c-33 0 -58 26 -58 60c0 33 25 60 58 60c34 0 58 -27 58 -60c0 -34 -24 -60 -58 -60zM343 -9c-34 0 -58 26 -58 60c0 33 24 60 58 60c33 0 58 -27 58 -60c0 -34 -25 -60 -58 -60zM563 -9c-33 0 -58 26 -58 60c0 33 25 60 58 60s58 -27 58 -60
c0 -34 -25 -60 -58 -60z" />
    <glyph glyph-name="periodcentered" unicode="&#xb7;" horiz-adv-x="315" 
d="M157 229c-33 0 -58 27 -58 60c0 34 25 60 58 60c34 0 58 -26 58 -60c0 -33 -24 -60 -58 -60z" />
    <glyph glyph-name="bullet" unicode="&#x2022;" horiz-adv-x="300" 
d="M150 201c-52 0 -91 41 -91 94c0 52 39 95 91 95s91 -43 91 -95c0 -53 -39 -94 -91 -94z" />
    <glyph glyph-name="bullet.alt" horiz-adv-x="736" 
d="M368 -55c-175 0 -296 136 -296 304c0 167 121 303 296 303c176 0 297 -136 297 -303c0 -168 -121 -304 -297 -304z" />
    <glyph glyph-name="ampersand" unicode="&#x26;" horiz-adv-x="666" 
d="M635 292h-66c-21 -62 -44 -113 -72 -155c52 -50 109 -103 124 -114l-36 -37c-14 12 -69 62 -119 110c-61 -71 -138 -105 -229 -105c-133 0 -199 85 -199 170c0 87 53 143 152 207c-60 69 -71 106 -71 157c0 73 56 159 161 159c77 0 141 -55 141 -133
c0 -57 -32 -112 -154 -191c21 -22 47 -48 80 -78c0 0 57 -56 115 -110c25 37 44 79 58 120h-64v48h179v-48zM175 523c0 -36 10 -68 60 -127c113 71 130 110 130 155c0 49 -37 84 -85 84c-62 0 -105 -47 -105 -112zM237 42c83 0 145 36 193 88c-60 58 -119 116 -119 116
c-35 33 -65 61 -88 86c-93 -60 -126 -105 -126 -172c0 -58 44 -118 140 -118z" />
    <glyph glyph-name="exclam" unicode="!" horiz-adv-x="278" 
d="M124 190l-21 533h72l-21 -533h-30zM139 -9c-30 0 -53 25 -53 55s23 55 53 55s53 -25 53 -55s-23 -55 -53 -55z" />
    <glyph glyph-name="exclamdown" unicode="&#xa1;" horiz-adv-x="278" 
d="M139 622c-30 0 -53 25 -53 55s23 55 53 55s53 -25 53 -55s-23 -55 -53 -55zM103 0l21 532h30l21 -532h-72z" />
    <glyph glyph-name="question" unicode="?" horiz-adv-x="480" 
d="M28 586c0 26 10 51 26 73c34 46 99 78 174 78c134 0 216 -83 216 -190c0 -96 -77 -183 -201 -214l-11 -143h-29l-15 177c128 28 199 92 199 178s-60 140 -158 140c-59 0 -107 -21 -130 -53c-5 -6 -8 -13 -11 -19c26 -6 41 -24 41 -46c0 -24 -21 -45 -45 -45
c-28 0 -56 26 -56 64zM219 -9c-30 0 -53 25 -54 54c0 30 24 56 53 56c30 0 54 -25 54 -55s-23 -54 -53 -55z" />
    <glyph glyph-name="questiondown" unicode="&#xbf;" horiz-adv-x="480" 
d="M261 732c30 0 54 -24 53 -54c0 -30 -23 -55 -53 -55s-53 26 -53 55c0 30 24 55 53 54zM452 138c0 -26 -10 -51 -27 -74c-34 -45 -98 -77 -173 -77c-134 0 -216 83 -216 190c0 96 77 183 201 214l11 143h29l15 -177c-128 -28 -199 -93 -199 -178c0 -86 60 -140 158 -140
c59 0 107 20 130 53c5 6 8 13 10 19c-25 5 -40 24 -40 46c0 24 21 44 45 44c28 0 56 -25 56 -63z" />
    <glyph glyph-name="quotedblleft" unicode="&#x201c;" horiz-adv-x="427" 
d="M109 509c-36 0 -66 28 -66 81c0 63 43 157 151 212l15 -23c-75 -53 -96 -118 -97 -152c28 -3 56 -30 56 -59c0 -33 -29 -59 -59 -59zM307 509c-36 0 -66 28 -66 81c0 63 43 157 151 212l14 -23c-74 -53 -96 -118 -97 -152c29 -3 56 -30 56 -59c0 -33 -28 -59 -58 -59z
" />
    <glyph glyph-name="quotedblright" unicode="&#x201d;" horiz-adv-x="427" 
d="M36 494l-15 23c74 53 96 118 97 152c-28 3 -56 30 -56 59c0 33 29 59 59 59c36 0 65 -28 65 -80c0 -63 -42 -158 -150 -213zM234 494l-15 23c74 53 96 118 97 152c-29 3 -56 30 -56 59c0 33 28 59 59 59c35 0 65 -28 65 -80c0 -63 -43 -158 -150 -213z" />
    <glyph glyph-name="quoteleft" unicode="&#x2018;" horiz-adv-x="230" 
d="M109 509c-36 0 -66 28 -66 81c0 63 43 157 151 212l15 -23c-75 -53 -96 -118 -97 -152c28 -3 56 -30 56 -59c0 -33 -29 -59 -59 -59z" />
    <glyph glyph-name="quoteright" unicode="&#x2019;" horiz-adv-x="230" 
d="M36 494l-15 23c74 53 96 118 97 152c-28 3 -56 30 -56 59c0 33 29 59 59 59c36 0 65 -28 65 -80c0 -63 -42 -158 -150 -213z" />
    <glyph glyph-name="quotedblbase" unicode="&#x201e;" horiz-adv-x="420" 
d="M22 -161l-15 24c74 53 96 103 97 134c-27 4 -53 29 -53 57c0 31 27 56 56 56c33 0 62 -27 62 -76c0 -60 -39 -139 -147 -195zM220 -161l-14 24c73 53 95 103 96 134c-27 4 -53 29 -53 57c0 31 27 56 56 56c34 0 62 -27 62 -76c0 -60 -39 -139 -147 -195z" />
    <glyph glyph-name="quotesinglbase" unicode="&#x201a;" horiz-adv-x="222" 
d="M22 -161l-15 24c74 53 96 103 97 134c-27 4 -53 29 -53 57c0 31 27 56 56 56c33 0 62 -27 62 -76c0 -60 -39 -139 -147 -195z" />
    <glyph glyph-name="guillemotleft" unicode="&#xab;" horiz-adv-x="527" 
d="M230 132l-186 183l186 183l36 -34l-147 -149l147 -149zM424 132l-187 183l187 183l36 -34l-148 -149l148 -149z" />
    <glyph glyph-name="guillemotright" unicode="&#xbb;" horiz-adv-x="527" 
d="M103 132l-36 34l148 149l-148 149l36 34l187 -183zM297 132l-37 34l148 149l-148 149l37 34l186 -183z" />
    <glyph glyph-name="guilsinglleft" unicode="&#x2039;" horiz-adv-x="334" 
d="M230 132l-186 183l186 183l36 -34l-147 -149l147 -149z" />
    <glyph glyph-name="guilsinglright" unicode="&#x203a;" horiz-adv-x="334" 
d="M103 132l-36 34l148 149l-148 149l36 34l187 -183z" />
    <glyph glyph-name="hyphen" unicode="-" horiz-adv-x="327" 
d="M44 291v57h240v-57h-240z" />
    <glyph glyph-name="endash" unicode="&#x2013;" horiz-adv-x="501" 
d="M31 291v57h439v-57h-439z" />
    <glyph glyph-name="emdash" unicode="&#x2014;" horiz-adv-x="829" 
d="M31 291v57h766v-57h-766z" />
    <glyph glyph-name="hyphen.lin" horiz-adv-x="312" 
d="M44 359v57h240v-57h-240z" />
    <glyph glyph-name="endash.lin" horiz-adv-x="476" 
d="M31 359v57h439v-57h-439z" />
    <glyph glyph-name="emdash.lin" horiz-adv-x="788" 
d="M31 359v57h766v-57h-766z" />
    <glyph glyph-name="underscore" unicode="_" horiz-adv-x="608" 
d="M1 -161v57h606v-57h-606z" />
    <glyph glyph-name="slash" unicode="/" horiz-adv-x="525" 
d="M19 -240l-53 24l476 1074l53 -23z" />
    <glyph glyph-name="backslash" unicode="\" horiz-adv-x="525" 
d="M506 -240l-476 1075l53 23l476 -1074z" />
    <glyph glyph-name="bar" unicode="|" horiz-adv-x="315" 
d="M131 -232v1081h53v-1081h-53z" />
    <glyph glyph-name="parenleft" unicode="(" horiz-adv-x="393" 
d="M391 -262c-206 126 -306 348 -306 564c0 215 100 437 306 563l32 -45c-184 -114 -277 -320 -277 -518c0 -197 93 -404 277 -519z" />
    <glyph glyph-name="parenright" unicode=")" horiz-adv-x="393" 
d="M2 -262l-32 45c184 115 277 321 277 519c0 196 -93 404 -277 518l32 45c206 -126 306 -348 306 -563c0 -216 -100 -438 -306 -564z" />
    <glyph glyph-name="parenleft.lin" horiz-adv-x="374" 
d="M372 -183c-196 120 -291 330 -291 535s95 415 291 535l30 -44c-174 -108 -263 -303 -263 -491c0 -187 89 -383 263 -491z" />
    <glyph glyph-name="parenright.lin" horiz-adv-x="374" 
d="M2 -183l-31 44c175 108 263 303 263 491c0 187 -88 383 -263 491l31 44c196 -120 291 -330 291 -535s-95 -415 -291 -535z" />
    <glyph glyph-name="bracketleft" unicode="[" horiz-adv-x="405" 
d="M129 -232v1081h247v-55h-186v-971h186v-55h-247z" />
    <glyph glyph-name="bracketright" unicode="]" horiz-adv-x="405" 
d="M29 -232v55h186v971h-186v55h247v-1081h-247z" />
    <glyph glyph-name="bracketleft.lin" horiz-adv-x="385" 
d="M123 -154v1025h234v-53h-176v-919h176v-53h-234z" />
    <glyph glyph-name="bracketright.lin" horiz-adv-x="385" 
d="M28 -154v53h176v919h-176v53h234v-1025h-234z" />
    <glyph glyph-name="braceleft" unicode="{" horiz-adv-x="390" 
d="M320 -252c-150 4 -241 77 -241 177c0 59 32 94 87 152c31 32 58 64 58 99c0 64 -69 104 -143 104h-18v53h18c74 0 143 39 143 104c0 35 -27 66 -58 98c-55 58 -87 93 -87 153c0 99 91 173 241 176v-47c-131 -6 -182 -71 -182 -129c0 -38 32 -77 72 -120
c37 -41 73 -83 73 -130c0 -44 -29 -109 -133 -132c104 -23 133 -88 133 -131c0 -47 -36 -90 -73 -131c-40 -43 -72 -82 -72 -119c0 -58 51 -123 182 -129v-48z" />
    <glyph glyph-name="braceright" unicode="}" horiz-adv-x="390" 
d="M69 -252v48c132 6 183 71 183 129c0 37 -33 76 -72 119c-37 41 -73 84 -73 131c0 43 28 108 132 131c-104 23 -132 88 -132 132c0 47 36 89 73 130c39 43 72 82 72 120c0 58 -51 123 -183 129v47c150 -3 241 -77 241 -176c0 -60 -32 -95 -87 -153
c-31 -32 -58 -63 -58 -98c0 -65 69 -104 144 -104h18v-53h-18c-75 0 -144 -40 -144 -104c0 -35 27 -67 58 -99c55 -58 87 -93 87 -152c0 -100 -91 -173 -241 -177z" />
    <glyph glyph-name="braceleft.lin" horiz-adv-x="371" 
d="M320 -186c-150 4 -241 77 -241 177c0 59 32 94 87 152c31 32 58 64 58 99c0 64 -69 104 -143 104h-18v53h18c74 0 143 39 143 104c0 35 -27 66 -58 98c-55 58 -87 93 -87 153c0 99 91 173 241 176v-47c-131 -6 -182 -71 -182 -129c0 -38 32 -77 72 -120
c37 -41 73 -83 73 -130c0 -44 -29 -109 -133 -132c104 -23 133 -88 133 -131c0 -47 -36 -90 -73 -131c-40 -43 -72 -82 -72 -119c0 -58 51 -123 182 -129v-48z" />
    <glyph glyph-name="braceright.lin" horiz-adv-x="371" 
d="M69 -186v48c132 6 183 71 183 129c0 37 -33 76 -72 119c-37 41 -73 84 -73 131c0 43 28 108 132 131c-104 23 -132 88 -132 132c0 47 36 89 73 130c39 43 72 82 72 120c0 58 -51 123 -183 129v47c150 -3 241 -77 241 -176c0 -60 -32 -95 -87 -153
c-31 -32 -58 -63 -58 -98c0 -65 69 -104 144 -104h18v-53h-18c-75 0 -144 -40 -144 -104c0 -35 27 -67 58 -99c55 -58 87 -93 87 -152c0 -100 -91 -173 -241 -177z" />
    <glyph glyph-name="at" unicode="@" horiz-adv-x="939" 
d="M387 -202c-200 0 -326 150 -326 339c0 316 232 561 497 561c200 0 324 -130 324 -326c0 -182 -98 -328 -215 -328c-71 0 -99 51 -92 98c-31 -58 -90 -98 -156 -98c-84 0 -150 61 -150 163c0 132 102 242 215 242c81 0 122 -52 130 -101l24 97h52l-64 -256
c-16 -64 -1 -100 44 -100c93 0 167 140 167 284c0 164 -106 284 -280 284c-244 0 -450 -229 -450 -521c0 -159 108 -297 281 -297c68 0 132 17 188 47l19 -37c-62 -33 -134 -51 -208 -51zM430 93c99 0 166 105 166 194c0 71 -43 112 -111 112c-91 0 -157 -90 -157 -191
c0 -71 35 -115 102 -115z" />
    <glyph glyph-name="copyright" unicode="&#xa9;" horiz-adv-x="668" 
d="M334 -9c-160 0 -276 127 -276 284s116 285 276 285c161 0 276 -128 276 -285s-115 -284 -276 -284zM334 25c138 0 237 113 237 251s-99 251 -237 251c-137 0 -237 -113 -237 -251s100 -251 237 -251zM343 393c-58 0 -103 -51 -103 -112c0 -59 44 -112 108 -112
c33 0 61 13 86 37l22 -27c-28 -31 -68 -45 -109 -45c-87 0 -147 63 -147 145c0 88 70 148 143 148c68 0 109 -40 109 -69c0 -16 -11 -30 -26 -30c-14 0 -25 11 -25 25c0 7 2 13 6 17c-8 11 -28 23 -64 23z" />
    <glyph glyph-name="published" unicode="&#x2117;" horiz-adv-x="668" 
d="M334 -9c-160 0 -276 127 -276 284s116 285 276 285c161 0 276 -128 276 -285s-115 -284 -276 -284zM334 25c138 0 237 113 237 251s-99 251 -237 251c-137 0 -237 -113 -237 -251s100 -251 237 -251zM354 261c44 0 70 25 70 64c0 37 -30 59 -71 59h-39v-122
c8 0 21 -1 40 -1zM352 229c-16 0 -30 0 -38 1v-71h39v-32h-112v32h37v225h-37v33h113c62 0 108 -36 108 -92c0 -61 -44 -96 -110 -96z" />
    <glyph glyph-name="registered.alt" horiz-adv-x="668" 
d="M334 -9c-160 0 -276 127 -276 284s116 285 276 285c161 0 276 -128 276 -285s-115 -284 -276 -284zM334 25c138 0 237 113 237 251s-99 251 -237 251c-137 0 -237 -113 -237 -251s100 -251 237 -251zM330 394h-35v-111h33c44 0 75 21 75 57s-29 54 -73 54zM332 136h-110
v33h36v225h-36v32h110c65 0 108 -31 108 -85c0 -38 -26 -67 -61 -79l57 -93h34v-33h-59l-67 116h-49v-83h37v-33z" />
    <glyph glyph-name="registered" unicode="&#xae;" horiz-adv-x="459" 
d="M229 390c-116 0 -205 92 -205 206c0 116 89 208 205 208c115 0 206 -92 206 -208c0 -113 -92 -206 -206 -206zM229 770c-94 0 -168 -76 -168 -174c0 -97 74 -173 168 -173c93 0 168 77 168 173c0 98 -73 174 -168 174zM205 605h22c28 0 46 12 46 35c0 21 -17 32 -46 32
h-22v-67zM149 500v29h24v143h-24v29h79c46 0 79 -21 79 -60c0 -26 -17 -46 -39 -55l32 -57h24v-29h-46l-43 77h-30v-48h27v-29h-83z" />
    <glyph glyph-name="copyright.lin" horiz-adv-x="871" 
d="M436 -13c-207 0 -367 168 -367 375s160 375 367 375c206 0 367 -168 367 -375s-161 -375 -367 -375zM436 22c182 0 326 153 326 340s-144 340 -326 340c-183 0 -327 -153 -327 -340s144 -340 327 -340zM448 513c-80 0 -138 -66 -138 -146c0 -77 57 -145 141 -145
c43 0 79 17 110 47l28 -32c-36 -37 -86 -57 -138 -57c-112 0 -188 83 -188 186c0 111 86 189 186 189c78 0 136 -46 136 -89c0 -21 -14 -37 -33 -37s-32 12 -32 31c0 10 5 17 11 21c-10 15 -39 32 -83 32z" />
    <glyph glyph-name="published.lin" horiz-adv-x="871" 
d="M436 -13c-207 0 -367 168 -367 375s160 375 367 375c206 0 367 -168 367 -375s-161 -375 -367 -375zM436 22c182 0 326 153 326 340s-144 340 -326 340c-183 0 -327 -153 -327 -340s144 -340 327 -340zM451 310h-48v-88h49v-40h-140v40h46v281h-46v40h141
c76 0 134 -45 134 -115c0 -76 -54 -118 -136 -118zM454 349c54 0 87 30 87 79c0 47 -38 75 -89 75h-49v-153c10 0 28 -1 51 -1z" />
    <glyph glyph-name="registered.lin" horiz-adv-x="871" 
d="M436 -13c-207 0 -367 168 -367 375s160 375 367 375c206 0 367 -168 367 -375s-161 -375 -367 -375zM436 22c182 0 326 153 326 340s-144 340 -326 340c-183 0 -327 -153 -327 -340s144 -340 327 -340zM388 372h43c54 0 93 26 93 71c0 44 -35 67 -90 67h-46v-138z
M388 333v-105h48v-40h-137v40h45v282h-45v40h137c81 0 134 -39 134 -105c0 -50 -31 -85 -76 -99l71 -118h43v-40h-70l-84 145h-66z" />
    <glyph glyph-name="servicemark" unicode="&#x2120;" horiz-adv-x="651" 
d="M264 479v36h42l11 212h-43v36h90l85 -187l86 187h90v-36h-44l10 -212h44v-36h-116v36h35l-7 194l-89 -195h-19l-90 195l-6 -194h36v-36h-115zM120 474c-59 0 -103 33 -103 64c0 17 10 30 25 30c17 0 26 -12 26 -24c0 -8 -2 -13 -5 -17c11 -10 31 -17 57 -17
c37 0 61 17 61 45c0 26 -28 38 -62 50c-53 18 -91 35 -91 85c0 44 38 78 95 78c53 0 95 -27 95 -60c0 -17 -11 -27 -26 -27c-18 0 -28 10 -28 24c0 7 4 10 7 14c-9 7 -29 14 -48 14c-35 0 -56 -16 -56 -41c0 -27 31 -40 65 -51c52 -18 90 -34 90 -84s-44 -83 -102 -83z" />
    <glyph glyph-name="trademark" unicode="&#x2122;" horiz-adv-x="699" 
d="M86 479v36h44v214h-76v-44h-38v78h267v-78h-38v44h-76v-214h43v-36h-126zM312 479v36h42l10 212h-43v36h91l85 -187l86 187h90v-36h-44l9 -212h45v-36h-116v36h35l-7 194l-89 -195h-19l-90 195l-6 -194h36v-36h-115z" />
    <glyph glyph-name="asterisk" unicode="*" horiz-adv-x="450" 
d="M359 640l-117 -12l84 -79c25 -22 23 -49 5 -63c-20 -15 -46 -5 -58 23l-48 108l-48 -108c-13 -28 -38 -38 -59 -23c-18 13 -19 40 5 63l84 79l-116 12c-32 4 -46 28 -39 50c7 21 35 28 61 14l102 -55l-24 113c-6 31 11 53 34 53c22 0 40 -22 33 -53l-23 -113l102 55
c25 14 54 7 60 -14c7 -22 -7 -46 -38 -50z" />
    <glyph glyph-name="dagger" unicode="&#x2020;" horiz-adv-x="522" 
d="M244 -2l-11 460l-107 14c4 -38 -22 -65 -50 -65c-31 0 -48 26 -48 50c0 33 23 58 64 58c10 0 22 -2 34 -4l120 -25l-25 182c-7 44 8 70 40 70c31 0 46 -26 40 -70l-26 -182l121 25c12 2 24 4 34 4c41 0 64 -25 64 -58c0 -24 -17 -50 -48 -50c-28 0 -54 27 -51 65
l-106 -14l-12 -460h-33z" />
    <glyph glyph-name="daggerdbl" unicode="&#x2021;" horiz-adv-x="522" 
d="M261 -142c-32 0 -47 27 -40 70l22 147l-101 -22c-11 -2 -24 -5 -34 -5c-38 0 -65 26 -65 57c0 24 19 49 50 49c28 0 53 -24 50 -62l88 12l17 194l-17 195l-88 11c3 -38 -22 -61 -50 -61c-31 0 -50 24 -50 49c0 30 27 56 65 56c10 0 23 -2 34 -4l101 -23l-22 147
c-7 44 8 70 40 70c31 0 46 -27 40 -70l-22 -147l101 23c11 2 23 4 33 4c39 0 66 -26 66 -56c0 -25 -19 -49 -50 -49c-28 0 -54 23 -50 61l-88 -11l-17 -195l17 -194l88 -12c-4 38 22 62 50 62c31 0 50 -25 50 -49c0 -31 -27 -57 -66 -57c-10 0 -22 3 -33 5l-101 22l22 -147
c6 -42 -9 -70 -40 -70z" />
    <glyph glyph-name="asciicircum" unicode="^" horiz-adv-x="519" 
d="M122 435l-28 32l166 154l165 -154l-28 -32l-137 105z" />
    <glyph glyph-name="asciitilde" unicode="~" horiz-adv-x="497" 
d="M328 227c-44 0 -73 22 -100 45c-26 23 -40 31 -57 31c-28 0 -45 -27 -52 -66l-49 10c4 65 50 116 99 116c44 0 73 -22 100 -46c26 -22 40 -31 56 -31c29 0 46 27 53 67l49 -11c-4 -65 -50 -115 -99 -115z" />
    <glyph glyph-name="dollar" unicode="$" horiz-adv-x="516" 
d="M134 435c0 -51 52 -76 111 -98l15 197c-71 -3 -126 -35 -126 -99zM402 156c0 59 -51 88 -118 112l-15 -222c75 2 133 40 133 110zM316 660l-6 -81c85 -10 144 -53 144 -99c0 -27 -17 -45 -40 -45c-25 0 -45 18 -45 43c0 10 3 20 9 30c-10 8 -40 18 -74 23l-16 -209
c92 -33 169 -71 169 -167c0 -107 -89 -153 -191 -155l-9 -122l-48 4l8 120c-90 9 -166 50 -166 111c0 26 18 47 42 47c28 0 44 -19 44 -42c0 -11 -4 -22 -11 -33c12 -15 48 -32 98 -37l17 234c-84 28 -162 62 -162 153c0 86 81 143 183 146l6 82z" />
    <glyph glyph-name="dollar.lin" horiz-adv-x="626" 
d="M155 543c0 -69 51 -104 134 -135l24 266c-96 -2 -158 -58 -158 -131zM495 192c0 77 -61 113 -163 145l-25 -287c114 0 188 54 188 142zM295 -110l-53 5l10 108c-120 17 -194 88 -194 139c0 35 23 59 49 59s45 -19 45 -43c0 -21 -9 -37 -21 -50c18 -22 67 -46 127 -55
l26 299c-107 37 -186 84 -186 187c0 104 84 182 217 185l9 97l52 -5l-8 -96c95 -15 168 -73 168 -132c0 -34 -22 -53 -47 -53c-27 0 -47 20 -47 46c0 18 10 34 20 45c-17 20 -59 37 -101 44l-24 -278c121 -40 215 -84 215 -196c0 -124 -109 -196 -248 -196z" />
    <glyph glyph-name="sterling" unicode="&#xa3;" horiz-adv-x="531" 
d="M396 148h-191c1 -9 1 -19 1 -29c0 -74 -29 -122 -64 -157c38 -3 88 -16 120 -27c54 -19 84 -23 115 -23c50 0 75 18 98 62l44 -25c-31 -60 -74 -90 -140 -90c-38 0 -82 8 -137 30c-35 14 -70 23 -107 23c-9 0 -18 0 -25 -1c-26 -34 -61 -51 -87 -51c-24 0 -42 14 -42 32
c0 32 34 62 105 69c44 44 68 95 68 158c0 10 -1 19 -2 29h-113v48h103c-3 12 -8 25 -12 41c-12 38 -25 81 -25 143c0 110 77 210 201 210c97 0 175 -56 175 -115c0 -39 -23 -58 -46 -58c-24 0 -41 18 -41 43c0 18 10 34 19 39c-16 22 -45 41 -108 41
c-90 0 -146 -76 -146 -160c0 -59 12 -99 24 -137l14 -47h199v-48z" />
    <glyph glyph-name="sterling.lin" horiz-adv-x="613" 
d="M46 26c0 28 32 61 109 61c37 49 52 100 52 161c0 12 -1 24 -3 36h-112v48h102l-13 43c-16 46 -31 95 -31 159c0 111 89 203 201 203c108 0 178 -63 178 -127c0 -33 -23 -53 -48 -53c-27 0 -48 20 -48 46c0 17 12 34 19 41c-16 23 -48 40 -103 40
c-78 0 -144 -67 -144 -149c0 -57 14 -101 28 -144c6 -21 12 -40 16 -59h189v-48h-180c1 -12 2 -25 2 -37c0 -75 -24 -131 -51 -159c30 -2 66 -11 103 -22c57 -18 80 -24 115 -24c56 0 76 21 95 71l48 -20c-20 -68 -62 -106 -141 -106c-48 0 -79 10 -134 30
c-41 13 -71 23 -117 24h-1c-24 -34 -63 -56 -88 -55c-27 0 -43 16 -43 40z" />
    <glyph glyph-name="Euro" unicode="&#x20ac;" horiz-adv-x="662" 
d="M48 334v48h76c38 126 150 207 273 207c117 0 210 -73 210 -143c0 -31 -21 -54 -49 -54c-24 0 -42 18 -42 41c0 19 13 35 25 39c-15 28 -67 65 -144 65c-101 0 -179 -65 -212 -155h233v-48h-245c-3 -16 -4 -31 -4 -47c0 -17 1 -32 4 -48h245v-48h-231
c33 -85 111 -150 213 -150c67 0 125 26 177 75l34 -41c-58 -57 -136 -85 -211 -85c-138 0 -239 87 -275 201h-77v48h65c-2 15 -3 31 -3 47s1 32 3 48h-65z" />
    <glyph glyph-name="Euro.lin" horiz-adv-x="794" 
d="M41 415v50h107c38 171 169 271 326 271c134 0 242 -90 242 -180c0 -31 -18 -59 -53 -59c-26 0 -44 23 -44 45c0 23 13 41 30 49c-12 36 -89 91 -177 91c-130 0 -229 -77 -262 -217h292v-50h-300c-2 -18 -3 -37 -3 -57c0 -21 1 -42 4 -62h299v-51h-290
c31 -119 113 -203 248 -203c88 0 150 31 210 89l38 -40c-55 -63 -144 -104 -249 -104c-169 0 -274 110 -309 258h-109v51h100c-2 20 -3 41 -3 61s0 39 2 58h-99z" />
    <glyph glyph-name="yen" unicode="&#xa5;" horiz-adv-x="568" 
d="M398 0h-229v49h90v90h-161v47h161v80h-161v47h132l-136 217h-67v51h190v-51h-65l133 -215l130 215h-66v51h190v-51h-68l-137 -217h134v-47h-160v-80h160v-47h-160v-90h90v-49z" />
    <glyph glyph-name="yen.lin" horiz-adv-x="716" 
d="M219 0v53h109v110h-186v50h186v80h-186v51h157l-191 327h-80v53h230v-53h-81l183 -324l180 324h-82v53h230v-53h-81l-192 -327h158v-51h-186v-80h186v-50h-186v-110h109v-53h-277z" />
    <glyph glyph-name="cent" unicode="&#xa2;" horiz-adv-x="566" 
d="M118 287c0 -92 53 -163 140 -189l35 393c-83 -9 -175 -80 -175 -204zM510 404c0 -26 -21 -57 -53 -57c-18 0 -40 12 -40 43c0 8 9 30 28 39c-12 31 -58 54 -103 61l-35 -401c9 -1 19 -1 29 -1c59 0 109 18 163 54l-5 -57c-47 -34 -114 -47 -160 -47c-11 0 -21 0 -31 1
l-14 -161l-49 5l14 165c-114 31 -195 127 -195 240c0 132 108 244 238 252l11 125l49 -5l-11 -122c90 -12 164 -73 164 -134z" />
    <glyph glyph-name="cent.lin" horiz-adv-x="547" 
d="M110 372c0 -85 48 -150 128 -176l33 366c-83 -9 -161 -71 -161 -190zM219 -16l15 160c-110 29 -184 119 -184 229c0 131 99 231 225 238l13 127l49 -4l-11 -125c83 -13 152 -69 152 -127c0 -25 -19 -58 -51 -58c-17 0 -40 11 -40 41c0 7 9 30 27 39c-11 28 -51 48 -92 56
l-34 -374c9 -1 19 -2 30 -2c44 0 94 17 150 54l-5 -58c-44 -31 -106 -46 -150 -46c-11 0 -21 0 -31 1l-13 -155z" />
    <glyph glyph-name="numbersign" unicode="#" horiz-adv-x="581" 
d="M223 382l-29 -179h163l28 179h-162zM58 382v50h122l23 149h51l-24 -149h162l24 149h51l-24 -149h116v-50h-124l-27 -179h115v-51h-123l-24 -152h-50l23 152h-163l-22 -152h-51l23 152h-114v51h122l28 179h-114z" />
    <glyph glyph-name="numbersign.lin" horiz-adv-x="635" 
d="M261 466l-33 -217h144l33 217h-144zM70 466v45h148l33 212h50l-33 -212h143l34 212h49l-33 -212h149v-45h-156l-33 -217h144v-45h-151l-31 -204h-50l32 204h-144l-32 -204h-49l31 204h-146v45h153l33 217h-141z" />
    <glyph glyph-name="paragraph" unicode="&#xb6;" horiz-adv-x="657" 
d="M250 0v49h92v174c-19 -1 -58 -1 -91 -1c-119 0 -206 70 -206 182c0 104 91 177 209 177h348v-51h-88v-479h88v-51h-352zM395 49h67v483h-67v-483z" />
    <glyph glyph-name="paragraph.lin" horiz-adv-x="740" 
d="M286 0v53h102v219c-24 -1 -42 -1 -83 -1c-157 0 -261 89 -261 228c0 137 115 225 265 225h369v-53h-97v-618h97v-53h-392zM448 50h73v624h-73v-624z" />
    <glyph glyph-name="section" unicode="&#xa7;" horiz-adv-x="532" 
d="M267 218l40 -11c47 15 83 40 83 73c0 38 -32 56 -125 79c-15 3 -28 6 -40 10c-45 -15 -82 -42 -82 -72c0 -39 31 -57 124 -79zM276 589c85 0 160 -39 160 -91c0 -25 -15 -45 -39 -45c-26 0 -42 18 -42 44c0 7 2 14 4 21c-12 11 -51 23 -83 23c-68 0 -103 -27 -103 -59
c0 -34 31 -52 122 -76c94 -24 158 -55 158 -119c0 -50 -41 -81 -94 -99c40 -20 64 -47 64 -89c0 -57 -62 -112 -165 -112c-87 0 -162 39 -162 91c0 24 15 44 40 44s42 -17 42 -42c0 -8 -1 -15 -5 -21c14 -14 51 -24 83 -24c68 0 104 27 104 59c0 35 -30 51 -123 75
c-94 25 -158 55 -158 117c0 49 40 84 93 102c-42 20 -63 47 -63 89c0 55 62 112 167 112z" />
    <glyph glyph-name="section.lin" horiz-adv-x="599" 
d="M296 460c-19 4 -36 9 -52 13c-61 -21 -107 -58 -107 -106c0 -42 28 -71 166 -104c18 -4 35 -8 51 -13c63 22 108 59 108 107c0 42 -29 71 -166 103zM136 146c27 0 47 -17 47 -44c0 -10 -1 -21 -8 -32c15 -16 70 -32 109 -32c88 0 143 34 143 81c0 42 -23 62 -158 97
c-118 30 -197 67 -197 144c0 62 57 107 121 132c-56 25 -82 57 -82 110c0 71 81 135 203 135c50 0 94 -12 128 -30c39 -21 64 -51 64 -81c0 -27 -19 -48 -43 -48c-27 0 -47 17 -47 44c0 10 1 21 8 32c-4 4 -12 9 -22 14c-25 10 -60 18 -87 18c-88 0 -143 -35 -143 -81
c0 -42 23 -62 158 -97c118 -30 197 -67 197 -144c0 -62 -56 -106 -119 -133c51 -22 79 -52 79 -106c0 -76 -80 -138 -202 -138c-67 0 -125 21 -158 51c-22 18 -34 39 -34 60c0 27 18 48 43 48z" />
    <glyph glyph-name="ordfeminine" unicode="&#xaa;" horiz-adv-x="402" 
d="M160 511c35 0 67 19 89 43v50c-21 6 -51 12 -81 12c-47 0 -72 -23 -72 -54c0 -29 22 -51 64 -51zM149 475c-57 0 -96 35 -96 84c0 53 46 88 111 88c31 0 70 -8 85 -14v42c0 23 -8 39 -22 50c-12 9 -31 14 -55 14c-25 0 -39 -5 -48 -12c2 -5 4 -11 4 -18
c0 -16 -11 -28 -28 -28c-18 0 -30 13 -30 30c0 32 39 66 107 66c32 0 57 -7 76 -19c25 -16 38 -44 38 -76v-164h47v-37h-88v38c-24 -23 -61 -44 -101 -44zM63 356v41h275v-41h-275z" />
    <glyph glyph-name="ordmasculine" unicode="&#xba;" horiz-adv-x="417" 
d="M210 475c-90 0 -151 69 -151 151c0 83 61 152 151 152c89 0 148 -68 148 -152c0 -82 -59 -151 -148 -151zM210 512c61 0 103 49 103 114c0 66 -42 114 -103 114c-63 0 -105 -48 -105 -114c0 -65 42 -114 105 -114zM77 356v41h264v-41h-264z" />
    <glyph glyph-name="ordfeminine.lin" horiz-adv-x="382" 
d="M160 591c35 0 67 19 89 43v50c-21 6 -51 12 -81 12c-47 0 -72 -23 -72 -54c0 -29 22 -51 64 -51zM149 555c-57 0 -96 35 -96 84c0 53 46 88 111 88c31 0 70 -8 85 -14v42c0 23 -8 39 -22 50c-12 9 -31 14 -55 14c-25 0 -39 -5 -48 -12c2 -5 4 -11 4 -18
c0 -16 -11 -28 -28 -28c-18 0 -30 13 -30 30c0 32 39 66 107 66c32 0 57 -7 76 -19c25 -16 38 -44 38 -76v-164h47v-37h-88v38c-24 -23 -61 -44 -101 -44zM63 436v41h275v-41h-275z" />
    <glyph glyph-name="ordmasculine.lin" horiz-adv-x="397" 
d="M210 555c-90 0 -151 69 -151 151c0 83 61 152 151 152c89 0 148 -68 148 -152c0 -82 -59 -151 -148 -151zM210 592c61 0 103 49 103 114c0 66 -42 114 -103 114c-63 0 -105 -48 -105 -114c0 -65 42 -114 105 -114zM77 436v41h264v-41h-264z" />
    <glyph glyph-name="degree" unicode="&#xb0;" horiz-adv-x="357" 
d="M178 485c-86 0 -145 67 -145 146c0 80 59 147 145 147c84 0 142 -66 142 -147c0 -79 -58 -146 -142 -146zM178 524c58 0 98 47 98 107c0 61 -40 108 -98 108c-59 0 -99 -47 -99 -108c0 -60 40 -107 99 -107z" />
    <glyph glyph-name="degree.lin" horiz-adv-x="340" 
d="M178 565c-86 0 -145 67 -145 146c0 80 59 147 145 147c84 0 142 -66 142 -147c0 -79 -58 -146 -142 -146zM178 604c58 0 98 47 98 107c0 61 -40 108 -98 108c-59 0 -99 -47 -99 -108c0 -60 40 -107 99 -107z" />
    <glyph glyph-name="percent" unicode="%" horiz-adv-x="730" 
d="M198 318c-75 0 -132 62 -132 137s57 136 132 136s133 -61 133 -136s-58 -137 -133 -137zM155 -28l-37 29l224 292c80 104 213 278 223 293l38 -28l-226 -295zM198 364c49 0 84 41 84 91c0 49 -35 91 -84 91c-48 0 -83 -42 -83 -91c0 -50 35 -91 83 -91zM532 263
c75 0 133 -61 133 -136s-58 -136 -133 -136s-132 61 -132 136s57 136 132 136zM532 218c-48 0 -83 -41 -83 -91c0 -49 35 -91 83 -91c49 0 84 42 84 91c0 50 -35 91 -84 91z" />
    <glyph glyph-name="perthousand" unicode="&#x2030;" horiz-adv-x="1038" 
d="M198 318c-75 0 -132 62 -132 137s57 136 132 136s133 -61 133 -136s-58 -137 -133 -137zM155 -28l-37 29l224 292c80 104 213 278 223 293l38 -28l-226 -295zM198 364c49 0 84 41 84 91c0 49 -35 91 -84 91c-48 0 -83 -42 -83 -91c0 -50 35 -91 83 -91zM532 -9
c-75 0 -132 61 -132 136s57 136 132 136s133 -61 133 -136s-58 -136 -133 -136zM840 -9c-75 0 -132 61 -132 136s57 136 132 136s132 -61 132 -136s-57 -136 -132 -136zM840 36c48 0 83 42 83 91c0 50 -35 91 -83 91s-83 -41 -83 -91c0 -49 35 -91 83 -91zM532 36
c49 0 84 42 84 91c0 50 -35 91 -84 91c-48 0 -83 -41 -83 -91c0 -49 35 -91 83 -91z" />
    <glyph glyph-name="percent.lin" horiz-adv-x="711" 
d="M43 579c0 86 68 158 155 158c86 0 154 -72 154 -158c0 -87 -68 -159 -154 -159c-87 0 -155 72 -155 159zM123 -11l-42 28c9 11 161 228 253 358c92 129 244 345 255 359l41 -27l-256 -362c-91 -129 -244 -345 -251 -356zM94 579c0 -62 45 -113 104 -113
c58 0 103 51 103 113c0 61 -45 112 -103 112c-59 0 -104 -51 -104 -112zM359 145c0 87 68 159 155 159c86 0 154 -72 154 -159s-68 -158 -154 -158c-87 0 -155 71 -155 158zM410 145c0 -61 46 -112 104 -112s103 51 103 112c0 62 -45 113 -103 113c-59 0 -104 -51 -104 -113
z" />
    <glyph glyph-name="perthousand.lin" horiz-adv-x="1078" 
d="M43 579c0 86 68 158 155 158c86 0 154 -72 154 -158c0 -87 -68 -159 -154 -159c-87 0 -155 72 -155 159zM123 -11l-42 28c9 11 161 228 253 358c92 129 244 345 255 359l41 -27l-256 -362c-91 -129 -244 -345 -251 -356zM94 579c0 -62 45 -113 104 -113
c58 0 103 51 103 113c0 61 -45 112 -103 112c-59 0 -104 -51 -104 -112zM359 145c0 87 68 159 155 159c86 0 154 -72 154 -159s-68 -158 -154 -158c-87 0 -155 71 -155 158zM726 145c0 87 68 159 155 159s154 -72 154 -159s-67 -158 -154 -158s-155 71 -155 158zM777 145
c0 -61 46 -112 104 -112s103 51 103 112c0 62 -45 113 -103 113c-59 0 -104 -51 -104 -113zM410 145c0 -61 46 -112 104 -112s103 51 103 112c0 62 -45 113 -103 113c-59 0 -104 -51 -104 -113z" />
    <glyph glyph-name="quotedbl" unicode="&#x22;" horiz-adv-x="352" 
d="M80 516l-33 193c-7 40 12 68 44 68c31 0 50 -26 43 -68l-33 -193h-21zM250 516l-32 193c-8 40 12 68 43 68s51 -26 43 -68l-33 -193h-21z" />
    <glyph glyph-name="quotesingle" unicode="'" horiz-adv-x="182" 
d="M80 516l-33 193c-7 40 12 68 44 68c31 0 50 -26 43 -68l-33 -193h-21z" />
    <glyph glyph-name="quotedbl.lin" horiz-adv-x="336" 
d="M80 596l-33 193c-7 40 12 68 44 68c31 0 50 -26 43 -68l-33 -193h-21zM250 596l-32 193c-8 40 12 68 43 68s51 -26 43 -68l-33 -193h-21z" />
    <glyph glyph-name="quotesingle.lin" horiz-adv-x="174" 
d="M80 596l-33 193c-7 40 12 68 44 68c31 0 50 -26 43 -68l-33 -193h-21z" />
    <glyph glyph-name="plus" unicode="+" horiz-adv-x="468" 
d="M206 123v158h-156v53h156v158h56v-158h156v-53h-156v-158h-56z" />
    <glyph glyph-name="plus.lin" horiz-adv-x="445" 
d="M206 203v158h-156v53h156v158h56v-158h156v-53h-156v-158h-56z" />
    <glyph glyph-name="minus" unicode="&#x2212;" horiz-adv-x="468" 
d="M50 281v53h368v-53h-368z" />
    <glyph glyph-name="minus.lin" horiz-adv-x="445" 
d="M50 361v53h368v-53h-368z" />
    <glyph glyph-name="divide" unicode="&#xf7;" horiz-adv-x="468" 
d="M234 410c-26 0 -47 22 -47 48s21 48 47 48c25 0 46 -22 46 -48s-21 -48 -46 -48zM418 281h-368v53h368v-53zM234 108c-26 0 -47 23 -47 48c0 26 21 49 47 49c25 0 46 -23 46 -49c0 -25 -21 -48 -46 -48z" />
    <glyph glyph-name="divide.lin" horiz-adv-x="445" 
d="M234 490c-26 0 -47 22 -47 48s21 48 47 48c25 0 46 -22 46 -48s-21 -48 -46 -48zM418 361h-368v53h368v-53zM234 188c-26 0 -47 23 -47 48c0 26 21 49 47 49c25 0 46 -23 46 -49c0 -25 -21 -48 -46 -48z" />
    <glyph glyph-name="equal" unicode="=" horiz-adv-x="468" 
d="M50 355v53h368v-53h-368zM50 184v53h368v-53h-368z" />
    <glyph glyph-name="equal.lin" horiz-adv-x="445" 
d="M50 435v53h368v-53h-368zM50 264v53h368v-53h-368z" />
    <glyph glyph-name="multiply" unicode="&#xd7;" horiz-adv-x="468" 
d="M357 144l-124 126l-123 -125l-38 38l125 123l-126 124l39 39l124 -125l123 124l38 -38l-124 -123l125 -124z" />
    <glyph glyph-name="multiply.lin" horiz-adv-x="445" 
d="M357 224l-124 126l-123 -125l-38 38l125 123l-126 124l39 39l124 -125l123 124l38 -38l-124 -123l125 -124z" />
    <glyph glyph-name="less" unicode="&#x3c;" horiz-adv-x="445" 
d="M335 99l-286 188v21l286 188l29 -43l-237 -156l237 -155z" />
    <glyph glyph-name="less.lin" horiz-adv-x="423" 
d="M335 179l-286 188v21l286 188l29 -43l-237 -156l237 -155z" />
    <glyph glyph-name="greater" unicode="&#x3e;" horiz-adv-x="445" 
d="M110 99l-29 43l237 155l-237 156l29 43l286 -188v-21z" />
    <glyph glyph-name="greater.lin" horiz-adv-x="423" 
d="M110 179l-29 43l237 155l-237 156l29 43l286 -188v-21z" />
    <glyph glyph-name="plusminus" unicode="&#xb1;" horiz-adv-x="468" 
d="M206 167v158h-156v53h156v158h56v-158h156v-53h-156v-158h-56zM50 27v52h368v-52h-368z" />
    <glyph glyph-name="plusminus.lin" horiz-adv-x="445" 
d="M206 247v158h-156v53h156v158h56v-158h156v-53h-156v-158h-56zM50 107v52h368v-52h-368z" />
    <glyph glyph-name="onehalf" unicode="&#xbd;" horiz-adv-x="885" 
d="M257 -13l-35 21c23 39 132 218 215 355c79 131 194 319 213 350l35 -22c-20 -33 -134 -218 -213 -349zM63 309v41h107v309l-103 -25l-9 41l136 35h22v-360h106v-41h-259zM557 -1c-1 0 -13 21 -13 21c26 83 88 133 141 171c47 33 80 59 80 103c0 41 -38 71 -82 71
c-47 0 -75 -24 -79 -37c11 -4 19 -16 19 -29c0 -18 -14 -33 -32 -33c-23 0 -36 18 -36 43c0 45 50 96 130 96c70 0 129 -45 129 -111c0 -63 -45 -95 -101 -134c-50 -33 -95 -74 -113 -122h179v64h41v-103h-263z" />
    <glyph glyph-name="onethird" unicode="&#x2153;" horiz-adv-x="885" 
d="M253 -13l-35 21c23 39 132 218 215 355c79 131 194 319 213 350l35 -22c-20 -33 -134 -218 -213 -349zM64 309v41h107v309l-103 -25l-9 41l136 35h22v-360h106v-41h-259zM683 -7c-71 0 -137 38 -137 86c0 22 16 39 35 39c20 0 31 -14 31 -32c0 -10 -5 -20 -13 -24
c7 -9 39 -30 84 -30c58 0 97 34 97 75c0 47 -43 78 -115 78h-24v41h26c59 0 104 30 104 74c0 41 -38 64 -86 64c-40 0 -65 -14 -74 -26c7 -4 14 -13 14 -24c0 -17 -13 -31 -30 -31c-19 0 -36 15 -36 39c0 35 45 81 128 81c77 0 130 -45 130 -101c0 -47 -44 -85 -94 -95
c55 -10 104 -52 104 -101c0 -66 -61 -113 -144 -113z" />
    <glyph glyph-name="twothirds" unicode="&#x2154;" horiz-adv-x="885" 
d="M69 309c-1 0 -13 21 -13 21c26 83 88 133 141 171c47 33 80 59 80 103c0 41 -38 71 -82 71c-47 0 -75 -24 -79 -37c11 -4 19 -16 19 -29c0 -18 -14 -33 -32 -33c-23 0 -36 18 -36 43c0 45 50 96 130 96c70 0 129 -45 129 -111c0 -63 -45 -95 -101 -134
c-50 -33 -95 -74 -113 -122h179v64h41v-103h-263zM267 -13l-35 21c23 39 132 218 215 355c79 131 194 319 213 350l35 -22c-20 -33 -134 -218 -213 -349zM685 -7c-71 0 -137 38 -137 86c0 22 16 39 35 39c20 0 31 -14 31 -32c0 -10 -5 -20 -13 -24c7 -9 39 -30 84 -30
c58 0 97 34 97 75c0 47 -43 78 -115 78h-24v41h26c59 0 104 30 104 74c0 41 -38 64 -86 64c-40 0 -65 -14 -74 -26c7 -4 14 -13 14 -24c0 -17 -13 -31 -30 -31c-19 0 -36 15 -36 39c0 35 45 81 128 81c77 0 130 -45 130 -101c0 -47 -44 -85 -94 -95c55 -10 104 -52 104 -101
c0 -66 -61 -113 -144 -113z" />
    <glyph glyph-name="onequarter" unicode="&#xbc;" horiz-adv-x="885" 
d="M268 -13l-35 21c23 39 132 218 215 355c79 131 194 319 213 350l35 -22c-20 -33 -134 -218 -213 -349zM65 309v41h107v309l-103 -25l-9 41l136 35h22v-360h106v-41h-259zM634 -1v39h74v78h-187l-9 20l209 272l34 -27l-178 -227h131v85l44 18v-103h66v-38h-66v-78h53v-39
h-171z" />
    <glyph glyph-name="threequarters" unicode="&#xbe;" horiz-adv-x="885" 
d="M271 -13l-35 21c23 39 132 218 215 355c79 131 194 319 213 350l35 -22c-20 -33 -134 -218 -213 -349zM210 303c-71 0 -137 38 -137 86c0 22 16 39 35 39c20 0 31 -14 31 -32c0 -10 -5 -20 -13 -24c7 -9 39 -30 84 -30c58 0 97 34 97 75c0 47 -43 78 -115 78h-24v41h26
c59 0 104 30 104 74c0 41 -38 64 -86 64c-40 0 -65 -14 -74 -26c7 -4 14 -13 14 -24c0 -17 -13 -31 -30 -31c-19 0 -36 15 -36 39c0 35 45 81 128 81c77 0 130 -45 130 -101c0 -47 -44 -85 -94 -95c55 -10 104 -52 104 -101c0 -66 -61 -113 -144 -113zM631 -1v39h74v78h-187
l-9 20l209 272l34 -27l-178 -227h131v85l44 18v-103h66v-38h-66v-78h53v-39h-171z" />
    <glyph glyph-name="onefifth" unicode="&#x2155;" horiz-adv-x="885" 
d="M257 -13l-35 21c23 39 132 218 215 355c79 131 194 319 213 350l35 -22c-20 -33 -134 -218 -213 -349zM64 309v41h107v309l-103 -25l-9 41l136 35h22v-360h106v-41h-259zM690 -9c-77 0 -128 37 -128 74c0 19 14 35 35 35c20 0 32 -14 32 -31c0 -7 -3 -14 -7 -18
c9 -9 34 -18 67 -18c64 0 102 40 102 94c0 45 -33 83 -99 83c-32 0 -67 -10 -89 -21l-22 11l20 197h212v-44h-173l-11 -112c15 5 36 10 66 10c84 0 143 -47 143 -124c0 -83 -67 -136 -148 -136z" />
    <glyph glyph-name="twofifths" unicode="&#x2156;" horiz-adv-x="885" 
d="M73 309c-1 0 -13 21 -13 21c26 83 88 133 141 171c47 33 80 59 80 103c0 41 -38 71 -82 71c-47 0 -75 -24 -79 -37c11 -4 19 -16 19 -29c0 -18 -14 -33 -32 -33c-23 0 -36 18 -36 43c0 45 50 96 130 96c70 0 129 -45 129 -111c0 -63 -45 -95 -101 -134
c-50 -33 -95 -74 -113 -122h179v64h41v-103h-263zM275 -13l-35 21c23 39 132 218 215 355c79 131 194 319 213 350l35 -22c-20 -33 -134 -218 -213 -349zM695 -9c-77 0 -128 37 -128 74c0 19 14 35 35 35c20 0 32 -14 32 -31c0 -7 -3 -14 -7 -18c9 -9 34 -18 67 -18
c64 0 102 40 102 94c0 45 -33 83 -99 83c-32 0 -67 -10 -89 -21l-22 11l20 197h212v-44h-173l-11 -112c15 5 36 10 66 10c84 0 143 -47 143 -124c0 -83 -67 -136 -148 -136z" />
    <glyph glyph-name="threefifths" unicode="&#x2157;" horiz-adv-x="885" 
d="M252 -13l-35 21c23 39 132 218 215 355c79 131 194 319 213 350l35 -22c-20 -33 -134 -218 -213 -349zM199 303c-71 0 -137 38 -137 86c0 22 16 39 35 39c20 0 31 -14 31 -32c0 -10 -5 -20 -13 -24c7 -9 39 -30 84 -30c58 0 97 34 97 75c0 47 -43 78 -115 78h-24v41h26
c59 0 104 30 104 74c0 41 -38 64 -86 64c-40 0 -65 -14 -74 -26c7 -4 14 -13 14 -24c0 -17 -13 -31 -30 -31c-19 0 -36 15 -36 39c0 35 45 81 128 81c77 0 130 -45 130 -101c0 -47 -44 -85 -94 -95c55 -10 104 -52 104 -101c0 -66 -61 -113 -144 -113zM689 -9
c-77 0 -128 37 -128 74c0 19 14 35 35 35c20 0 32 -14 32 -31c0 -7 -3 -14 -7 -18c9 -9 34 -18 67 -18c64 0 102 40 102 94c0 45 -33 83 -99 83c-32 0 -67 -10 -89 -21l-22 11l20 197h212v-44h-173l-11 -112c15 5 36 10 66 10c84 0 143 -47 143 -124
c0 -83 -67 -136 -148 -136z" />
    <glyph glyph-name="fourfifths" unicode="&#x2158;" horiz-adv-x="885" 
d="M168 309v39h74v78h-187l-9 20l209 272l34 -27l-178 -227h131v85l44 18v-103h66v-38h-66v-78h53v-39h-171zM273 -13l-35 21c23 39 132 218 215 355c79 131 194 319 213 350l35 -22c-20 -33 -134 -218 -213 -349zM689 -9c-77 0 -128 37 -128 74c0 19 14 35 35 35
c20 0 32 -14 32 -31c0 -7 -3 -14 -7 -18c9 -9 34 -18 67 -18c64 0 102 40 102 94c0 45 -33 83 -99 83c-32 0 -67 -10 -89 -21l-22 11l20 197h212v-44h-173l-11 -112c15 5 36 10 66 10c84 0 143 -47 143 -124c0 -83 -67 -136 -148 -136z" />
    <glyph glyph-name="onesixth" unicode="&#x2159;" horiz-adv-x="885" 
d="M251 -13l-35 21c23 39 132 218 215 355c79 131 194 319 213 350l35 -22c-20 -33 -134 -218 -213 -349zM58 309v41h107v309l-103 -25l-9 41l136 35h22v-360h106v-41h-259zM804 335c0 -21 -14 -34 -32 -34c-22 0 -32 13 -32 30c0 7 2 15 6 19c-8 9 -26 15 -44 15
c-68 0 -119 -72 -120 -181c23 38 63 60 112 60c79 0 132 -52 132 -124c0 -71 -55 -129 -139 -129c-45 0 -79 16 -106 43c-32 32 -43 75 -43 137c0 162 79 234 165 234c38 0 65 -12 82 -29c14 -14 19 -27 19 -41zM687 33c55 0 92 37 92 86s-35 85 -92 85
c-55 0 -96 -37 -96 -84c0 -23 9 -45 25 -60c17 -17 43 -27 71 -27z" />
    <glyph glyph-name="fivesixths" unicode="&#x215a;" horiz-adv-x="885" 
d="M253 -13l-35 21c23 39 132 218 215 355c79 131 194 319 213 350l35 -22c-20 -33 -134 -218 -213 -349zM192 301c-77 0 -128 37 -128 74c0 19 14 35 35 35c20 0 32 -14 32 -31c0 -7 -3 -14 -7 -18c9 -9 34 -18 67 -18c64 0 102 40 102 94c0 45 -33 83 -99 83
c-32 0 -67 -10 -89 -21l-22 11l20 197h212v-44h-173l-11 -112c15 5 36 10 66 10c84 0 143 -47 143 -124c0 -83 -67 -136 -148 -136zM806 335c0 -21 -14 -34 -32 -34c-22 0 -32 13 -32 30c0 7 2 15 6 19c-8 9 -26 15 -44 15c-68 0 -119 -72 -120 -181c23 38 63 60 112 60
c79 0 132 -52 132 -124c0 -71 -55 -129 -139 -129c-45 0 -79 16 -106 43c-32 32 -43 75 -43 137c0 162 79 234 165 234c38 0 65 -12 82 -29c14 -14 19 -27 19 -41zM689 33c55 0 92 37 92 86s-35 85 -92 85c-55 0 -96 -37 -96 -84c0 -23 9 -45 25 -60c17 -17 43 -27 71 -27z
" />
    <glyph glyph-name="oneeighth" unicode="&#x215b;" horiz-adv-x="885" 
d="M244 -13l-35 21c23 39 132 218 215 355c79 131 194 319 213 350l35 -22c-20 -33 -134 -218 -213 -349zM59 309v41h107v309l-103 -25l-9 41l136 35h22v-360h106v-41h-259zM690 -7c-84 0 -142 48 -142 108c0 48 40 92 93 105c-54 16 -83 55 -83 95c0 61 58 102 132 102
c72 0 132 -41 132 -102c0 -40 -31 -79 -85 -95c54 -13 93 -57 93 -105c0 -60 -58 -108 -140 -108zM690 224c46 0 84 30 84 69c0 41 -36 70 -84 70c-50 0 -86 -29 -86 -70c0 -39 39 -69 86 -69zM690 34c54 0 93 32 93 75c0 41 -42 77 -93 77c-53 0 -93 -36 -93 -77
c0 -43 38 -75 93 -75z" />
    <glyph glyph-name="threeeighths" unicode="&#x215c;" horiz-adv-x="885" 
d="M246 -13l-35 21c23 39 132 218 215 355c79 131 194 319 213 350l35 -22c-20 -33 -134 -218 -213 -349zM199 303c-71 0 -137 38 -137 86c0 22 16 39 35 39c20 0 31 -14 31 -32c0 -10 -5 -20 -13 -24c7 -9 39 -30 84 -30c58 0 97 34 97 75c0 47 -43 78 -115 78h-24v41h26
c59 0 104 30 104 74c0 41 -38 64 -86 64c-40 0 -65 -14 -74 -26c7 -4 14 -13 14 -24c0 -17 -13 -31 -30 -31c-19 0 -36 15 -36 39c0 35 45 81 128 81c77 0 130 -45 130 -101c0 -47 -44 -85 -94 -95c55 -10 104 -52 104 -101c0 -66 -61 -113 -144 -113zM690 -7
c-84 0 -142 48 -142 108c0 48 40 92 93 105c-54 16 -83 55 -83 95c0 61 58 102 132 102c72 0 132 -41 132 -102c0 -40 -31 -79 -85 -95c54 -13 93 -57 93 -105c0 -60 -58 -108 -140 -108zM690 224c46 0 84 30 84 69c0 41 -36 70 -84 70c-50 0 -86 -29 -86 -70
c0 -39 39 -69 86 -69zM690 34c54 0 93 32 93 75c0 41 -42 77 -93 77c-53 0 -93 -36 -93 -77c0 -43 38 -75 93 -75z" />
    <glyph glyph-name="fiveeighths" unicode="&#x215d;" horiz-adv-x="885" 
d="M234 -13l-35 21c23 39 132 218 215 355c79 131 194 319 213 350l35 -22c-20 -33 -134 -218 -213 -349zM181 301c-77 0 -128 37 -128 74c0 19 14 35 35 35c20 0 32 -14 32 -31c0 -7 -3 -14 -7 -18c9 -9 34 -18 67 -18c64 0 102 40 102 94c0 45 -33 83 -99 83
c-32 0 -67 -10 -89 -21l-22 11l20 197h212v-44h-173l-11 -112c15 5 36 10 66 10c84 0 143 -47 143 -124c0 -83 -67 -136 -148 -136zM681 -7c-84 0 -142 48 -142 108c0 48 40 92 93 105c-54 16 -83 55 -83 95c0 61 58 102 132 102c72 0 132 -41 132 -102
c0 -40 -31 -79 -85 -95c54 -13 93 -57 93 -105c0 -60 -58 -108 -140 -108zM681 224c46 0 84 30 84 69c0 41 -36 70 -84 70c-50 0 -86 -29 -86 -70c0 -39 39 -69 86 -69zM681 34c54 0 93 32 93 75c0 41 -42 77 -93 77c-53 0 -93 -36 -93 -77c0 -43 38 -75 93 -75z" />
    <glyph glyph-name="seveneighths" unicode="&#x215e;" horiz-adv-x="887" 
d="M202 -13l-35 21c23 39 132 218 215 355c79 131 194 319 213 350l35 -22c-20 -33 -134 -218 -213 -349zM139 309l165 359h-176v-67h-42v106h263l10 -20l-172 -378h-48zM663 -7c-84 0 -142 48 -142 108c0 48 40 92 93 105c-54 16 -83 55 -83 95c0 61 58 102 132 102
c72 0 132 -41 132 -102c0 -40 -31 -79 -85 -95c54 -13 93 -57 93 -105c0 -60 -58 -108 -140 -108zM663 224c46 0 84 30 84 69c0 41 -36 70 -84 70c-50 0 -86 -29 -86 -70c0 -39 39 -69 86 -69zM663 34c54 0 93 32 93 75c0 41 -42 77 -93 77c-53 0 -93 -36 -93 -77
c0 -43 38 -75 93 -75z" />
    <glyph glyph-name="zero.sup" unicode="&#x2070;" horiz-adv-x="421" 
d="M200 475c-88 0 -150 83 -150 205c0 126 63 207 151 207c86 0 149 -81 149 -205c0 -125 -63 -207 -150 -207zM200 518c61 0 102 66 102 162c0 98 -41 164 -102 164s-102 -66 -102 -162c0 -98 41 -164 102 -164z" />
    <glyph glyph-name="one.sup" unicode="&#xb9;" horiz-adv-x="421" 
d="M79 483v41h107v309l-103 -25l-9 41l136 35h22v-360h106v-41h-259z" />
    <glyph glyph-name="two.sup" unicode="&#xb2;" horiz-adv-x="421" 
d="M73 483c-1 0 -13 21 -13 21c26 83 88 133 141 171c47 33 80 59 80 103c0 41 -38 71 -82 71c-47 0 -75 -24 -79 -37c11 -4 19 -16 19 -29c0 -18 -14 -33 -32 -33c-23 0 -36 18 -36 43c0 45 50 96 130 96c70 0 129 -45 129 -111c0 -63 -45 -95 -101 -134
c-50 -33 -95 -74 -113 -122h179v64h41v-103h-263z" />
    <glyph glyph-name="three.sup" unicode="&#xb3;" horiz-adv-x="421" 
d="M194 477c-71 0 -137 38 -137 86c0 22 16 39 35 39c20 0 31 -14 31 -32c0 -10 -5 -20 -13 -24c7 -9 39 -30 84 -30c58 0 97 34 97 75c0 47 -43 78 -115 78h-24v41h26c59 0 104 30 104 74c0 41 -38 64 -86 64c-40 0 -65 -14 -74 -26c7 -4 14 -13 14 -24
c0 -17 -13 -31 -30 -31c-19 0 -36 15 -36 39c0 35 45 81 128 81c77 0 130 -45 130 -101c0 -47 -44 -85 -94 -95c55 -10 104 -52 104 -101c0 -66 -61 -113 -144 -113z" />
    <glyph glyph-name="four.sup" unicode="&#x2074;" horiz-adv-x="421" 
d="M166 483v39h74v78h-187l-9 20l209 272l34 -27l-178 -227h131v85l44 18v-103h66v-38h-66v-78h53v-39h-171z" />
    <glyph glyph-name="five.sup" unicode="&#x2075;" horiz-adv-x="421" 
d="M188 475c-77 0 -128 37 -128 74c0 19 14 35 35 35c20 0 32 -14 32 -31c0 -7 -3 -14 -7 -18c9 -9 34 -18 67 -18c64 0 102 40 102 94c0 45 -33 83 -99 83c-32 0 -67 -10 -89 -21l-22 11l20 197h212v-44h-173l-11 -112c15 5 36 10 66 10c84 0 143 -47 143 -124
c0 -83 -67 -136 -148 -136z" />
    <glyph glyph-name="six.sup" unicode="&#x2076;" horiz-adv-x="421" 
d="M324 819c0 -21 -14 -34 -32 -34c-22 0 -32 13 -32 30c0 7 2 15 6 19c-8 9 -26 15 -44 15c-68 0 -119 -72 -120 -181c23 38 63 60 112 60c79 0 132 -52 132 -124c0 -71 -55 -129 -139 -129c-45 0 -79 16 -106 43c-32 32 -43 75 -43 137c0 162 79 234 165 234
c38 0 65 -12 82 -29c14 -14 19 -27 19 -41zM207 517c55 0 92 37 92 86s-35 85 -92 85c-55 0 -96 -37 -96 -84c0 -23 9 -45 25 -60c17 -17 43 -27 71 -27z" />
    <glyph glyph-name="seven.sup" unicode="&#x2077;" horiz-adv-x="421" 
d="M125 483l165 359h-176v-67h-42v106h263l10 -20l-172 -378h-48z" />
    <glyph glyph-name="eight.sup" unicode="&#x2078;" horiz-adv-x="421" 
d="M201 477c-84 0 -142 48 -142 108c0 48 40 92 93 105c-54 16 -83 55 -83 95c0 61 58 102 132 102c72 0 132 -41 132 -102c0 -40 -31 -79 -85 -95c54 -13 93 -57 93 -105c0 -60 -58 -108 -140 -108zM201 708c46 0 84 30 84 69c0 41 -36 70 -84 70c-50 0 -86 -29 -86 -70
c0 -39 39 -69 86 -69zM201 518c54 0 93 32 93 75c0 41 -42 77 -93 77c-53 0 -93 -36 -93 -77c0 -43 38 -75 93 -75z" />
    <glyph glyph-name="nine.sup" unicode="&#x2079;" horiz-adv-x="421" 
d="M193 848c-55 0 -92 -37 -92 -87c0 -49 35 -85 92 -85c56 0 96 37 96 84c0 24 -9 45 -24 61c-17 17 -44 27 -72 27zM76 545c0 22 14 35 33 35c21 0 32 -13 32 -30c0 -8 -3 -16 -7 -20c8 -8 26 -14 45 -14c67 0 118 71 119 180c-23 -38 -64 -60 -111 -60
c-80 0 -132 53 -132 124c0 72 55 129 138 129c45 0 79 -15 107 -43c31 -31 42 -75 42 -137c0 -162 -79 -234 -164 -234c-39 0 -65 13 -83 29c-14 14 -19 27 -19 41z" />
    <glyph glyph-name="zero.inf" unicode="&#x2080;" horiz-adv-x="421" 
d="M200 -186c-88 0 -150 83 -150 205c0 126 63 207 151 207c86 0 149 -81 149 -205c0 -125 -63 -207 -150 -207zM200 -143c61 0 102 66 102 162c0 98 -41 164 -102 164s-102 -66 -102 -162c0 -98 41 -164 102 -164z" />
    <glyph glyph-name="one.inf" unicode="&#x2081;" horiz-adv-x="421" 
d="M79 -178v41h107v309l-103 -25l-9 41l136 35h22v-360h106v-41h-259z" />
    <glyph glyph-name="two.inf" unicode="&#x2082;" horiz-adv-x="421" 
d="M73 -178c-1 0 -13 21 -13 21c26 83 88 133 141 171c47 33 80 59 80 103c0 41 -38 71 -82 71c-47 0 -75 -24 -79 -37c11 -4 19 -16 19 -29c0 -18 -14 -33 -32 -33c-23 0 -36 18 -36 43c0 45 50 96 130 96c70 0 129 -45 129 -111c0 -63 -45 -95 -101 -134
c-50 -33 -95 -74 -113 -122h179v64h41v-103h-263z" />
    <glyph glyph-name="three.inf" unicode="&#x2083;" horiz-adv-x="421" 
d="M194 -184c-71 0 -137 38 -137 86c0 22 16 39 35 39c20 0 31 -14 31 -32c0 -10 -5 -20 -13 -24c7 -9 39 -30 84 -30c58 0 97 34 97 75c0 47 -43 78 -115 78h-24v41h26c59 0 104 30 104 74c0 41 -38 64 -86 64c-40 0 -65 -14 -74 -26c7 -4 14 -13 14 -24
c0 -17 -13 -31 -30 -31c-19 0 -36 15 -36 39c0 35 45 81 128 81c77 0 130 -45 130 -101c0 -47 -44 -85 -94 -95c55 -10 104 -52 104 -101c0 -66 -61 -113 -144 -113z" />
    <glyph glyph-name="four.inf" unicode="&#x2084;" horiz-adv-x="421" 
d="M166 -178v39h74v78h-187l-9 20l209 272l34 -27l-178 -227h131v85l44 18v-103h66v-38h-66v-78h53v-39h-171z" />
    <glyph glyph-name="five.inf" unicode="&#x2085;" horiz-adv-x="421" 
d="M188 -186c-77 0 -128 37 -128 74c0 19 14 35 35 35c20 0 32 -14 32 -31c0 -7 -3 -14 -7 -18c9 -9 34 -18 67 -18c64 0 102 40 102 94c0 45 -33 83 -99 83c-32 0 -67 -10 -89 -21l-22 11l20 197h212v-44h-173l-11 -112c15 5 36 10 66 10c84 0 143 -47 143 -124
c0 -83 -67 -136 -148 -136z" />
    <glyph glyph-name="six.inf" unicode="&#x2086;" horiz-adv-x="421" 
d="M324 158c0 -21 -14 -34 -32 -34c-22 0 -32 13 -32 30c0 7 2 15 6 19c-8 9 -26 15 -44 15c-68 0 -119 -72 -120 -181c23 38 63 60 112 60c79 0 132 -52 132 -124c0 -71 -55 -129 -139 -129c-45 0 -79 16 -106 43c-32 32 -43 75 -43 137c0 162 79 234 165 234
c38 0 65 -12 82 -29c14 -14 19 -27 19 -41zM207 -144c55 0 92 37 92 86s-35 85 -92 85c-55 0 -96 -37 -96 -84c0 -23 9 -45 25 -60c17 -17 43 -27 71 -27z" />
    <glyph glyph-name="seven.inf" unicode="&#x2087;" horiz-adv-x="421" 
d="M125 -178l165 359h-176v-67h-42v106h263l10 -20l-172 -378h-48z" />
    <glyph glyph-name="eight.inf" unicode="&#x2088;" horiz-adv-x="421" 
d="M201 -184c-84 0 -142 48 -142 108c0 48 40 92 93 105c-54 16 -83 55 -83 95c0 61 58 102 132 102c72 0 132 -41 132 -102c0 -40 -31 -79 -85 -95c54 -13 93 -57 93 -105c0 -60 -58 -108 -140 -108zM201 47c46 0 84 30 84 69c0 41 -36 70 -84 70c-50 0 -86 -29 -86 -70
c0 -39 39 -69 86 -69zM201 -143c54 0 93 32 93 75c0 41 -42 77 -93 77c-53 0 -93 -36 -93 -77c0 -43 38 -75 93 -75z" />
    <glyph glyph-name="nine.inf" unicode="&#x2089;" horiz-adv-x="421" 
d="M193 187c-55 0 -92 -37 -92 -87c0 -49 35 -85 92 -85c56 0 96 37 96 84c0 24 -9 45 -24 61c-17 17 -44 27 -72 27zM76 -116c0 22 14 35 33 35c21 0 32 -13 32 -30c0 -8 -3 -16 -7 -20c8 -8 26 -14 45 -14c67 0 118 71 119 180c-23 -38 -64 -60 -111 -60
c-80 0 -132 53 -132 124c0 72 55 129 138 129c45 0 79 -15 107 -43c31 -31 42 -75 42 -137c0 -162 -79 -234 -164 -234c-39 0 -65 13 -83 29c-14 14 -19 27 -19 41z" />
    <glyph glyph-name="zero.tab" 
d="M296 -13c-137 0 -240 147 -240 374c0 230 101 376 240 376c138 0 239 -146 239 -376c0 -227 -103 -374 -239 -374zM296 681c-107 0 -179 -125 -179 -318c0 -194 72 -320 179 -320c106 0 178 126 178 320c0 193 -72 318 -178 318z" />
    <glyph glyph-name="one.tab" 
d="M89 0v53h186v608l-179 -50l-12 56l217 60h34v-674h183v-53h-429z" />
    <glyph glyph-name="two.tab" 
d="M506 544c0 -117 -71 -172 -183 -254c-96 -70 -173 -149 -195 -237h330v111h59v-164h-447l-15 26c33 143 138 235 236 309c90 67 153 118 153 209c0 82 -76 138 -157 138c-73 0 -125 -29 -144 -62c-4 -6 -7 -12 -8 -17c22 -4 37 -26 37 -47c0 -27 -21 -48 -48 -48
c-31 0 -54 20 -54 65c0 21 7 45 21 67c33 52 103 97 200 97c115 0 215 -75 215 -193z" />
    <glyph glyph-name="three.tab" 
d="M279 -13c-84 0 -167 39 -205 93c-15 20 -22 42 -22 65c0 33 22 61 51 61c26 0 46 -22 46 -47c0 -22 -14 -39 -33 -44c3 -6 8 -13 15 -19c25 -25 79 -55 148 -55c116 0 184 75 184 150c0 63 -37 108 -97 133c-39 17 -81 26 -136 26h-23v53h29c53 0 95 13 133 35
c45 27 75 68 75 117c0 80 -64 127 -163 127c-64 0 -111 -28 -134 -49c-6 -5 -10 -12 -13 -17c17 -6 33 -20 33 -45s-20 -46 -45 -46c-26 0 -52 23 -52 57c0 21 7 42 21 63c33 47 101 92 195 92c121 0 217 -67 217 -182c0 -65 -40 -115 -100 -147c-23 -12 -51 -23 -79 -28
c29 -5 56 -11 79 -22c72 -31 119 -89 119 -164c0 -118 -100 -207 -243 -207z" />
    <glyph glyph-name="four.tab" 
d="M224 0v53h132v163h-328l-10 23l368 500l46 -33l-324 -438h248v173l60 27v-200h128v-52h-128v-163h106v-53h-298z" />
    <glyph glyph-name="five.tab" 
d="M271 -13c-72 0 -136 23 -174 58c-23 19 -35 42 -35 67c0 27 19 54 52 54c23 0 46 -21 46 -47c0 -13 -6 -29 -19 -37c5 -5 9 -9 16 -13c26 -16 64 -26 120 -26c112 0 190 78 190 185c0 91 -68 166 -185 166c-64 0 -125 -21 -161 -37l-27 12l38 355h353v-61h-304l-25 -235
c29 12 65 23 130 23c133 0 242 -79 242 -222c0 -155 -119 -242 -257 -242z" />
    <glyph glyph-name="six.tab" 
d="M455 563c-27 0 -48 21 -48 48c0 16 6 28 15 35c-14 19 -51 35 -92 35c-124 0 -210 -147 -214 -362c10 23 25 43 42 60c39 37 93 62 149 62c135 0 226 -96 226 -225s-97 -229 -228 -229c-70 0 -128 25 -170 69c-51 54 -78 138 -78 249c0 316 149 432 279 432
c53 0 96 -17 127 -42c25 -22 40 -49 40 -78c0 -32 -21 -54 -48 -54zM306 42c94 0 167 72 167 172s-73 172 -167 172c-100 0 -174 -78 -174 -172c0 -46 20 -91 52 -122c31 -31 74 -50 122 -50z" />
    <glyph glyph-name="seven.tab" 
d="M159 0l300 671h-346v-111h-58v164h479l8 -17l-318 -707h-65z" />
    <glyph glyph-name="eight.tab" 
d="M296 737c114 0 219 -64 219 -192c0 -76 -58 -144 -134 -168c67 -13 150 -88 150 -183c0 -125 -105 -207 -235 -207c-131 0 -236 82 -236 207c0 95 83 170 150 183c-76 24 -134 92 -134 168c0 128 105 192 220 192zM296 404c90 0 160 62 160 139c0 80 -68 139 -160 139
c-93 0 -161 -59 -161 -139c0 -77 70 -139 161 -139zM296 42c100 0 175 62 175 152c0 85 -80 155 -175 155c-96 0 -176 -70 -176 -155c0 -90 75 -152 176 -152z" />
    <glyph glyph-name="nine.tab" 
d="M284 682c-94 0 -167 -74 -167 -177s73 -177 167 -177c100 0 174 79 174 177c0 47 -18 93 -51 125c-31 31 -75 52 -123 52zM533 419c0 -316 -146 -432 -273 -432c-48 0 -96 16 -131 42c-27 21 -46 49 -46 77c0 32 21 54 48 54s48 -22 48 -48c0 -14 -7 -28 -17 -36
c6 -7 11 -11 18 -16c18 -12 48 -19 88 -19c118 0 201 145 207 357c-10 -23 -26 -45 -43 -62c-39 -38 -93 -64 -149 -64c-135 0 -226 98 -226 231c0 132 97 234 228 234c70 0 128 -25 170 -69c51 -54 78 -138 78 -249z" />
    <glyph glyph-name="period.tab" horiz-adv-x="295" 
d="M147 -11c-34 0 -58 27 -58 61s24 60 58 60s59 -26 59 -60s-25 -61 -59 -61z" />
    <glyph glyph-name="comma.tab" horiz-adv-x="295" 
d="M60 -161l-15 23c74 54 95 104 96 133c-27 3 -52 29 -52 57c0 31 26 55 55 55c33 0 62 -27 62 -76c0 -58 -38 -136 -146 -192z" />
    <glyph glyph-name="colon.tab" horiz-adv-x="295" 
d="M147 284c-34 0 -58 26 -58 60s24 61 58 61s59 -27 59 -61s-25 -60 -59 -60zM147 -11c-34 0 -58 27 -58 61s24 60 58 60s59 -26 59 -60s-25 -61 -59 -61z" />
    <glyph glyph-name="semicolon.tab" horiz-adv-x="295" 
d="M147 284c-34 0 -58 26 -58 60s24 61 58 61s59 -27 59 -61s-25 -60 -59 -60zM60 -161l-15 23c74 54 95 104 96 133c-26 3 -52 29 -52 57c0 31 26 55 55 55c33 0 62 -27 62 -76c0 -58 -38 -136 -146 -192z" />
    <glyph glyph-name="twodotleader.tab" 
d="M442 -11c-34 0 -59 27 -59 61s25 60 59 60s58 -26 58 -60s-24 -61 -58 -61zM150 -11c-34 0 -58 27 -58 61s24 60 58 60s59 -26 59 -60s-25 -61 -59 -61z" />
    <glyph glyph-name="periodcentered.tab" horiz-adv-x="295" 
d="M147 214c-34 0 -58 26 -58 60s24 61 58 61s59 -27 59 -61s-25 -60 -59 -60z" />
    <glyph glyph-name="slash.tab" 
d="M39 -229l-48 24l501 1021l48 -25z" />
    <glyph glyph-name="bar.tab" horiz-adv-x="295" 
d="M122 -220v1025h51v-1025h-51z" />
    <glyph glyph-name="underscore.tab" 
d="M-1 -153v55h594v-55h-594z" />
    <glyph glyph-name="dollar.tab" 
d="M151 548c0 -68 47 -106 123 -138l23 264c-88 -2 -146 -58 -146 -126zM462 186c0 76 -56 116 -146 149l-25 -285c104 1 171 54 171 136zM126 114c19 -25 62 -50 116 -60l26 298c-100 39 -175 89 -175 192c0 101 83 180 208 180l9 97l50 -5l-9 -96c95 -16 164 -74 164 -137
c0 -34 -22 -53 -47 -53c-26 0 -47 20 -47 46c0 17 10 33 20 44c-16 21 -53 40 -94 49l-25 -277c108 -41 197 -91 197 -201c0 -118 -102 -191 -232 -191l-9 -110l-50 5l9 108c-112 17 -183 91 -183 144c0 36 23 59 49 59s45 -19 45 -43c0 -20 -9 -36 -22 -49z" />
    <glyph glyph-name="sterling.tab" 
d="M39 26c0 28 33 61 109 61c38 49 54 99 54 161c0 12 -1 24 -3 36h-113v48h103c-4 14 -9 28 -14 43c-15 46 -31 96 -31 161c0 113 88 200 197 200c104 0 173 -62 173 -126c0 -33 -24 -53 -48 -53c-28 0 -48 20 -48 46c0 17 11 33 19 41c-17 23 -45 40 -99 40
c-74 0 -139 -62 -139 -147c0 -57 15 -103 28 -147c6 -20 12 -40 16 -58h184v-48h-175c2 -13 3 -25 3 -37c0 -76 -25 -132 -52 -159c27 -1 63 -10 100 -22c58 -18 78 -24 108 -24c57 0 76 22 95 71l48 -20c-20 -67 -61 -106 -141 -106c-44 0 -71 10 -127 30
c-42 14 -71 23 -114 24h-1c-24 -34 -63 -56 -88 -55c-27 0 -44 16 -44 40z" />
    <glyph glyph-name="Euro.tab" 
d="M453 560c0 22 13 40 32 47c-13 29 -55 75 -127 75c-95 0 -166 -79 -188 -222h221v-51h-226c-1 -17 -2 -34 -2 -51c0 -20 1 -39 2 -57h226v-51h-219c22 -121 83 -208 181 -208c64 0 109 30 156 85l37 -37c-47 -61 -114 -103 -195 -103c-133 0 -215 112 -240 263h-73v51h66
c-1 18 -2 37 -2 57c0 17 1 34 2 51h-66v51h71c28 175 131 276 253 276c107 0 188 -83 188 -163c0 -31 -18 -58 -53 -58c-26 0 -44 22 -44 45z" />
    <glyph glyph-name="yen.tab" 
d="M163 0v53h103v110h-164v50h164v80h-164v51h149l-169 327h-71v53h221v-53h-86l152 -300l149 300h-86v53h220v-53h-72l-169 -327h149v-51h-164v-80h164v-50h-164v-110h103v-53h-265z" />
    <glyph glyph-name="cent.tab" 
d="M128 372c0 -87 50 -154 132 -180l34 374c-85 -8 -166 -71 -166 -194zM494 235l-5 -58c-45 -32 -108 -48 -153 -48c-11 0 -21 0 -31 1l-13 -150l-50 4l14 155c-113 30 -188 123 -188 234c0 133 102 236 230 243l12 122l50 -4l-11 -120c86 -14 156 -72 156 -133
c0 -28 -19 -57 -51 -57c-17 0 -40 13 -40 38c0 18 10 33 27 41c-12 31 -53 54 -96 61l-35 -382c10 -1 20 -2 31 -2c45 0 96 17 153 55z" />
    <glyph glyph-name="numbersign.tab" 
d="M245 466l-34 -217h134l34 217h-134zM63 466v45h138l33 212h50l-32 -212h133l33 212h50l-33 -212h138v-45h-145l-33 -217h134v-45h-141l-31 -204h-50l31 204h-134l-31 -204h-50l31 204h-135v45h142l33 217h-131z" />
    <glyph glyph-name="paragraph.tab" 
d="M32 499c0 137 104 225 248 225h268v-53h-83v-618h83v-53h-338v53h92v219c-16 -1 -14 -1 -31 -1c-140 0 -239 89 -239 228zM356 50h55v624h-55v-624z" />
    <glyph glyph-name="section.tab" 
d="M292 461c-19 4 -36 8 -51 13c-61 -22 -108 -59 -108 -107c0 -41 28 -71 167 -104c18 -4 35 -8 50 -13c64 23 109 60 109 106c0 42 -28 72 -167 105zM132 146c27 0 47 -17 47 -44c0 -10 -1 -21 -8 -31c15 -17 70 -33 109 -33c89 0 144 35 144 80c0 42 -23 62 -159 98
c-119 30 -197 67 -197 144c0 62 58 107 121 132c-56 24 -82 57 -82 110c0 70 81 135 204 135c51 0 95 -13 129 -31c38 -21 63 -51 63 -80c0 -28 -19 -48 -43 -48c-27 0 -47 17 -47 44c0 9 1 20 8 31c-4 5 -12 9 -21 14c-25 11 -61 19 -88 19c-89 0 -144 -35 -144 -81
c0 -42 23 -62 159 -97c119 -30 197 -67 197 -144c0 -61 -56 -106 -119 -133c51 -22 79 -52 79 -106c0 -76 -80 -138 -203 -138c-66 0 -124 21 -158 51c-22 19 -34 39 -34 60c0 28 18 48 43 48z" />
    <glyph glyph-name="degree.tab" 
d="M293 426c-117 0 -194 90 -194 197c0 108 77 198 194 198c118 0 195 -90 195 -198c0 -107 -77 -197 -195 -197zM293 780c-87 0 -146 -70 -146 -157c0 -86 59 -156 146 -156c88 0 147 70 147 156c0 87 -59 157 -147 157z" />
    <glyph glyph-name="percent.tab" 
d="M34 579c0 88 51 158 128 158c76 0 129 -70 129 -158c0 -89 -53 -159 -129 -159c-77 0 -128 70 -128 159zM104 -10l-39 24l211 356c84 142 205 347 214 361l38 -23c-9 -16 -128 -219 -212 -361zM81 579c0 -64 33 -116 81 -116s81 52 81 116c0 63 -33 115 -81 115
s-81 -52 -81 -115zM299 145c0 89 54 159 129 159c74 0 128 -70 128 -159s-54 -158 -128 -158c-75 0 -129 69 -129 158zM350 145c0 -63 32 -112 78 -112s77 49 77 112c0 64 -31 113 -77 113s-78 -49 -78 -113z" />
    <glyph glyph-name="quotedbl.tab" 
d="M387 525l-32 225c-7 41 10 67 42 67c31 0 49 -24 43 -67l-32 -225h-21zM183 525l-32 225c-6 41 11 67 43 67c30 0 49 -24 42 -67l-32 -225h-21z" />
    <glyph glyph-name="quotesingle.tab" horiz-adv-x="295" 
d="M136 525l-32 225c-6 41 11 67 42 67s49 -24 43 -67l-32 -225h-21z" />
    <glyph glyph-name="plus.tab" 
d="M269 174v172h-170v51h170v172h53v-172h170v-51h-170v-172h-53z" />
    <glyph glyph-name="minus.tab" 
d="M99 346v51h393v-51h-393z" />
    <glyph glyph-name="divide.tab" 
d="M296 489c-26 0 -47 22 -47 48s21 48 47 48c24 0 45 -22 45 -48s-21 -48 -45 -48zM492 346h-393v51h393v-51zM296 158c-26 0 -47 23 -47 48c0 26 21 48 47 48c24 0 45 -22 45 -48c0 -25 -21 -48 -45 -48z" />
    <glyph glyph-name="equal.tab" 
d="M99 430v51h393v-51h-393zM99 241v51h393v-51h-393z" />
    <glyph glyph-name="multiply.tab" 
d="M434 195l-140 141l-138 -140l-36 36l140 139l-141 139l37 37l140 -140l138 139l36 -36l-140 -138l141 -140z" />
    <glyph glyph-name="less.tab" 
d="M423 153l-314 202v15l314 203l28 -42l-263 -168l263 -169z" />
    <glyph glyph-name="greater.tab" 
d="M168 573l314 -203v-15l-314 -202l-28 41l263 169l-263 168z" />
    <glyph glyph-name="plusminus.tab" 
d="M269 230v171h-170v51h170v172h53v-172h170v-51h-170v-171h-53zM99 87v51h393v-51h-393z" />
    <glyph glyph-name="zero.idx_P2D" horiz-adv-x="1220" 
d="M610 871c299 0 540 -242 540 -541s-241 -541 -540 -541s-540 242 -540 541s241 541 540 541zM610 835c-279 0 -499 -226 -499 -505s220 -505 499 -505s499 226 499 505s-220 505 -499 505zM609 71c-112 0 -201 107 -201 266c0 160 90 267 203 267
c112 0 202 -108 202 -266c0 -161 -90 -267 -204 -267zM610 122c89 0 145 88 145 215s-57 215 -145 215s-145 -87 -145 -214c0 -128 58 -216 145 -216z" />
    <glyph glyph-name="one.idx_P2D" horiz-adv-x="1220" 
d="M610 871c299 0 540 -242 540 -541s-241 -541 -540 -541s-540 242 -540 541s241 541 540 541zM610 835c-279 0 -499 -226 -499 -505s220 -505 499 -505s499 226 499 505s-220 505 -499 505zM759 80h-294v50h121v406l-115 -25l-11 49l155 36h26v-466h118v-50z" />
    <glyph glyph-name="two.idx_P2D" horiz-adv-x="1220" 
d="M610 871c299 0 540 -242 540 -541s-241 -541 -540 -541s-540 242 -540 541s241 541 540 541zM610 835c-279 0 -499 -226 -499 -505s220 -505 499 -505s499 226 499 505s-220 505 -499 505zM449 483c0 16 5 33 16 50c25 39 78 71 150 71c86 0 161 -58 161 -141
c0 -84 -53 -124 -129 -176c-65 -45 -122 -98 -144 -159h232v82h50v-130h-334c-1 0 -15 25 -15 25c32 107 108 171 179 221c62 43 104 77 104 137c0 53 -49 91 -107 91c-41 0 -74 -13 -92 -31c-6 -5 -9 -11 -11 -16c16 -8 25 -23 25 -37c0 -23 -19 -40 -40 -40
c-28 0 -45 20 -45 53z" />
    <glyph glyph-name="three.idx_P2D" horiz-adv-x="1220" 
d="M610 871c299 0 540 -242 540 -541s-241 -541 -540 -541s-540 242 -540 541s241 541 540 541zM610 835c-279 0 -499 -226 -499 -505s220 -505 499 -505s499 226 499 505s-220 505 -499 505zM438 182c0 26 18 48 42 48c21 0 38 -18 38 -38c0 -14 -7 -26 -19 -32
c20 -26 71 -38 107 -38c74 0 122 45 122 97c0 39 -21 68 -59 86c-26 12 -58 17 -96 17h-20v50h23c39 0 74 10 99 29c24 17 39 41 39 70c0 53 -43 81 -107 81c-44 0 -78 -13 -94 -32c12 -5 21 -17 21 -31c0 -22 -19 -39 -40 -39c-20 0 -42 18 -42 48c0 15 6 31 18 47
c24 30 72 57 140 57c89 0 160 -51 160 -130c0 -42 -24 -77 -59 -100c-17 -11 -34 -19 -55 -23c20 -4 38 -10 55 -19c41 -22 71 -60 71 -111c0 -86 -74 -146 -176 -146c-60 0 -115 22 -145 54c-14 17 -23 35 -23 55z" />
    <glyph glyph-name="four.idx_P2D" horiz-adv-x="1220" 
d="M610 871c299 0 540 -242 540 -541s-241 -541 -540 -541s-540 242 -540 541s241 541 540 541zM610 835c-279 0 -499 -226 -499 -505s220 -505 499 -505s499 226 499 505s-220 505 -499 505zM547 80v48h94v105h-237l-12 23l268 351l43 -31l-231 -298h169v112l55 24v-136h88
v-46h-88v-104h72v-48h-221z" />
    <glyph glyph-name="five.idx_P2D" horiz-adv-x="1220" 
d="M610 871c299 0 540 -242 540 -541s-241 -541 -540 -541s-540 242 -540 541s241 541 540 541zM610 835c-279 0 -499 -226 -499 -505s220 -505 499 -505s499 226 499 505s-220 505 -499 505zM606 71c-90 0 -169 45 -169 93c0 22 15 43 42 43c21 0 38 -19 38 -39
c0 -10 -4 -20 -10 -24c11 -12 56 -24 99 -24c74 0 118 52 118 124c0 61 -37 110 -116 110c-40 0 -98 -13 -125 -25l-24 13l25 252h265v-53h-219l-16 -150c19 7 61 14 100 14c94 0 167 -59 167 -160c0 -110 -77 -174 -175 -174z" />
    <glyph glyph-name="six.idx_P2D" horiz-adv-x="1220" 
d="M610 871c299 0 540 -242 540 -541s-241 -541 -540 -541s-540 242 -540 541s241 541 540 541zM610 835c-279 0 -499 -226 -499 -505s220 -505 499 -505s499 226 499 505s-220 505 -499 505zM766 515c0 -27 -18 -42 -39 -42c-25 0 -40 18 -40 38c0 10 4 18 8 24
c-9 9 -30 19 -60 19c-84 0 -150 -91 -153 -234c24 42 77 77 137 77c103 0 174 -70 174 -162s-75 -164 -176 -164c-54 0 -98 19 -130 51c-39 40 -59 100 -59 181c0 212 106 301 209 301c35 0 67 -10 89 -24c25 -17 40 -40 40 -65zM491 235c0 -30 14 -59 37 -80
c24 -21 55 -35 90 -35c67 0 119 48 119 114s-51 113 -121 113c-71 0 -125 -49 -125 -112z" />
    <glyph glyph-name="seven.idx_P2D" horiz-adv-x="1220" 
d="M610 871c299 0 540 -242 540 -541s-241 -541 -540 -541s-540 242 -540 541s241 541 540 541zM610 835c-279 0 -499 -226 -499 -505s220 -505 499 -505s499 226 499 505s-220 505 -499 505zM578 80h-58l215 466h-229v-85h-51v132h338l10 -22z" />
    <glyph glyph-name="eight.idx_P2D" horiz-adv-x="1220" 
d="M610 871c299 0 540 -242 540 -541s-241 -541 -540 -541s-540 242 -540 541s241 541 540 541zM610 835c-279 0 -499 -226 -499 -505s220 -505 499 -505s499 226 499 505s-220 505 -499 505zM610 73c-105 0 -178 60 -178 146c0 63 52 115 105 129c-55 17 -94 64 -94 115
c0 88 75 139 167 139c91 0 167 -51 167 -139c0 -51 -40 -98 -95 -115c53 -14 106 -66 106 -129c0 -86 -74 -146 -178 -146zM610 369c61 0 110 41 110 92c0 53 -46 92 -110 92s-111 -39 -111 -92c0 -51 50 -92 111 -92zM610 122c71 0 121 41 121 100c0 54 -54 100 -121 100
c-68 0 -122 -46 -122 -100c0 -58 50 -100 122 -100z" />
    <glyph glyph-name="nine.idx_P2D" horiz-adv-x="1220" 
d="M610 871c299 0 540 -242 540 -541s-241 -541 -540 -541s-540 242 -540 541s241 541 540 541zM610 835c-279 0 -499 -226 -499 -505s220 -505 499 -505s499 226 499 505s-220 505 -499 505zM731 434c0 34 -15 64 -37 86c-23 22 -54 35 -90 35c-67 0 -119 -49 -119 -116
c0 -70 51 -116 121 -116s125 49 125 111zM453 159c0 28 18 43 38 43c24 0 40 -18 40 -39c0 -11 -3 -18 -8 -23c10 -13 34 -20 66 -20c82 0 150 82 151 230c-24 -43 -79 -76 -138 -76c-101 0 -172 66 -172 163c0 95 74 167 175 167c54 0 97 -20 128 -51
c41 -40 60 -102 60 -184c0 -212 -97 -298 -207 -298c-42 0 -85 16 -111 40c-14 15 -22 30 -22 48z" />
    <glyph glyph-name="space" unicode=" " horiz-adv-x="271" 
 />
    <glyph glyph-name="uni00A0" unicode="&#xa0;" horiz-adv-x="271" 
 />
    <glyph glyph-name="emspace" unicode="&#x2003;" horiz-adv-x="1000" 
 />
    <glyph glyph-name="enspace" unicode="&#x2002;" horiz-adv-x="500" 
 />
    <glyph glyph-name="threeperemspace" unicode="&#x2004;" horiz-adv-x="333" 
 />
    <glyph glyph-name="fourperemspace" unicode="&#x2005;" horiz-adv-x="250" 
 />
    <glyph glyph-name="thinspace" unicode="&#x2009;" horiz-adv-x="133" 
 />
    <glyph glyph-name="hairspace" unicode="&#x200a;" horiz-adv-x="75" 
 />
    <glyph glyph-name="space.tab" horiz-adv-x="295" 
 />
    <glyph glyph-name="figurespace" unicode="&#x2007;" 
 />
    <glyph glyph-name="NUL" horiz-adv-x="0" 
 />
    <glyph glyph-name="A.sc" horiz-adv-x="679" 
d="M338 533l-107 -282h214zM193 581h294v-51h-92l185 -479h77v-51h-232v51h96l-56 148h-253l-56 -148h96v-51h-230v51h78l183 479h-90v51z" />
    <glyph glyph-name="B.sc" horiz-adv-x="618" 
d="M341 0h-284v51h105v479h-105v51h275c143 0 199 -69 199 -146c0 -73 -48 -120 -115 -137c80 -19 131 -61 131 -139c0 -94 -71 -159 -206 -159zM220 320h108c98 0 144 44 144 109c0 62 -47 101 -141 101h-111v-210zM220 51h125c94 0 144 45 144 110c0 75 -58 110 -160 110
h-109v-220z" />
    <glyph glyph-name="C.sc" horiz-adv-x="648" 
d="M545 120l33 -40c-57 -58 -138 -90 -220 -90c-175 0 -294 132 -294 301c0 166 123 302 296 302c120 0 215 -75 215 -144c0 -33 -20 -56 -50 -56c-26 0 -45 18 -45 44c0 20 11 32 25 38c-16 28 -67 65 -145 65c-137 0 -237 -108 -237 -249c0 -145 100 -248 235 -248
c74 0 135 28 187 77z" />
    <glyph glyph-name="D.sc" horiz-adv-x="710" 
d="M312 0h-255v51h106v479h-106v51h255c204 0 334 -110 334 -284c0 -176 -122 -297 -334 -297zM220 51h99c177 0 268 101 268 247c0 144 -108 232 -275 232h-92v-479z" />
    <glyph glyph-name="E.sc" horiz-adv-x="598" 
d="M522 0h-465v51h105v479h-105v51h465v-158h-55v107h-247v-210h201v-52h-201v-217h247v107h55v-158z" />
    <glyph glyph-name="F.sc" horiz-adv-x="573" 
d="M330 0h-273v51h105v479h-105v51h464v-158h-56v107h-245v-217h197v-52h-197v-210h110v-51z" />
    <glyph glyph-name="G.sc" horiz-adv-x="692" 
d="M365 541c-145 0 -242 -112 -242 -253c0 -148 106 -245 232 -245c74 0 134 21 187 58v132h-166v51h222v-284h-55v50c-51 -38 -111 -60 -193 -60c-148 0 -286 113 -286 297c0 183 139 306 303 306c134 0 222 -74 222 -135c0 -33 -20 -55 -48 -55c-25 0 -44 18 -44 42
c0 19 10 31 21 37c-22 27 -78 59 -153 59z" />
    <glyph glyph-name="H.sc" horiz-adv-x="783" 
d="M57 0v51h105v479h-105v51h269v-51h-106v-210h344v210h-107v51h269v-51h-105v-479h105v-51h-269v51h107v216h-344v-216h106v-51h-269z" />
    <glyph glyph-name="I.sc" horiz-adv-x="387" 
d="M330 0h-273v51h108v479h-108v51h273v-51h-108v-479h108v-51z" />
    <glyph glyph-name="J.sc" horiz-adv-x="513" 
d="M205 44c32 0 61 10 83 33c24 27 37 70 37 130v323h-108v51h262v-51h-96v-325c0 -71 -17 -130 -53 -166c-32 -32 -74 -49 -126 -49c-93 0 -168 64 -168 146c0 39 21 65 52 65c24 0 45 -17 45 -44c0 -20 -14 -39 -36 -43c2 -28 41 -70 108 -70z" />
    <glyph glyph-name="K.sc" horiz-adv-x="677" 
d="M564 529l-202 -203l194 -275h99v-51h-134l-199 286l-100 -100v-135h103l1 -51h-269v51h107v479h-107v51h262v-51h-97v-276l276 276h-95v51h241v-52h-80z" />
    <glyph glyph-name="L.sc" horiz-adv-x="562" 
d="M457 51v112h56v-163h-456v51h105v479h-105v51h272v-51h-109v-479h237z" />
    <glyph glyph-name="M.sc" horiz-adv-x="863" 
d="M631 581h163v-51h-105l23 -479h105v-51h-269v51h107l-15 434l-199 -404h-21l-199 404l-15 -434h108v-51h-268v51h106l21 479h-105v51h164l199 -409z" />
    <glyph glyph-name="N.sc" horiz-adv-x="769" 
d="M214 581l354 -465v414h-107v51h266v-51h-105v-533h-34l-372 490v-436h107v-51h-266v51h105v479h-105v51h157z" />
    <glyph glyph-name="O.sc" horiz-adv-x="719" 
d="M359 593c175 0 296 -133 296 -301c0 -169 -121 -302 -297 -302c-174 0 -294 133 -294 302c0 168 120 301 295 301zM358 43c140 0 237 103 237 249c0 143 -97 248 -236 248c-138 0 -236 -104 -236 -248c0 -146 98 -249 235 -249z" />
    <glyph glyph-name="P.sc" horiz-adv-x="577" 
d="M315 263c96 0 154 52 154 136c0 82 -67 131 -156 131h-93v-266c19 -1 59 -1 95 -1zM57 581h255c122 0 216 -70 216 -181c0 -118 -85 -188 -217 -188c-32 0 -73 0 -91 2v-163h107v-51h-270v51h105v479h-105v51z" />
    <glyph glyph-name="Q.sc" horiz-adv-x="719" 
d="M596 -123c-80 0 -136 55 -187 85c-29 18 -57 25 -90 31c-62 12 -117 34 -159 71c-59 51 -96 135 -96 228c0 168 120 301 295 301s296 -133 296 -301c0 -145 -91 -259 -224 -286c17 -7 30 -13 53 -28c43 -28 70 -45 111 -45c26 0 44 6 70 23l26 -49
c-30 -23 -61 -30 -95 -30zM358 43c137 0 237 109 237 249c0 143 -97 248 -236 248c-138 0 -236 -104 -236 -248c0 -77 30 -144 77 -189c40 -37 95 -60 158 -60z" />
    <glyph glyph-name="Q.sc_alt" horiz-adv-x="719" 
d="M655 292c0 -112 -53 -208 -140 -260l64 -102l-45 -27l-67 106c-33 -12 -70 -19 -109 -19c-174 0 -294 133 -294 302c0 168 120 301 295 301s296 -133 296 -301zM595 292c0 143 -97 248 -236 248c-138 0 -236 -104 -236 -248c0 -146 98 -249 235 -249c29 0 56 4 80 12
l-67 108l46 29l70 -114c67 42 108 119 108 214z" />
    <glyph glyph-name="R.sc" horiz-adv-x="629" 
d="M312 530h-92v-239c28 -1 59 -1 87 -1c96 0 164 43 164 123c0 75 -62 117 -159 117zM220 240v-189h107v-51h-270v51h105v479h-105v51h257c132 0 215 -64 215 -167c0 -80 -54 -138 -131 -161l127 -202h91v-51h-130l-146 240c-18 -1 -31 -1 -41 -1c-22 0 -57 0 -79 1z" />
    <glyph glyph-name="S.sc" horiz-adv-x="537" 
d="M371 473c0 14 7 30 15 38c-14 17 -62 33 -110 33c-81 0 -133 -41 -133 -99c0 -65 71 -92 144 -121c95 -35 186 -70 186 -170c0 -102 -89 -164 -206 -164c-123 0 -203 63 -203 119c0 33 18 54 45 54c26 0 44 -17 44 -42c0 -16 -7 -30 -15 -40c18 -20 64 -41 130 -41
c92 0 147 44 147 111c0 63 -74 91 -141 117c-100 38 -190 71 -190 172c0 91 77 153 195 153c102 0 182 -52 182 -115c0 -29 -21 -49 -43 -49c-29 0 -47 19 -47 44z" />
    <glyph glyph-name="T.sc" horiz-adv-x="616" 
d="M171 0v51h108v479h-170v-107h-55v158h508v-158h-56v107h-170v-479h108v-51h-273z" />
    <glyph glyph-name="U.sc" horiz-adv-x="718" 
d="M195 530v-320c0 -107 63 -169 164 -169s164 60 164 168v321h-105v51h262v-51h-99v-320c0 -142 -84 -220 -223 -220s-221 76 -221 218v322h-98v51h261v-51h-105z" />
    <glyph glyph-name="V.sc" horiz-adv-x="655" 
d="M310 -9l-218 539h-75v51h232v-51h-95l175 -445l175 445h-95v51h229v-51h-74l-219 -539h-35z" />
    <glyph glyph-name="W.sc" horiz-adv-x="910" 
d="M269 -14l-165 544h-86v51h244v-51h-96l127 -432l151 404h26l152 -404l126 432h-96v51h240v-51h-87l-164 -544h-33l-153 412l-153 -412h-33z" />
    <glyph glyph-name="X.sc" horiz-adv-x="660" 
d="M627 53v-53h-232v51h84l-151 212l-154 -212h95v-51h-236v53h77l183 243l-170 234h-79v51h236v-51h-89l139 -199l142 199h-89v51h233v-51h-82l-171 -232l182 -245h82z" />
    <glyph glyph-name="Y.sc" horiz-adv-x="620" 
d="M607 581v-51h-83l-186 -310v-169h107v-51h-271v51h107v169l-185 310h-83v51h240v-51h-94l153 -262l152 262h-94v51h237z" />
    <glyph glyph-name="Z.sc" horiz-adv-x="570" 
d="M58 0v31l374 500h-304v-105h-55v155h441v-30l-372 -500h320v103h56v-154h-460z" />
    <glyph glyph-name="Aacute.sc" horiz-adv-x="679" 
d="M298 660l-13 21l144 131c15 13 29 22 43 22c20 0 40 -16 40 -43c0 -14 -16 -32 -39 -44zM338 533l-107 -282h214zM193 581h294v-51h-92l185 -479h77v-51h-232v51h96l-56 148h-253l-56 -148h96v-51h-230v51h78l183 479h-90v51z" />
    </font>
</defs>
</svg>
