<?xml version="1.0" ?><svg viewBox="0 0 32 32" xmlns="http://www.w3.org/2000/svg"><title/><g data-name="24-Email" id="_24-Email"><path d="M31.59,11.19,27,7.83V5a1,1,0,0,0-1-1H21.78L16.59.19a1,1,0,0,0-1.18,0L10.22,4H6A1,1,0,0,0,5,5V7.83L.41,11.19A1,1,0,0,0,0,12V29a3,3,0,0,0,3,3H29a3,3,0,0,0,3-3V12A1,1,0,0,0,31.59,11.19ZM27,10.31l2.2,1.61L27,13.23ZM16,2.24,18.4,4H13.6ZM7,6H25v8.43l-9,5.4-9-5.4ZM5,10.31v2.93L2.8,11.92ZM30,29a1,1,0,0,1-1,1H3a1,1,0,0,1-1-1V13.77l13.49,8.09a1,1,0,0,0,1,0L30,13.77Z"/></g></svg>