<svg class="logo" id="header-logo" enable-background="new 0 0 24 24" viewBox="0 0 184.6 138" xmlns="http://www.w3.org/2000/svg">
    <title>Gia Bao Tran's Logo</title>
    <polygon points="40.2,121.3 40.2,133.6 2.5,111.8 2.5,24.7 40.2,2.9 78,24.7 78,68.3 40.2,90.1"></polygon>
    <polygon points="179.6,82 179.6,96.5 179.6,111.8 141.8,133.6 104.1,111.8 141.8,90.1 104.1,68.3 104.1,24.7 141.8,2.9 179.6,24.7 141.8,46.5 179.6,68.3"></polygon>
    <line x1="104.1" y1="24.7" x2="141.8" y2="46.5"></line>
    <line x1="141.8" y1="2.9" x2="141.8" y2="46.5"></line>
    <line x1="104.1" y1="68.3" x2="141.8" y2="46.5"></line>
    <line x1="141.8" y1="90.1" x2="179.6" y2="68.3"></line>
    <line x1="141.8" y1="90.1" x2="179.6" y2="111.8"></line>
    <line x1="141.8" y1="90.1" x2="141.8" y2="133.6"></line>
    <line x1="40.2" y1="90.1" x2="40.2" y2="2.9"></line>
    <line x1="2.5" y1="24.7" x2="78" y2="68.3"></line>
    <line x1="78" y1="24.7" x2="40.2" y2="46.5"></line>
</svg>